<svg xmlns="http://www.w3.org/2000/svg" width="20" height="18" viewBox="0 0 20 18">
    <g fill="none" fill-rule="evenodd">
        <path d="M-2-3h24v24H-2z"/>
        <path fill="#000" d="M11 14.268c.304.175.557.428.732.732H19a1 1 0 0 1 0 2h-7.268a2 2 0 0 1-3.464 0H1a1 1 0 0 1 0-2h7.268A2.01 2.01 0 0 1 9 14.268V13H2a1 1 0 0 1-1-1V8a1 1 0 0 1 1-1h16a1 1 0 0 1 1 1v4a1 1 0 0 1-1 1h-7v1.268zM3.75 10.75a.75.75 0 1 0 0-1.5.75.75 0 0 0 0 1.5zM7.5 9.5a.5.5 0 1 0 0 1h8a.5.5 0 1 0 0-1h-8zM2 0h16a1 1 0 0 1 1 1v4a1 1 0 0 1-1 1H2a1 1 0 0 1-1-1V1a1 1 0 0 1 1-1zm1.75 3.75a.75.75 0 1 0 0-1.5.75.75 0 0 0 0 1.5zM7.5 2.5a.5.5 0 0 0 0 1h8a.5.5 0 1 0 0-1h-8z"/>
    </g>
</svg>
