<?xml version="1.0" encoding="UTF-8"?>
<svg width="24px" height="25px" viewBox="0 0 24 25" version="1.1" xmlns="http://www.w3.org/2000/svg" xmlns:xlink="http://www.w3.org/1999/xlink">
    <!-- Generator: Sketch 64 (93537) - https://sketch.com -->
    <title>ico-morelnk-blk</title>
    <desc>Created with Sketch.</desc>
    <g id="Page-1" stroke="none" stroke-width="1" fill="none" fill-rule="evenodd">
        <g id="more-link" transform="translate(0.000000, 0.509529)" fill="#767676" fill-rule="nonzero">
            <path d="M3.75192689,10.4856423 C2.91903015,10.4856423 2.23756919,11.1671033 2.23756919,12 C2.23756919,12.8328967 2.91903015,13.5143577 3.75192689,13.5143577 C4.58482363,13.5143577 5.26628459,12.8328967 5.26628459,12 C5.26628459,11.1671033 4.58482363,10.4856423 3.75192689,10.4856423 Z M12.8380731,10.4856423 C12.0051764,10.4856423 11.3237154,11.1671033 11.3237154,12 C11.3237154,12.8328967 12.0051764,13.5143577 12.8380731,13.5143577 C13.6709698,13.5143577 14.3524308,12.8328967 14.3524308,12 C14.3524308,11.1671033 13.6709698,10.4856423 12.8380731,10.4856423 Z M8.295,10.4856423 C7.46210326,10.4856423 6.7806423,11.1671033 6.7806423,12 C6.7806423,12.8328967 7.46210326,13.5143577 8.295,13.5143577 C9.12789674,13.5143577 9.8093577,12.8328967 9.8093577,12 C9.8093577,11.1671033 9.12789674,10.4856423 8.295,10.4856423 Z M15.7624308,6 L14.3524308,7.41 L18.9324308,12 L14.3524308,16.59 L15.7624308,18 L21.7624308,12 L15.7624308,6 Z" id="Shape"></path>
        </g>
    </g>
</svg>