<?xml version="1.0" encoding="UTF-8"?>
<svg width="20px" height="20px" viewBox="0 0 20 20" version="1.1" xmlns="http://www.w3.org/2000/svg" xmlns:xlink="http://www.w3.org/1999/xlink">
    <!-- Generator: Sketch 57.1 (83088) - https://sketch.com -->
    <title>icon / ico-System-w</title>
    <desc>Created with Sketch.</desc>
    <g id="Symbols" stroke="none" stroke-width="1" fill="none" fill-rule="evenodd">
        <g id="icon-/-page-/-System-Copy" fill="#FFFFFF" fill-rule="nonzero">
            <path d="M17.5,2.18 C17.9533333,2.18 18.3466667,2.34 18.68,2.66 C19.0133333,2.98 19.18,3.36666667 19.18,3.82 L19.18,13.82 C19.18,14.2733333 19.0133333,14.6666667 18.68,15 C18.3466667,15.3333333 17.9533333,15.5 17.5,15.5 L11.68,15.5 L11.68,17.18 L13.32,17.18 L13.32,18.82 L6.68,18.82 L6.68,17.18 L8.32,17.18 L8.32,15.5 L2.5,15.5 C2.04666667,15.5 1.65333333,15.3333333 1.32,15 C0.986666667,14.6666667 0.82,14.2733333 0.82,13.82 L0.82,3.82 C0.82,3.36666667 0.986666667,2.98 1.32,2.66 C1.65333333,2.34 2.04666667,2.18 2.5,2.18 L17.5,2.18 Z M17.5,3.82 L2.5,3.82 L2.5,13.82 L17.5,13.82 L17.5,3.82 Z M7.4969203,6.75895581 C7.16291656,6.4602521 7.04972023,5.98543578 7.21303686,5.56817078 C7.37635349,5.15090578 7.78178432,4.87907902 8.22981102,4.88646035 C8.67783771,4.89384169 9.07409413,5.17887642 9.22357679,5.60129486 L10.7764232,5.60129486 C10.9255198,5.17822085 11.3220068,4.89249887 11.7705198,4.88491527 C12.2190328,4.87733167 12.6249526,5.14948629 12.7882668,5.56727796 C12.951581,5.98506962 12.8378365,6.46036032 12.5030797,6.75895581 L13.0735058,7.7567544 C13.4878272,7.70026592 13.897219,7.88964068 14.1224343,8.24196333 C14.3476496,8.59428598 14.3476496,9.04535638 14.1224343,9.39767904 C13.897219,9.75000169 13.4878272,9.93937645 13.0735058,9.88288796 L12.5030797,10.8810442 C12.8370834,11.1797479 12.9502798,11.6545642 12.7869631,12.0718292 C12.6236465,12.4890942 12.2182157,12.760921 11.770189,12.7535396 C11.3221623,12.7461583 10.9259059,12.4611236 10.7764232,12.0387051 L9.22357679,12.0387051 C9.07448023,12.4617791 8.67799315,12.7475011 8.22948018,12.7550847 C7.7809672,12.7626683 7.37504736,12.4905137 7.21173317,12.072722 C7.04841898,11.6549304 7.16216347,11.1796397 7.4969203,10.8810442 L6.92649422,9.8832456 C6.51217282,9.93973408 6.10278095,9.75035932 5.87756568,9.39803667 C5.65235041,9.04571402 5.65235041,8.59464362 5.87756568,8.24232096 C6.10278095,7.88999831 6.51217282,7.70062355 6.92649422,7.75711204 L7.4969203,6.75895581 Z M7.85419657,8.82 C7.85419657,9.17048123 7.68610864,9.48162272 7.42682406,9.67724847 L7.97400393,10.6346344 C8.26173825,10.5691411 8.56374505,10.6250503 8.80896526,10.7892071 C9.05418548,10.9533639 9.22096749,11.2112742 9.2700692,11.5022543 L10.7299308,11.5022543 C10.7790325,11.2112742 10.9458145,10.9533639 11.1910347,10.7892071 C11.436255,10.6250503 11.7382618,10.5691411 12.0259961,10.6346344 L12.5731759,9.67724847 C12.3037668,9.47466414 12.1454375,9.15707794 12.1458034,8.82 C12.1458034,8.46951877 12.3138914,8.15837728 12.5731759,7.96275153 L12.0259961,7.00536557 C11.7382618,7.07085888 11.436255,7.01494971 11.1910347,6.85079291 C10.9458145,6.6866361 10.7790325,6.42872584 10.7299308,6.13774571 L9.27042683,6.13774571 C9.22132512,6.42872584 9.05454312,6.6866361 8.8093229,6.85079291 C8.56410268,7.01494971 8.26209588,7.07085888 7.97436156,7.00536557 L7.42718169,7.96275153 C7.69623316,8.16533586 7.85456253,8.48292206 7.85419657,8.82 Z" id="Shape"></path>
        </g>
    </g>
</svg>