<?xml version="1.0" encoding="UTF-8"?>
<svg width="16px" height="18px" viewBox="0 0 16 18" version="1.1" xmlns="http://www.w3.org/2000/svg" xmlns:xlink="http://www.w3.org/1999/xlink">
    <!-- Generator: sketchtool 48.2 (47327) - http://www.bohemiancoding.com/sketch -->
    <title>4A65C632-6FC3-41A9-A372-6140EFE255C6</title>
    <desc>Created with sketchtool.</desc>
    <defs></defs>
    <g id="Pensando-custom-icon-library" stroke="none" stroke-width="1" fill="none" fill-rule="evenodd" transform="translate(-34.000000, -656.000000)">
        <g id="ico-policy" transform="translate(30.000000, 653.000000)">
            <rect id="Rectangle-21" x="0" y="0" width="24" height="24"></rect>
            <path d="M17.5,6 L17.5,21 L18.5999992,21 C18.9865985,21 19.2999992,20.6865993 19.2999992,20.3 L19.2999992,6 L17.5,6 L17.5,4.8 L8.95716229,4.8 L5.80260447,9 L5.80260447,19.2 L17.5,19.2 L17.5,21 L4.90130223,21 C4.40352676,21 4,20.5970563 4,20.1 L4,8.7 C4,8.50526681 4.06325147,8.31578655 4.18026045,8.16 L7.78546938,3.36 C7.95568426,3.13337474 8.22281971,3 8.50651117,3 L18.4208357,3 C18.9186112,3 19.3000031,3.40294373 19.3000031,3.9 L19.3000031,6 L17.5,6 Z M9,16.14 L14.86,16.14 L14.86,17.4 L9,17.4 L9,16.14 Z M9,14.08 L14.86,14.08 L14.86,15.32 L9,15.32 L9,14.08 Z M7.69451409,11 L7.69451409,10.0276803 L9.89634086,6.9451228 L10.9285714,6.9451228 L10.9285714,11 L7.69451409,11 Z" id="Combined-Shape" fill="currentcolor"></path>
        </g>
    </g>
</svg>