<?xml version="1.0" encoding="UTF-8"?>
<svg width="25px" height="25px" viewBox="0 0 25 25" version="1.1" xmlns="http://www.w3.org/2000/svg" xmlns:xlink="http://www.w3.org/1999/xlink">
    <!-- Generator: Sketch 64 (93537) - https://sketch.com -->
    <title>ico-notin-blk</title>
    <desc>Created with Sketch.</desc>
    <g id="Page-1" stroke="none" stroke-width="1" fill="none" fill-rule="evenodd">
        <polygon id="Path" points="0.990034285 0.369842989 24.9900343 0.369842989 24.9900343 24.369843 0.990034285 24.369843"></polygon>
        <path d="M21.2583172,2.6873465 L22.6725308,4.10156006 L20.1305378,6.6423465 L20.1313329,19.374843 C20.1313329,20.424843 19.3112916,21.2743884 18.2800275,21.3494504 L18.1313329,21.354843 L7.84873567,21.364843 C7.18373567,21.364843 6.59183071,21.0432248 6.22768326,20.5458131 L4.72175135,22.0523395 L3.30753779,20.6381259 L21.2583172,2.6873465 Z M18.1305378,8.6423465 L14.7185378,12.0543465 L15.0392114,12.374843 L11.0392114,16.374843 L11.0385378,15.7343465 L7.84853779,18.9243465 L7.84873567,19.394843 L18.1313329,19.384843 L18.1305378,8.6423465 Z M7.08278603,15.374843 L5.84778603,16.609843 L5.84873567,15.374843 L7.08278603,15.374843 Z M11.0392114,8.37484299 L12.5607357,9.89684299 L9.08273567,13.374843 L5.84873567,13.374843 L5.84873567,11.374843 L11.0392114,11.374843 L11.0392114,8.37484299 Z M18.1313329,3.37484299 C18.4109483,3.37484299 18.6776406,3.43235079 18.9199123,3.53636165 L17.101786,5.35484299 L7.84873567,5.36484299 L7.84873567,9.37484299 L5.84873567,9.37484299 L5.84873567,5.38484299 C5.84873567,4.33484299 6.66877699,3.46707439 7.70004108,3.39035576 L7.84873567,3.38484299 L18.1313329,3.37484299 Z" id="Shape" fill="#767676" fill-rule="nonzero"></path>
    </g>
</svg>