<svg xmlns="http://www.w3.org/2000/svg" width="24" height="22" viewBox="0 0 24 22">
    <g fill="none" fill-rule="evenodd">
        <path d="M0-1h24v24H0z"/>
        <path fill="#FFF" fill-rule="nonzero" d="M3.406 8.027l1.595-2.79A3 3 0 1 1 9.829 2h4.342a3.001 3.001 0 1 1 4.828 3.237l1.595 2.79a3 3 0 1 1 0 5.945l-1.595 2.791A3 3 0 1 1 14.171 20H9.829a3.001 3.001 0 1 1-4.828-3.237l-1.595-2.79a3 3 0 1 1 0-5.945zm1.399.576A2.995 2.995 0 0 1 6 11c0 .98-.47 1.85-1.195 2.397l1.53 2.677A3 3 0 0 1 9.959 18.5h4.082a3 3 0 0 1 3.624-2.426l1.53-2.677A2.995 2.995 0 0 1 18 11c0-.98.47-1.85 1.195-2.397l-1.53-2.677A3 3 0 0 1 14.041 3.5H9.96a3 3 0 0 1-3.624 2.426l-1.53 2.677z"/>
    </g>
</svg>
