<svg xmlns="http://www.w3.org/2000/svg" width="18" height="20" viewBox="0 0 18 20">
    <g fill="none" fill-rule="evenodd">
        <path d="M-3-2h24v24H-3z"/>
        <path fill="#FFF" d="M8.982 0l8.182 3.66v5.447c0 1.656-.357 3.253-1.07 4.793a11.82 11.82 0 0 1-2.901 3.878c-1.266 1.104-2.67 1.844-4.211 2.222-1.542-.378-2.946-1.118-4.211-2.222A11.82 11.82 0 0 1 1.869 13.9 11.285 11.285 0 0 1 .8 9.107V3.66L8.982 0zm0 18.307c1.448-.614 2.49-1.199 3.129-1.755a10.171 10.171 0 0 0 2.498-3.338 9.654 9.654 0 0 0 .918-4.107V4.719L8.982 1.79v16.517z"/>
    </g>
</svg>
