<svg fill="currentcolor" xmlns="http://www.w3.org/2000/svg" width="22" height="15" viewBox="0 0 22 15">
    <g fill="none" fill-rule="evenodd">
        <path d="M-1-4h24v24H-1z"/>
        <path fill="currentcolor" fill-rule="nonzero" d="M13.404 7.971l-.97-.331V5.256a1.436 1.436 0 0 0-2.869 0v2.37l-.969.32V2.549l.013-.004V1.433c0-.18.102-.346.265-.427L10.787.05a.48.48 0 0 1 .427 0l1.913.956a.477.477 0 0 1 .264.425l.004 1.115.009.003V7.97zm.361.124V2.647l7.882 2.148a.477.477 0 0 1 .353.46v5.172l-1.002-.266V8.414c0-.79-.337-1.434-1.128-1.434-.79 0-1.136.645-1.136 1.435v1.03l-1.562-.4V6.503c0-.79-.439-1.433-1.23-1.433-.79 0-1.24.643-1.24 1.433v1.913l-.937-.32zm-5.53-.03l-.924.305V6.46c0-.79-.394-1.39-1.185-1.39s-1.23.6-1.23 1.39v2.484l-1.424.382V8.37c0-.79-.375-1.39-1.167-1.39-.79 0-1.234.6-1.234 1.39v1.644L0 10.3V5.256c0-.215.144-.404.353-.461l7.882-2.148v5.418zM0 11.075l10.997-3.077L22 11.204v3.318a.478.478 0 0 1-.478.478h-4.783a.478.478 0 0 1-.478-.478c0-2.37-2.36-4.514-5.261-4.514-2.901 0-5.26 2.143-5.26 4.514a.478.478 0 0 1-.48.478H.479A.478.478 0 0 1 0 14.522v-3.448z"/>
    </g>
</svg>
