<svg fill="currentcolor" xmlns="http://www.w3.org/2000/svg" width="26" height="26" viewBox="0 0 26 26">
    <g fill="none" fill-rule="evenodd">
        <path d="M-3-1h30v30H-3z"/>
        <path fill="currentcolor" d="M17.625 15.049a8.783 8.783 0 0 0 2.25.193v9.133a.875.875 0 0 1-.875.875h-1.375V15.049zM10.878 5H6.946l-3.943 5.25V23h14.622v2.25H1.877A1.126 1.126 0 0 1 .75 24.125V9.875c0-.243.08-.48.225-.675l4.507-6c.213-.283.547-.45.901-.45h5.209A8.686 8.686 0 0 0 10.878 5zM7 19.175h7.325v1.575H7v-1.575zM7 16.6h7.325v1.55H7V16.6zm-1.632-3.85v-1.215L8.12 7.68h1.29v5.069H5.369zM19.5.25c1.142 0 2.199.285 3.17.856a5.924 5.924 0 0 1 2.224 2.224c.57.971.856 2.028.856 3.17a6.147 6.147 0 0 1-.856 3.17 5.924 5.924 0 0 1-2.224 2.224 6.147 6.147 0 0 1-3.17.856 6.147 6.147 0 0 1-3.17-.856 6.036 6.036 0 0 1-2.224-2.239A6.12 6.12 0 0 1 13.25 6.5a6.12 6.12 0 0 1 .856-3.155 6.151 6.151 0 0 1 2.239-2.239A6.12 6.12 0 0 1 19.5.25zm.684 6.934V3.011h-1.368v4.173h1.368zm0 2.805V8.587h-1.368v1.402h1.368z"/>
    </g>
</svg>
