<?xml version="1.0" encoding="UTF-8" standalone="no"?>
<svg width="37px" height="39px" viewBox="0 0 37 39" version="1.1" xmlns="http://www.w3.org/2000/svg" xmlns:xlink="http://www.w3.org/1999/xlink">
    <!-- Generator: sketchtool 48.2 (47327) - http://www.bohemiancoding.com/sketch -->
    <title>2F53F5F5-561F-4751-83A7-6D505B2F4811</title>
    <desc>Created with sketchtool.</desc>
    <defs></defs>
    <g id="Create-Security-Group-Modal" stroke="none" stroke-width="1" fill="none" fill-rule="evenodd" transform="translate(-335.000000, -290.000000)">
        <g id="Modal">
            <g id="icon-securityPolicy" transform="translate(330.000000, 287.000000)">
                <rect id="Rectangle-32" x="0" y="0" width="45" height="45"></rect>
                <path d="M34.7370622,17.9117624 L32.9375,17.1049936 L31.3121137,17.8336769 L31.3121137,7.17734832 L15.0436083,7.17734832 L9.04994849,15.1744944 L9.04994849,34.5961349 L22.2798049,34.5961349 C22.4859617,35.2423651 22.7350599,35.8815808 23.0271,36.5137837 C23.2728028,37.0356408 23.5402155,37.5388737 23.8293386,38.0234832 L7.33747424,38.0234832 C6.39170083,38.0234832 5.625,37.2562452 5.625,36.3098091 L5.625,14.6032697 C5.625,14.2324816 5.7451778,13.8716956 5.96749485,13.5750652 L12.8173918,4.43546966 C13.1408001,4.0039565 13.6483574,3.75 14.1873712,3.75 L33.0245879,3.75 C33.9703613,3.75 34.7370622,4.51723806 34.7370622,5.46367416 L34.7370622,17.9117624 Z M12.6445768,18.9826592 L12.6445768,17.1312823 L16.8280476,11.2618389 L18.7892857,11.2618389 L18.7892857,18.9826592 L12.6445768,18.9826592 Z M32.9375,20.8867416 L41.25,24.613351 L41.25,30.1589007 C41.25,31.8447562 40.8879481,33.4714345 40.1638333,35.0389844 C39.4397186,36.5769578 38.4570062,37.8930885 37.2156667,38.9874157 C35.9299936,40.1113194 34.5039523,40.8655066 32.9375,41.25 C31.3710477,40.8655066 29.9450064,40.1113194 28.6593333,38.9874157 C27.4179938,37.8930885 26.4352814,36.5769578 25.7111667,35.0389844 C24.9870519,33.4714345 24.625,31.8447562 24.625,30.1589007 L24.625,24.613351 L32.9375,20.8867416 Z" id="Combined-Shape" fill="#FFFFFF" fill-rule="nonzero"></path>
            </g>
        </g>
    </g>
</svg>