<?xml version="1.0" encoding="UTF-8"?>
<svg width="20px" height="20px" viewBox="0 0 20 20" version="1.1" xmlns="http://www.w3.org/2000/svg" xmlns:xlink="http://www.w3.org/1999/xlink">
    <!-- Generator: sketchtool 48.2 (47327) - http://www.bohemiancoding.com/sketch -->
    <title>0E0BE58C-2B67-4150-863C-BB67F8B100AB</title>
    <desc>Created with sketchtool.</desc>
    <defs></defs>
    <g id="Pensando-custom-icon-library" stroke="none" stroke-width="1" fill="none" fill-rule="evenodd" transform="translate(-66.000000, -592.000000)">
        <g id="ico-troubleshooting" transform="translate(64.000000, 590.000000)">
            <rect id="Rectangle-12" x="0" y="0" width="24" height="24"></rect>
            <path d="M17.82846,15.9181287 L21.8050682,20.0896686 L19.8947368,22 L15.9181287,17.7981373 L15.9181287,16.7974875 L15.554256,16.4639376 C14.8467223,17.0906103 14.0330708,17.5707152 13.113277,17.9042668 C12.1934832,18.2378184 11.2383271,18.4045917 10.2477799,18.4045917 C8.75185159,18.4045917 7.37218161,18.0407227 6.10872861,17.3129738 C4.84527561,16.5852249 3.84968958,15.6048 3.12194065,14.3716699 C2.37397648,13.0981093 2,11.7133856 2,10.2174572 C2,8.72152887 2.36892274,7.34185889 3.10677929,6.07840589 C3.84463585,4.81495289 4.84527561,3.81936686 6.10872861,3.09161793 C7.37218161,2.36386901 8.75185159,2 10.2477799,2 C11.7437083,2 13.128432,2.37397648 14.4019926,3.12194065 C15.6351228,3.84968958 16.6104938,4.84022188 17.3281352,6.09356725 C18.0457765,7.34691263 18.4045917,8.72152887 18.4045917,10.2174572 C18.4045917,11.2282196 18.2378184,12.1934832 17.9042668,13.113277 C17.5707152,14.0330708 17.0906103,14.8467223 16.4639376,15.554256 L16.7974875,15.9181287 L17.82846,15.9181287 Z M10.2497726,16.6653671 C11.4162501,16.6653671 12.4912232,16.3737521 13.4747238,15.7905133 C14.4582245,15.2072745 15.2358646,14.4239165 15.8076673,13.4404159 C16.37947,12.4569152 16.6653671,11.3819422 16.6653671,10.2154646 C16.6653671,9.04898702 16.37947,7.97401401 15.8076673,6.99051332 C15.2358646,6.00701263 14.4582245,5.22937258 13.4747238,4.65756985 C12.4912232,4.08576712 11.4162501,3.79987005 10.2497726,3.79987005 C9.08329501,3.79987005 8.00832201,4.08576712 7.02482131,4.65756985 C6.04132062,5.22937258 5.25796263,6.00701263 4.67472385,6.99051332 C4.09148506,7.97401401 3.79987005,9.04898702 3.79987005,10.2154646 C3.79987005,11.3819422 4.09148506,12.4569152 4.67472385,13.4404159 C5.25796263,14.4239165 6.04132062,15.2072745 7.02482131,15.7905133 C8.00832201,16.3737521 9.08329501,16.6653671 10.2497726,16.6653671 Z M13.1320002,10.56 L14.0320002,11.24 C14.0720004,11.2800002 14.0953335,11.3266664 14.1020002,11.38 C14.1086669,11.4333336 14.098667,11.4733332 14.0720002,11.5 L13.2520002,12.96 C13.2253334,13.0000002 13.1820005,13.0333332 13.1220002,13.06 C13.0619999,13.0866668 13.018667,13.0933334 12.9920002,13.08 L11.9720002,12.64 C11.8919998,12.706667 11.7786676,12.7799996 11.6320002,12.86 C11.1786646,13.1000012 11.0586658,13.1600006 11.2720002,13.04 L11.1120002,14.16 C11.1120002,14.2666672 11.032001,14.32 10.8720002,14.32 L9.23200023,14.32 C9.07199943,14.32 8.99200023,14.2666672 8.99200023,14.16 L8.85200023,13.04 C8.62533243,12.9466662 8.38533483,12.8133342 8.13200023,12.64 L7.13200023,13.08 C7.07866663,13.0933334 7.02533383,13.0866668 6.97200023,13.06 C6.91866663,13.0333332 6.87866703,13.0000002 6.85200023,12.96 L6.03200023,11.5 C6.00533343,11.4733332 5.99533353,11.4333336 6.00200023,11.38 C6.00866693,11.3266664 6.03200003,11.2800002 6.07200023,11.24 L6.97200023,10.56 L6.93200023,10.14 L6.97200023,9.74 L6.07200023,9.04 C5.99199983,8.9599996 5.97866663,8.8733338 6.03200023,8.78 L6.85200023,7.32 C6.86533363,7.2799998 6.90533323,7.2500001 6.97200023,7.23 C7.03866723,7.2099999 7.09200003,7.2133332 7.13200023,7.24 L8.13200023,7.68 C8.45200183,7.4666656 8.69199943,7.3200004 8.85200023,7.24 L8.99200023,6.16 C8.99200023,6.0533328 9.07199943,6 9.23200023,6 L10.8720002,6 C11.032001,6 11.1120002,6.0533328 11.1120002,6.16 L11.2720002,7.24 C11.3786674,7.2933336 11.4986662,7.3599996 11.6320002,7.44 L11.9720002,7.68 L12.9920002,7.24 C13.0453338,7.2266666 13.0953333,7.2266666 13.1420002,7.24 C13.1886671,7.2533334 13.2253334,7.2799998 13.2520002,7.32 L14.0720002,8.78 C14.1253338,8.8733338 14.1120006,8.9599996 14.0320002,9.04 L13.1320002,9.74 C13.158667,9.8200004 13.1720002,9.9533324 13.1720002,10.14 L13.1320002,10.56 Z M10.0520002,11.4 C10.3986686,11.4 10.6953323,11.2766679 10.9420002,11.03 C11.1886681,10.7833321 11.3120002,10.4866684 11.3120002,10.14 C11.3120002,9.7933316 11.1886681,9.4966679 10.9420002,9.25 C10.6953323,9.0033321 10.3986686,8.88 10.0520002,8.88 C9.70533183,8.88 9.41200143,9.0033321 9.17200023,9.25 C8.93199903,9.4966679 8.81200023,9.7933316 8.81200023,10.14 C8.81200023,10.4866684 8.93199903,10.7833321 9.17200023,11.03 C9.41200143,11.2766679 9.70533183,11.4 10.0520002,11.4 Z" id="Combined-Shape" fill="#000000"></path>
        </g>
    </g>
</svg>