<svg xmlns="http://www.w3.org/2000/svg" width="24" height="20" viewBox="0 0 24 20">
    <g fill="none" fill-rule="evenodd">
        <path d="M0-2h24v24H0z"/>
        <path fill="#FFF" d="M18.106 12.42l-3.802 6.655a1.566 1.566 0 0 1-1.36.788H5.368c-.562 0-1.08-.3-1.36-.788L.206 12.42a1.566 1.566 0 0 1 0-1.554l3.802-6.654a1.566 1.566 0 0 1 1.36-.788h7.576c.562 0 1.08.3 1.36.788l3.802 6.654a1.566 1.566 0 0 1 0 1.554zm-1.993-.776l-3.479 6.087H5.678L2.2 11.644l3.478-6.087h6.956l3.479 6.087zm2.52 5.095h-1.55l1.24-2.133L21.8 8.52l-3.478-6.136H8.957l.74-1.294A1.566 1.566 0 0 1 11.055.3h7.576c.562 0 1.08.301 1.36.789l3.802 6.654a1.566 1.566 0 0 1 0 1.553l-3.802 6.654a1.566 1.566 0 0 1-1.36.789z"/>
    </g>
</svg>
