<?xml version="1.0" encoding="UTF-8"?>
<svg width="250px" height="154px" viewBox="0 0 250 154" version="1.1" xmlns="http://www.w3.org/2000/svg" xmlns:xlink="http://www.w3.org/1999/xlink">
    <!-- Generator: sketchtool 48.2 (47327) - http://www.bohemiancoding.com/sketch -->
    <title>17174AA6-6014-4989-B247-E16EF1F9E80B</title>
    <desc>Created with sketchtool.</desc>
    <defs>
        <linearGradient x1="72.8869452%" y1="87.2508769%" x2="35.5544889%" y2="33.4640505%" id="linearGradient-1">
            <stop stop-color="#000000" stop-opacity="0" offset="0%"></stop>
            <stop stop-color="#000000" stop-opacity="0.2" offset="100%"></stop>
        </linearGradient>
    </defs>
    <g id="Pensando-custom-graphics" stroke="none" stroke-width="1" fill="none" fill-rule="evenodd" transform="translate(-223.000000, -74.000000)">
        <g id="no-information" transform="translate(223.000000, 74.000000)">
            <path d="M180.357143,144.976562 C177.97619,144.976562 176.785714,143.773437 176.785714,141.367188 C176.785714,138.960938 177.97619,137.757812 180.357143,137.757812 L217.857143,137.757812 C222.295145,137.757812 225.892857,134.121875 225.892857,129.636719 C225.892857,125.151563 222.295145,121.515625 217.857143,121.515625 L210.714276,121.515625 C207.142857,121.515625 205.357143,119.710938 205.357143,116.101562 C205.357143,112.492188 207.142857,110.6875 210.714286,110.6875 L241.071429,110.6875 C246.002542,110.6875 250,106.647569 250,101.664062 C250,96.6805556 246.002542,92.640625 241.071429,92.640625 L8.92857143,92.640625 C3.99745759,92.640625 0,96.6805556 0,101.664062 C0,106.647569 3.99745759,110.6875 8.92857143,110.6875 L32.1428673,110.6875 C35.7142857,110.6875 37.5,112.492188 37.5,116.101562 C37.5,119.710938 35.7142857,121.515625 32.1428571,121.515625 L23.2142857,121.515625 C18.7762833,121.515625 15.1785714,125.151563 15.1785714,129.636719 C15.1785714,134.121875 18.7762833,137.757812 23.2142857,137.757812 L83.035721,137.757812 C85.4166667,137.757812 86.6071429,138.960938 86.6071429,141.367188 C86.6071429,143.773437 85.4166667,144.976562 83.0357143,144.976562 L68.75,144.976562 C66.2844431,144.976562 64.2857143,146.996528 64.2857143,149.488281 C64.2857143,151.980035 66.2844431,154 68.75,154 L191.071429,154 C193.536985,154 195.535714,151.980035 195.535714,149.488281 C195.535714,146.996528 193.536985,144.976562 191.071429,144.976562 L180.357143,144.976562 Z" id="Combined-Shape" fill="#F4F0ED"></path>
            <rect id="Rectangle-15" fill="#F7F7F7" x="60.0961538" y="0" width="120.192308" height="86.625" rx="1"></rect>
            <path d="M61.0961538,0 L179.288462,0 C179.840746,-1.01453063e-16 180.288462,0.44771525 180.288462,1 L180.288462,12.03125 L60.0961538,12.03125 L60.0961538,1 C60.0961538,0.44771525 60.5438691,1.01453063e-16 61.0961538,0 Z" id="Rectangle-15" fill="#E7E7E3"></path>
            <path d="M120.192308,0 L179.288462,0 C179.840746,-1.01453063e-16 180.288462,0.44771525 180.288462,1 L180.288462,85.625 C180.288462,86.1772847 179.840746,86.625 179.288462,86.625 L120.192308,86.625 L120.192308,0 Z" id="Rectangle-15" fill="#F0F0F0"></path>
            <path d="M120.192308,0 L179.288462,0 C179.840746,3.82276611e-15 180.288462,0.44771525 180.288462,1 L180.288462,12.03125 L120.192308,12.03125 L120.192308,0 Z" id="Rectangle-15" fill="#D5D5D5"></path>
            <polygon id="Path-5" fill="url(#linearGradient-1)" points="97.3557692 69.8013236 114.182692 86.625 175.480769 86.625 180.288462 81.2109375 180.288462 53.5638358 143.629808 27.671875 147.090618 39.6016445 148.267306 53.5638358 140.316653 69.1915366 125.075707 75.3740012 110.563777 75.3740012"></polygon>
            <g id="Group-8" transform="translate(130.375000, 58.843750) scale(-1, 1) translate(-130.375000, -58.843750) translate(88.875000, 16.843750)" fill-rule="nonzero">
                <rect id="Rectangle-path" fill="#97B8DF" transform="translate(27.043269, 56.546875) rotate(45.000000) translate(-27.043269, -56.546875) " x="24.0384615" y="49.328125" width="6.00961538" height="14.4375"></rect>
                <path d="M25.9519724,53.3709011 C27.3027593,54.9773268 28.5574621,56.3978939 30.1623204,57.75 L34.1346447,53.7737963 L29.9242967,49.3946974 L25.9519724,53.3709011 Z" id="Shape" fill="#86A8D7"></path>
                <path d="M51.6826923,0 C34.4238698,0 20.4326923,14.0051686 20.4326923,31.28125 C20.4326923,48.5573314 34.4238698,62.5625 51.6826923,62.5625 C68.9415148,62.5625 82.9326923,48.5573314 82.9326923,31.28125 C82.9326923,14.0051686 68.9415148,0 51.6826923,0 Z M51.6826923,57.6234927 C37.1489568,57.6234927 25.3669519,45.8297057 25.3669519,31.2814365 C25.3669519,16.7329808 37.1489568,4.93938032 51.6826923,4.93938032 C66.2166141,4.93938032 77.9984328,16.7329808 77.9984328,31.2814365 C77.9986191,45.8295192 66.2166141,57.6234927 51.6826923,57.6234927 Z" id="Shape" fill="#97B8DF"></path>
                <path d="M4.39031398,82.0738222 L0.950089294,78.6631769 C-0.316482106,77.4074095 -0.316849495,75.3709314 0.9499056,74.1147997 L16.2637779,58.6918483 C17.5301656,57.4360809 19.5834992,57.4360809 20.8500706,58.6916662 L24.2902953,62.1023115 C25.5568667,63.3580789 25.5572341,65.394557 24.290479,66.6506887 L8.97660668,82.0736401 C7.71021897,83.3295896 5.65688538,83.3295896 4.39031398,82.0738222 Z" id="Shape" fill="#707487"></path>
                <path d="M4.39578821,77.2793454 L19.4611183,62.531805 C20.7768503,61.2167199 22.6041754,60.3576052 23.9202891,61.6726903 L24.1286993,61.8808072 C24.1286993,61.8808072 22.9360666,60.6888245 20.5508012,58.3048592 C19.2348783,56.9899648 17.1473567,57.7308591 15.8314338,59.0459442 L1.02630028,73.911705 C-0.289622642,75.2269809 -0.289622642,77.3594638 1.02649114,78.6747397 L4.39330714,82.039328 C3.08024699,80.7238613 3.08062869,78.5936676 4.39578821,77.2793454 Z" id="Shape" fill="#5B5D6E"></path>
                <path d="M22.3345213,68.578125 L24.3041439,66.6064626 C25.5525856,65.3567281 25.5524045,63.3305087 24.3039629,62.0807742 L20.9129817,58.6870064 C19.6645401,57.4376343 17.6407791,57.4376343 16.3923374,58.6871876 L14.4230769,60.6586688 L22.3345213,68.578125 Z" id="Shape" fill="#86A8D7"></path>
                <path d="M17.901494,64.1824303 L19.6609497,62.3867016 C20.8661945,60.9648141 22.6146991,60.4467506 23.9020128,61.6592751 C24.1397311,61.890719 24.2581823,62.0059598 24.2573665,62.0049973 L20.8607224,58.5342706 C19.6553028,57.1125894 17.501953,57.1123831 16.2965334,58.5342706 L14.2707825,60.6319485 L17.901494,64.1824303 Z" id="Shape" fill="#598CDE"></path>
            </g>
            <ellipse id="Oval-4" fill="#E57553" cx="68.5096154" cy="6.015625" rx="3.60576923" ry="3.609375"></ellipse>
            <ellipse id="Oval-4-Copy" fill="#FFC430" cx="80.5288462" cy="6.015625" rx="3.60576923" ry="3.609375"></ellipse>
            <ellipse id="Oval-4-Copy-2" fill="#A3D771" cx="92.5480769" cy="6.015625" rx="3.60576923" ry="3.609375"></ellipse>
            <path d="M116.341346,58.6788125 L116.341346,65.3489375 L123.134615,65.3489375 L123.134615,58.6788125 L116.341346,58.6788125 Z M109.375,44.3856875 L115.735577,44.3856875 C115.735577,43.6060586 115.822115,42.8769721 115.995192,42.1984063 C116.16827,41.5198404 116.435094,40.9279088 116.795673,40.4225938 C117.156252,39.9172787 117.617786,39.5130328 118.180288,39.2098438 C118.742791,38.9066547 119.413458,38.7550625 120.192308,38.7550625 C121.34616,38.7550625 122.247593,39.0726843 122.896635,39.7079375 C123.545676,40.3431907 123.870192,41.3249309 123.870192,42.6531875 C123.899039,43.4328164 123.762021,44.0824974 123.459135,44.60225 C123.156248,45.1220026 122.759618,45.5984353 122.269231,46.0315625 C121.778844,46.4646897 121.245195,46.8978103 120.668269,47.3309375 C120.091343,47.7640647 119.543272,48.2765908 119.024038,48.8685313 C118.504805,49.4604717 118.050483,50.1751208 117.661058,51.0125 C117.271633,51.8498792 117.033654,52.8893688 116.947115,54.131 L116.947115,56.0800625 L122.788462,56.0800625 L122.788462,54.4341875 C122.903847,53.5679332 123.185094,52.8460654 123.632212,52.2685625 C124.079329,51.6910596 124.591343,51.1785335 125.168269,50.7309688 C125.745195,50.283404 126.35817,49.835846 127.007212,49.3882813 C127.656253,48.9407165 128.247593,48.3993157 128.78125,47.7640625 C129.314907,47.1288093 129.762017,46.3636295 130.122596,45.4685 C130.483175,44.5733705 130.663462,43.4328194 130.663462,42.0468125 C130.663462,41.2094333 130.483175,40.3070986 130.122596,39.3397812 C129.762017,38.3724639 129.163466,37.4701292 128.326923,36.63275 C127.49038,35.7953708 126.387026,35.0951591 125.016827,34.5320938 C123.646628,33.9690284 121.93751,33.6875 119.889423,33.6875 C118.302877,33.6875 116.867795,33.9545911 115.584135,34.4887813 C114.300474,35.0229714 113.204331,35.7664952 112.295673,36.719375 C111.387015,37.6722548 110.680291,38.7983685 110.175481,40.09775 C109.670671,41.3971315 109.403846,42.8264297 109.375,44.3856875 Z" id="?" fill="#97B8DF" style="mix-blend-mode: multiply;"></path>
        </g>
    </g>
</svg>