<?xml version="1.0" encoding="UTF-8"?>
<svg width="24px" height="25px" viewBox="0 0 24 25" version="1.1" xmlns="http://www.w3.org/2000/svg" xmlns:xlink="http://www.w3.org/1999/xlink">
    <!-- Generator: Sketch 64 (93537) - https://sketch.com -->
    <title>ico-vcenter-blk</title>
    <desc>Created with Sketch.</desc>
    <g id="Page-1" stroke="none" stroke-width="1" fill="none" fill-rule="evenodd">
        <g id="vcenter" transform="translate(0.000000, 0.769843)" fill="#000000" fill-rule="nonzero">
            <path d="M8.45508935,0 L8.4198559,0.000606908105 C7.88189684,0.0191678957 7.45148472,0.461122194 7.45148472,1.00360463 L7.45133359,7.6248421 L1.00360463,7.62490864 C0.449329098,7.62490864 0,8.07423774 0,8.62851327 L0,22.9963954 C0,23.5506709 0.449329098,24 1.00360463,24 L14.9766819,24 L15.0119153,23.9993931 C15.5498744,23.9808321 15.9802865,23.5388778 15.9802865,22.9963954 L15.9802308,16.5554842 L22.9082498,16.5555871 C23.4625253,16.5555871 23.9118544,16.1062581 23.9118544,15.5519825 L23.9118544,1.00360463 C23.9118544,0.449329098 23.4625253,0 22.9082498,0 L8.45508935,0 Z M8.45508935,0.492334347 L22.9082498,0.492334347 C23.1906165,0.492334347 23.4195201,0.721237849 23.4195201,1.00360463 L23.4195201,15.5519825 C23.4195201,15.8343493 23.1906165,16.0632528 22.9082498,16.0632528 L15.4879521,16.0632528 L15.4879521,22.9963954 C15.4879521,23.2787622 15.2590486,23.5076657 14.9766819,23.5076657 L1.00360463,23.5076657 C0.721237849,23.5076657 0.492334347,23.2787622 0.492334347,22.9963954 L0.492334347,8.62851327 C0.492334347,8.34614649 0.721237849,8.11724299 1.00360463,8.11724299 L7.94381906,8.11724299 L7.94381906,1.00360463 C7.94381906,0.721237849 8.17272257,0.492334347 8.45508935,0.492334347 Z M5.17753742,11.8130168 L11.2063745,11.8130168 C11.7586592,11.8130168 12.2063745,12.260732 12.2063745,12.8130168 L12.2063745,18.8418538 C12.2063745,19.3941386 11.7586592,19.8418538 11.2063745,19.8418538 L5.17753742,19.8418538 C4.62525267,19.8418538 4.17753742,19.3941386 4.17753742,18.8418538 L4.17753742,12.8130168 C4.17753742,12.260732 4.62525267,11.8130168 5.17753742,11.8130168 Z M12.7197008,4.6371667 L18.7485378,4.6371667 C19.3008226,4.6371667 19.7485378,5.08488195 19.7485378,5.6371667 L19.7485378,11.6660037 C19.7485378,12.2182885 19.3008226,12.6660037 18.7485378,12.6660037 L12.7197008,12.6660037 C12.167416,12.6660037 11.7197008,12.2182885 11.7197008,11.6660037 L11.7197008,5.6371667 C11.7197008,5.08488195 12.167416,4.6371667 12.7197008,4.6371667 Z" id="Path"></path>
        </g>
    </g>
</svg>