<svg fill="currentcolor" xmlns="http://www.w3.org/2000/svg" width="24" height="20" viewBox="0 0 24 20">
    <g fill="none" fill-rule="evenodd">
        <path d="M0-2h24v24H0z"/>
        <path fill="currentcolor" d="M18.106 12.581l-3.802 6.633a1.567 1.567 0 0 1-1.36.786H5.368c-.562 0-1.08-.3-1.36-.786L.206 12.58a1.556 1.556 0 0 1 0-1.548L4.008 4.4a1.567 1.567 0 0 1 1.36-.787h7.576c.562 0 1.08.3 1.36.787l3.802 6.632c.275.48.275 1.069 0 1.548zm-8.04-1.382H13.6v1.727h-3.533v3.522H8.333v-3.522H4.8V11.2h3.533V7.677h1.734v3.522zm8.566 5.687h-1.55l1.24-2.126L21.8 8.693l-3.478-6.117H8.957l.74-1.29A1.567 1.567 0 0 1 11.055.5h7.576c.562 0 1.08.3 1.36.786l3.802 6.633c.275.48.275 1.068 0 1.548L19.992 16.1a1.567 1.567 0 0 1-1.36.787z"/>
    </g>
</svg>
