<svg fill="currentcolor" xmlns="http://www.w3.org/2000/svg" width="24" height="20" viewBox="0 0 24 20">
    <g fill="none" fill-rule="evenodd">
        <path d="M0-2h24v24H0z"/>
        <path fill="currentcolor" d="M18.106 12.36l-3.802 6.711a1.563 1.563 0 0 1-1.36.796H5.368c-.562 0-1.08-.304-1.36-.796L.206 12.359a1.591 1.591 0 0 1 0-1.567l3.802-6.711a1.563 1.563 0 0 1 1.36-.796h7.576c.562 0 1.08.304 1.36.796l3.802 6.711a1.591 1.591 0 0 1 0 1.567zm-6.623 1.467c0-.445.357-.806.798-.806.441 0 .799.36.799.806v1.596a.802.802 0 0 1-.799.805H5.598a.799.799 0 0 1-.737-.495.81.81 0 0 1 .171-.877l2.792-2.835-2.833-3.348a.811.811 0 0 1-.118-.86.798.798 0 0 1 .725-.469h6.684c.44 0 .798.361.798.806v.887a.802.802 0 0 1-.798.805.802.802 0 0 1-.799-.805v-.082H7.33l2.186 2.584a.81.81 0 0 1-.04 1.09l-1.959 1.989h3.966v-.791zm7.15 2.888h-1.55l1.24-2.151 3.477-6.14-3.478-6.19H8.957L9.697.93a1.563 1.563 0 0 1 1.359-.796h7.576c.562 0 1.08.304 1.36.796l3.802 6.712a1.591 1.591 0 0 1 0 1.567l-3.802 6.711a1.563 1.563 0 0 1-1.36.796z"/>
    </g>
</svg>
