<svg fill="currentcolor" xmlns="http://www.w3.org/2000/svg" width="24" height="20" viewBox="0 0 24 20">
    <g fill="none" fill-rule="evenodd">
        <path d="M0-2h24v24H0z"/>
        <path fill="currentcolor" d="M18.106 12.581l-3.802 6.633a1.567 1.567 0 0 1-1.36.786H5.368c-.562 0-1.08-.3-1.36-.786L.206 12.58a1.556 1.556 0 0 1 0-1.548L4.008 4.4a1.567 1.567 0 0 1 1.36-.787h7.576c.562 0 1.08.3 1.36.787l3.802 6.632c.275.48.275 1.069 0 1.548zm-6.191-2.813c.246 0 .46.087.64.26a.837.837 0 0 1 .272.628v4.524c0 .246-.09.455-.272.628a.896.896 0 0 1-.64.26h-5.43a.896.896 0 0 1-.64-.26.837.837 0 0 1-.272-.628v-4.524c0-.245.09-.455.272-.628a.896.896 0 0 1 .64-.26h4.116V8.86a1.408 1.408 0 0 0-.706-1.207 1.36 1.36 0 0 0-.695-.189 1.36 1.36 0 0 0-.695.19 1.408 1.408 0 0 0-.706 1.206h-.868A2.252 2.252 0 0 1 8.06 6.9a2.228 2.228 0 0 1 1.139-.302c.413 0 .793.101 1.14.303a2.252 2.252 0 0 1 1.13 1.96v.908h.445zM9.2 13.828a.878.878 0 0 1-.64-.271.872.872 0 0 1-.272-.639c0-.245.09-.458.271-.638a.878.878 0 0 1 .641-.271c.246 0 .46.09.64.27.182.18.272.394.272.64 0 .244-.09.457-.271.638a.878.878 0 0 1-.641.27zm9.432 3.058h-1.55l1.24-2.126L21.8 8.693l-3.478-6.117H8.957l.74-1.29A1.567 1.567 0 0 1 11.055.5h7.576c.562 0 1.08.3 1.36.786l3.802 6.633c.275.48.275 1.068 0 1.548L19.992 16.1a1.567 1.567 0 0 1-1.36.787z"/>
    </g>
</svg>
