<svg fill="currentcolor" xmlns="http://www.w3.org/2000/svg" width="200" height="164" viewBox="0 0 200 164">
    <g fill="none" fill-rule="evenodd" opacity=".2">
        <path d="M0-19h200v200H0z"/>
        <path fill="currentcolor" d="M150.882 101.173l-31.685 55.448a13.047 13.047 0 0 1-11.328 6.574H44.732a13.047 13.047 0 0 1-11.328-6.574L1.719 101.173a13.047 13.047 0 0 1 0-12.946l31.685-55.449a13.047 13.047 0 0 1 11.328-6.574h63.137c4.682 0 9.005 2.51 11.328 6.574l31.685 55.449a13.047 13.047 0 0 1 0 12.946zm-16.61-6.473l-28.986 50.724H47.315L18.33 94.7l28.985-50.725h57.97L134.272 94.7zm20.996 42.458h-12.915l10.332-17.771 28.985-50.725-28.985-51.137H74.64l6.163-10.784A13.047 13.047 0 0 1 92.13.167h63.137c4.682 0 9.005 2.509 11.328 6.574l31.685 55.448a13.047 13.047 0 0 1 0 12.946l-31.685 55.449a13.047 13.047 0 0 1-11.328 6.574z"/>
    </g>
</svg>
