<?xml version="1.0" encoding="UTF-8"?>
<svg width="24" height="24" version="1.1" viewBox="0 0 24 24" xmlns="http://www.w3.org/2000/svg" xmlns:cc="http://creativecommons.org/ns#" xmlns:dc="http://purl.org/dc/elements/1.1/" xmlns:rdf="http://www.w3.org/1999/02/22-rdf-syntax-ns#">
 <metadata>
  <rdf:RDF>
   <cc:Work rdf:about="">
    <dc:format>image/svg+xml</dc:format>
    <dc:type rdf:resource="http://purl.org/dc/dcmitype/StillImage"/>
    <dc:title/>
   </cc:Work>
  </rdf:RDF>
 </metadata>
 <path d="M0 0h24v24H0z" fill="none"/>
 <g>
  <path d="m4.2227 3c-1.2333 0-2.2109 0.79888-2.2109 1.7767l-0.011719 12.445c0 0.97782 0.98932 1.7786 2.2227 1.7786h2.2227v-1.7786h-2.2227v-9.7767h15.555v9.7767h-2.2227v1.7786h2.2227c1.2222 0 2.2227-0.80081 2.2227-1.7786v-12.445c0-0.97782-1.0004-1.7767-2.2227-1.7767h-14.443z" stroke-width=".99383"/>
  <path d="m16.29 23.5 1.2098-0.9589-2.9259-2.319-1.2098 0.9589zm-8.1513-8.4397h3.0031v3.8016l-4.642 3.6792 1.2098 0.9589 5.1482-4.0804v-4.3593h3.0031l-3.8612-3.0603z" stroke-width=".76389"/>
  <g stroke-width="0">
   <rect x="4.2" y="1" width="2.2" height="2"/>
   <rect x="17.6" y="1" width="2.2" height="2"/>
   <rect x="8.66" y="1" width="2.2" height="2"/>
   <rect x="13.14" y="1" width="2.2" height="2"/>
  </g>
 </g>
</svg>
