<?xml version="1.0" encoding="UTF-8"?>
<svg width="36px" height="36px" viewBox="0 0 36 36" version="1.1" xmlns="http://www.w3.org/2000/svg" xmlns:xlink="http://www.w3.org/1999/xlink">
    <!-- Generator: Sketch 55.2 (78181) - https://sketchapp.com -->
    <title>icon / ico-host</title>
    <desc>Created with Sketch.</desc>
    <g id="Symbols" stroke="none" stroke-width="1" fill="none" fill-rule="evenodd">
        <g id="icon-/-ico-host" fill="#000" fill-rule="nonzero">
            <path d="M19.6333333,27.0727287 C20.1298667,27.3741183 20.5431,27.8098416 20.8289333,28.3333985 L32.7,28.3333985 C33.602065,28.3333985 34.3333333,29.1044657 34.3333333,30.0556251 C34.3333333,31.0067845 33.602065,31.7778517 32.7,31.7778517 L20.8289333,31.7778517 C20.2453778,32.8434838 19.1670083,33.4999267 18,33.4999267 C16.8329917,33.4999267 15.7546222,32.8434838 15.1710667,31.7778517 L3.3,31.7778517 C2.39793491,31.7778517 1.66666667,31.0067845 1.66666667,30.0556251 C1.66666667,29.1044657 2.39793491,28.3333985 3.3,28.3333985 L15.1710667,28.3333985 C15.4583764,27.8103137 15.870581,27.375675 16.3666667,27.0727287 L16.3666667,24.8889454 L4.93333333,24.8889454 C4.03126824,24.8889454 3.3,24.1178782 3.3,23.1667188 L3.3,16.2778125 C3.3,15.3266532 4.03126824,14.555586 4.93333333,14.555586 L31.0666667,14.555586 C31.9687317,14.555586 32.7,15.3266532 32.7,16.2778125 L32.7,23.1667188 C32.7,24.1178782 31.9687317,24.8889454 31.0666667,24.8889454 L19.6333333,24.8889454 L19.6333333,27.0727287 Z M7.79166667,21.0139356 C8.46821548,21.0139356 9.01666667,20.4356353 9.01666667,19.7222657 C9.01666667,19.008896 8.46821548,18.4305958 7.79166667,18.4305958 C7.11511785,18.4305958 6.56666667,19.008896 6.56666667,19.7222657 C6.56666667,20.4356353 7.11511785,21.0139356 7.79166667,21.0139356 Z M13.9166667,18.8611524 C13.4656341,18.8611524 13.1,19.2466859 13.1,19.7222657 C13.1,20.1978455 13.4656341,20.583379 13.9166667,20.583379 L26.9833333,20.583379 C27.4343659,20.583379 27.8,20.1978455 27.8,19.7222657 C27.8,19.2466859 27.4343659,18.8611524 26.9833333,18.8611524 L13.9166667,18.8611524 Z M4.93333333,2.5 L31.0666667,2.5 C31.9687317,2.5 32.7,3.2710671 32.7,4.22222657 L32.7,11.1111328 C32.7,12.0622923 31.9687317,12.8333594 31.0666667,12.8333594 L4.93333333,12.8333594 C4.03126824,12.8333594 3.3,12.0622923 3.3,11.1111328 L3.3,4.22222657 C3.3,3.2710671 4.03126824,2.5 4.93333333,2.5 Z M7.79166667,8.95834963 C8.46821548,8.95834963 9.01666667,8.3800493 9.01666667,7.6666797 C9.01666667,6.95331011 8.46821548,6.37500978 7.79166667,6.37500978 C7.11511785,6.37500978 6.56666667,6.95331011 6.56666667,7.6666797 C6.56666667,8.3800493 7.11511785,8.95834963 7.79166667,8.95834963 Z M13.9166667,6.80556642 C13.4656341,6.80556642 13.1,7.19109998 13.1,7.6666797 C13.1,8.14225943 13.4656341,8.52779299 13.9166667,8.52779299 L26.9833333,8.52779299 C27.4343659,8.52779299 27.8,8.14225943 27.8,7.6666797 C27.8,7.19109998 27.4343659,6.80556642 26.9833333,6.80556642 L13.9166667,6.80556642 Z" id="Shape"></path>
        </g>
    </g>
</svg>