<svg xmlns="http://www.w3.org/2000/svg" width="20" height="20" viewBox="0 0 20 20">
    <g fill="none" fill-rule="evenodd">
        <path d="M0 0h20v20H0z"/>
        <path fill="#FFF" fill-rule="nonzero" d="M18.098 9.749c1.368.375 2.18 1.817 1.814 3.22-.367 1.402-1.774 2.236-3.143 1.86-1.242-.341-2.022-1.56-1.883-2.83l-1.575-.496c-.687 1.44-2.291 2.23-3.859 1.8-.33-.091-.635-.23-.91-.407l-1.33 1.224c.285.562.377 1.23.204 1.89-.367 1.402-1.774 2.236-3.143 1.86-1.369-.376-2.18-1.818-1.814-3.22.367-1.403 1.774-2.236 3.143-1.86.276.076.529.197.755.35l1.248-1.148a3.48 3.48 0 0 1-.51-2.876 3.392 3.392 0 0 1 1.777-2.194l-.498-1.665a2.504 2.504 0 0 1-.78-.087c-1.368-.375-2.18-1.818-1.813-3.22C6.148.547 7.555-.285 8.924.09c1.369.376 2.18 1.818 1.814 3.22A2.614 2.614 0 0 1 9.6 4.87l.515 1.72c.35-.02.708.011 1.065.109 1.567.43 2.571 1.936 2.463 3.534l1.704.531c.603-.867 1.688-1.306 2.75-1.014zm-16.196.937C.533 10.31-.278 8.868.088 7.466c.367-1.403 1.774-2.236 3.143-1.86 1.369.375 2.181 1.817 1.814 3.22-.367 1.403-1.774 2.235-3.143 1.86zM15.03 7.21c-1.369-.375-2.18-1.817-1.814-3.22.367-1.403 1.774-2.235 3.143-1.86 1.369.376 2.181 1.818 1.814 3.22-.367 1.403-1.774 2.236-3.143 1.86zm-3.322 12.7c-1.369-.376-2.181-1.818-1.814-3.22.367-1.403 1.774-2.236 3.143-1.86 1.369.375 2.18 1.817 1.814 3.22-.367 1.403-1.774 2.236-3.143 1.86zm-1.923-7.878c1.094.3 2.221-.367 2.515-1.488.293-1.12-.358-2.276-1.452-2.576-1.093-.3-2.22.367-2.514 1.488-.293 1.12.358 2.276 1.451 2.576z"/>
    </g>
</svg>
