<svg xmlns="http://www.w3.org/2000/svg" width="20" height="18" viewBox="0 0 20 18">
    <g fill="none" fill-rule="evenodd">
        <path d="M0-1h20v20H0z"/>
        <path fill="#FFF" fill-rule="nonzero" d="M2.839 6.582l1.328-2.27a2.41 2.41 0 0 1-.834-1.82c0-1.347 1.12-2.44 2.5-2.44 1.089 0 2.015.68 2.358 1.627h3.618A2.498 2.498 0 0 1 14.167.053c1.38 0 2.5 1.092 2.5 2.44a2.41 2.41 0 0 1-.834 1.82l1.328 2.269c.111-.015.224-.022.339-.022C18.88 6.56 20 7.652 20 9c0 1.348-1.12 2.44-2.5 2.44-.115 0-.228-.007-.339-.022l-1.328 2.27a2.41 2.41 0 0 1 .834 1.82c0 1.347-1.12 2.44-2.5 2.44a2.498 2.498 0 0 1-2.358-1.627H8.19a2.498 2.498 0 0 1-2.358 1.626c-1.38 0-2.5-1.092-2.5-2.44 0-.723.323-1.372.834-1.82L2.84 11.419c-.111.015-.224.022-.339.022C1.12 11.44 0 10.348 0 9c0-1.348 1.12-2.44 2.5-2.44.115 0 .228.007.339.022zm1.165.469C4.609 7.496 5 8.203 5 9c0 .797-.391 1.504-.996 1.95l1.275 2.177c.178-.04.364-.06.554-.06 1.24 0 2.267.88 2.466 2.033H11.7c.199-1.154 1.227-2.033 2.466-2.033.19 0 .376.02.554.06l1.275-2.178A2.417 2.417 0 0 1 15 9c0-.797.391-1.504.996-1.95l-1.275-2.177c-.178.04-.364.06-.554.06-1.24 0-2.267-.88-2.466-2.033H8.3C8.1 4.054 7.072 4.933 5.833 4.933c-.19 0-.376-.02-.554-.06L4.004 7.05z"/>
    </g>
</svg>
