<?xml version="1.0" encoding="UTF-8"?>
<svg width="24px" height="24px" viewBox="0 0 24 24" version="1.1" xmlns="http://www.w3.org/2000/svg" xmlns:xlink="http://www.w3.org/1999/xlink">
    <!-- Generator: sketchtool 48.2 (47327) - http://www.bohemiancoding.com/sketch -->
    <title>15585B3B-8BED-486D-82DD-88CB20BBC79D</title>
    <desc>Created with sketchtool.</desc>
    <defs></defs>
    <g id="Pensando-custom-icon-library" stroke="none" stroke-width="1" fill="none" fill-rule="evenodd" transform="translate(-98.000000, -87.000000)">
        <g id="ico-node" transform="translate(98.000000, 87.000000)">
            <rect id="Rectangle-7" x="0" y="0" width="24" height="24"></rect>
            <path d="M21.7172021,11.7047847 C23.3595481,12.14612 24.334292,13.8404759 23.8944218,15.4886771 C23.4542148,17.136293 21.7651985,18.1153313 20.1228524,17.673996 C18.6323199,17.2734564 17.696004,15.8412758 17.8637145,14.3480378 L15.973046,13.765754 C15.1492124,15.4577286 13.2234117,16.3855075 11.3427645,15.8801353 C10.9466693,15.7736956 10.5809931,15.6106125 10.2508431,15.403144 L8.65527728,16.8407316 C8.99693718,17.501553 9.10636404,18.2860097 8.89902645,19.0620373 C8.4588195,20.7096532 6.76980316,21.6886915 5.12745711,21.2473562 C3.48511106,20.8060209 2.51049053,19.1112035 2.95069747,17.4635876 C3.39102776,15.81551 5.07992076,14.8369333 6.72226681,15.2782686 C7.0539563,15.367401 7.35679687,15.5091456 7.62789152,15.690354 L9.12608262,14.3404016 C8.45311561,13.3970872 8.19035977,12.1696572 8.5131453,10.9615286 C8.82742025,9.78525363 9.63250285,8.87396851 10.6466292,8.38351918 L10.0490237,6.42733226 C9.74112681,6.4410777 9.42718582,6.40916256 9.11389796,6.32497507 C7.47155191,5.88363977 6.49693138,4.1888223 6.93713832,2.54120638 C7.37746861,0.893128804 9.0663616,-0.0854479118 10.7087077,0.35588739 C12.3515137,0.797346315 13.3257976,2.49157851 12.8854673,4.13965608 C12.6730727,4.93461115 12.168505,5.57188617 11.5199669,5.97107228 L12.1374878,7.99297544 C12.5569544,7.96764883 12.987259,8.00510433 13.415557,8.12019766 C15.2962043,8.62556985 16.5014421,10.3947291 16.3713501,12.2731277 L18.4161323,12.8968253 C19.1405473,11.8777693 20.4415086,11.3619772 21.7172021,11.7047847 Z M2.28256557,12.8056913 C0.639979879,12.3642916 -0.334588607,10.6702406 0.105805928,9.02192257 C0.546200464,7.37360452 2.23478957,6.39520389 3.87737526,6.83660359 C5.51996095,7.27800328 6.49452943,8.97205423 6.0541349,10.6203723 C5.61374036,12.2686903 3.92515126,13.247091 2.28256557,12.8056913 Z M18.0350113,8.72227876 C16.3924256,8.28087906 15.4178571,6.58682811 15.8582517,4.93851007 C16.2986462,3.29019202 17.9872353,2.31179138 19.629821,2.75319108 C21.2724067,3.19459078 22.2469752,4.88864172 21.8065806,6.53695977 C21.3661861,8.18527782 19.677597,9.16367846 18.0350113,8.72227876 Z M14.0482337,23.6440747 C12.4056481,23.202675 11.4310796,21.508624 11.8714741,19.860306 C12.3118686,18.2119879 14.0004578,17.2335873 15.6430434,17.674987 C17.2856291,18.1163867 18.2601976,19.8104376 17.8198031,21.4587557 C17.3794085,23.1070737 15.6908194,24.0854744 14.0482337,23.6440747 Z M11.7410685,14.3875089 C13.0531052,14.7400826 14.4065531,13.9558692 14.758324,12.6392537 C15.1100949,11.3226382 14.328953,9.9648125 13.0169163,9.61223876 C11.7048796,9.25966501 10.3514317,10.0438785 9.99966082,11.3604939 C9.64788996,12.6771094 10.4290319,14.0349352 11.7410685,14.3875089 Z" id="Combined-Shape" fill="#FFF" fill-rule="nonzero"></path>
        </g>
    </g>
</svg>