<?xml version="1.0" encoding="UTF-8"?>
<svg width="150px" height="150px" viewBox="0 0 150 150" version="1.1" xmlns="http://www.w3.org/2000/svg" xmlns:xlink="http://www.w3.org/1999/xlink">
    <!-- Generator: sketchtool 51.2 (57519) - http://www.bohemiancoding.com/sketch -->
    <title>9D2642BC-A697-463B-A336-F0FF29A98B93</title>
    <desc>Created with sketchtool.</desc>
    <defs></defs>
    <g id="use" stroke="none" stroke-width="1" fill="none" fill-rule="evenodd">
        <g id="node" transform="translate(-261.000000, -442.000000)">
            <g id="graphs" transform="translate(220.000000, 167.000000)">
                <g id="CPU-chart" transform="translate(16.000000, 230.000000)">
                    <g id="baseline-memory-24px" transform="translate(0.000000, 20.000000)">
                        <polygon id="Shape" points="0 0 200 0 200 200 0 200"></polygon>
                        <path d="M125,75 L75,75 L75,125 L125,125 L125,75 Z M108.333333,108.333333 L91.6666667,108.333333 L91.6666667,91.6666667 L108.333333,91.6666667 L108.333333,108.333333 Z M175,91.6666667 L175,75 L158.333333,75 L158.333333,58.3333333 C158.333333,49.1666667 150.833333,41.6666667 141.666667,41.6666667 L125,41.6666667 L125,25 L108.333333,25 L108.333333,41.6666667 L91.6666667,41.6666667 L91.6666667,25 L75,25 L75,41.6666667 L58.3333333,41.6666667 C49.1666667,41.6666667 41.6666667,49.1666667 41.6666667,58.3333333 L41.6666667,75 L25,75 L25,91.6666667 L41.6666667,91.6666667 L41.6666667,108.333333 L25,108.333333 L25,125 L41.6666667,125 L41.6666667,141.666667 C41.6666667,150.833333 49.1666667,158.333333 58.3333333,158.333333 L75,158.333333 L75,175 L91.6666667,175 L91.6666667,158.333333 L108.333333,158.333333 L108.333333,175 L125,175 L125,158.333333 L141.666667,158.333333 C150.833333,158.333333 158.333333,150.833333 158.333333,141.666667 L158.333333,125 L175,125 L175,108.333333 L158.333333,108.333333 L158.333333,91.6666667 L175,91.6666667 Z M141.666667,141.666667 L58.3333333,141.666667 L58.3333333,58.3333333 L141.666667,58.3333333 L141.666667,141.666667 Z" fill-opacity="1" fill="currentcolor" fill-rule="nonzero"></path>
                    </g>
                </g>
            </g>
        </g>
    </g>
</svg>