<?xml version="1.0" encoding="UTF-8"?>
<svg width="20px" height="20px" viewBox="0 0 20 20" version="1.1" xmlns="http://www.w3.org/2000/svg" xmlns:xlink="http://www.w3.org/1999/xlink">
    <!-- Generator: Sketch 57.1 (83088) - https://sketch.com -->
    <title>icon / ico-NAPLES-w</title>
    <desc>Created with Sketch.</desc>
    <g id="Symbols" stroke="none" stroke-width="1" fill="none" fill-rule="evenodd">
        <g id="icon-/-page-/-DSC-6-Copy" fill="#FFFFFF" fill-rule="nonzero">
            <path d="M1.81818182,2.19613295 C2.05950993,2.1954471 2.29116356,2.28657886 2.46180908,2.44934158 C2.6324546,2.6121043 2.72799999,2.83305691 2.72727273,3.06323711 L2.72727273,3.93033344 L19.0909091,3.93033344 C19.5929861,3.93033344 20,4.3185457 20,4.79742585 L20,14.3354895 C20,14.8143736 19.5929861,15.2025819 19.0909091,15.2025819 L12.7272727,15.2025819 L12.7272727,16.0696822 C12.7272727,16.5485662 12.3202589,16.9367785 11.8181818,16.9367785 L5.45454545,16.9367785 C4.95246841,16.9367785 4.54545455,16.5485662 4.54545455,16.0696822 L4.54545455,15.2025819 L2.72727273,15.2025819 L2.72727273,16.9367785 C2.72727273,17.4156626 2.32025886,17.8038709 1.81818182,17.8038709 C1.31610477,17.8038709 0.909090909,17.4156626 0.909090909,16.9367785 L0.909090909,3.93033344 C0.407013864,3.93033344 -5.32907052e-15,3.54212119 -5.32907052e-15,3.06323711 C-5.32907052e-15,2.58435302 0.407013864,2.19613295 0.909090909,2.19613295 L1.81818182,2.19613295 Z M6.36363636,14.4980895 L5.45454545,14.4980895 L5.45454545,16.1509821 L6.36363636,16.1509821 L6.36363636,14.4980895 Z M8.18181818,14.4980895 L7.27272727,14.4980895 L7.27272727,16.1509821 L8.18181818,16.1509821 L8.18181818,14.4980895 Z M10,14.4980895 L9.09090909,14.4980895 L9.09090909,16.1509821 L10,16.1509821 L10,14.4980895 Z M11.8181818,14.4980895 L10.9090909,14.4980895 L10.9090909,16.1509821 L11.8181818,16.1509821 L11.8181818,14.4980895 Z M18.1818182,5.66452611 L2.72727273,5.66452611 L2.72727273,13.4683931 L18.1818182,13.4683931 L18.1818182,5.66452611 Z M9.05619176,6.47789867 L9.05548915,7.26077967 L9.63899645,7.26077967 L9.63900473,6.47789867 L10.4218857,6.47789867 L10.4218775,7.25973583 L10.9437981,7.25973583 L10.9438082,6.47789867 L11.7266892,6.47789867 L11.727757,7.32434331 L11.7466386,7.33204893 C11.7602141,7.33776788 11.7736224,7.34380554 11.7868541,7.35015251 L11.727757,7.32434331 C11.7704574,7.34121212 11.8115819,7.36120624 11.8508485,7.38404368 C11.8667434,7.39328935 11.8822903,7.402972 11.8975159,7.41309938 C11.9151708,7.42484114 11.9324337,7.43721163 11.9492335,7.45015378 C11.9644584,7.46188326 11.9792864,7.47406784 11.9937134,7.48669926 C12.0089576,7.50004748 12.0237231,7.51386379 12.0380172,7.52815156 C12.0530964,7.54325966 12.0669149,7.55805105 12.0802352,7.57328899 C12.0927919,7.58765079 12.1049545,7.6024723 12.1166494,7.61767234 C12.1283945,7.63294656 12.1395213,7.64838613 12.1501677,7.66417645 C12.162589,7.6825947 12.1744097,7.70158286 12.1855365,7.72101918 C12.1938065,7.73545871 12.2017719,7.75030184 12.209332,7.76538333 C12.2189382,7.78453884 12.2279465,7.80421382 12.2362622,7.82424882 C12.2384819,7.82960229 12.240522,7.83465075 12.2425181,7.83972137 L13.088561,7.83977039 L13.088561,8.62265139 L12.30568,8.62194877 L12.30568,9.20545608 L13.088561,9.20546436 L13.088561,9.98834536 L12.30568,9.98833708 L12.30568,10.5102578 L13.088561,10.5102679 L13.088561,11.2931489 L12.2421163,11.2942167 L12.2374771,11.3057288 C12.2292731,11.3256923 12.2203822,11.3453011 12.2108341,11.3645257 L12.2421163,11.2942167 C12.2254023,11.3365253 12.20562,11.3772868 12.1830438,11.4162269 C12.1702056,11.4383893 12.1562728,11.4602336 12.1414641,11.4814206 C12.1349057,11.4908034 12.128188,11.5000406 12.1213038,11.5091448 C12.1052061,11.5304311 12.0882313,11.5509529 12.0704068,11.5706925 C12.060104,11.5821104 12.0492892,11.5934948 12.03819,11.604595 C12.0270352,11.6157488 12.0156507,11.6265636 12.0039938,11.6370822 C11.9844932,11.6546909 11.9639715,11.6716657 11.9427253,11.6877331 C11.933581,11.6946477 11.9243438,11.7013653 11.9149781,11.7079117 C11.893774,11.7227324 11.8719297,11.7366652 11.8494805,11.7496696 C11.8327934,11.7593443 11.8154734,11.7686544 11.7978301,11.7774108 C11.7788415,11.7868419 11.7592327,11.7957327 11.7392692,11.8039368 C11.734978,11.8056964 11.7313732,11.8071474 11.727757,11.8085759 L11.7266892,12.6550206 L10.9438082,12.6550206 L10.9437981,11.8714269 L10.4218775,11.8714269 L10.4218857,12.6550206 L9.63900473,12.6550206 L9.63899645,11.8714269 L9.05548915,11.8714269 L9.05619176,12.6550206 L8.27331076,12.6550206 L8.27326174,11.8089777 L8.25778919,11.8027219 C8.23775419,11.7944062 8.21807922,11.7853978 8.19879414,11.7757267 L8.27326174,11.8089777 C8.23209936,11.7927739 8.1923976,11.7736672 8.15440861,11.7519097 C8.13512324,11.7408693 8.11613507,11.7290487 8.09762881,11.716568 C8.08192651,11.7059809 8.06648693,11.6948541 8.05141907,11.6832677 C8.03601267,11.6714141 8.02119116,11.6592515 8.00676971,11.6466427 C7.99159143,11.6333745 7.97680004,11.619556 7.96248059,11.6052649 C7.94740416,11.5901827 7.93358785,11.5754172 7.92026833,11.5602058 C7.90760821,11.5457461 7.89542364,11.530918 7.8837075,11.5157104 C7.870752,11.4988933 7.85838152,11.4816304 7.84661181,11.4639336 C7.83651237,11.4487499 7.82682972,11.433203 7.81761034,11.4173533 C7.80538367,11.3963308 7.79399477,11.3748233 7.78346034,11.3528285 C7.77734591,11.340082 7.77130826,11.3266737 7.7655893,11.3130983 C7.76280553,11.3064788 7.76031222,11.3003641 7.75788368,11.2942167 L6.91143904,11.2931489 L6.91143904,10.5102679 L7.69503277,10.5102578 L7.69503277,9.98833708 L6.91143904,9.98834536 L6.91143904,9.20546436 L7.69503277,9.20545608 L7.69503277,8.62194877 L6.91143904,8.62265139 L6.91143904,7.83977039 L7.75748192,7.83972137 L7.7626552,7.82686857 C7.77018096,7.80857559 7.77828345,7.79058072 7.78694002,7.77290661 L7.75748192,7.83972137 C7.77460292,7.79622904 7.79496475,7.75436737 7.81826998,7.71443379 C7.8277628,7.69815716 7.83788816,7.6819864 7.84849496,7.66616556 C7.85875081,7.65086553 7.86950115,7.6358346 7.88068611,7.62115266 C7.89576461,7.6013635 7.91157834,7.582269 7.92813001,7.56385105 C7.93876488,7.55201028 7.94988788,7.54026531 7.96131283,7.52882189 C7.97380568,7.51634751 7.98555065,7.50522451 7.99758421,7.49441644 C8.01580938,7.47803796 8.03490387,7.46222424 8.05462837,7.447195 C8.06937497,7.43596078 8.0844059,7.42521043 8.09976662,7.4149139 C8.11552678,7.40434779 8.13169754,7.39422243 8.14819724,7.38459946 C8.16695701,7.37365122 8.18637555,7.36323795 8.20619782,7.35352173 C8.22412109,7.34474308 8.24211596,7.33664059 8.26040895,7.32911482 C8.26458553,7.32739576 8.2689155,7.32565247 8.27326174,7.32394155 L8.27331076,6.47789867 L9.05619176,6.47789867 Z M11.0008783,8.56558134 L8.99912171,8.56558134 L8.99912171,10.5673379 L11.0008783,10.5673379 L11.0008783,8.56558134 Z" id="Shape"></path>
        </g>
    </g>
</svg>