<svg xmlns="http://www.w3.org/2000/svg" width="28" height="24" viewBox="0 0 28 24">
    <g fill="none" fill-rule="evenodd">
        <path d="M-1-3h30v30H-1z"/>
        <path fill="#D1CEC7" d="M6.53 19.391H4.04v2.464c0 .68-.558 1.232-1.246 1.232a1.239 1.239 0 0 1-1.245-1.232V3.377A1.239 1.239 0 0 1 .304 2.145c0-.68.558-1.232 1.245-1.232h1.245c.344 0 .656.138.88.36.226.224.366.532.366.872v1.232h22.41c.688 0 1.246.551 1.246 1.232v13.55c0 .68-.558 1.232-1.245 1.232h-8.716v1.232c0 .68-.557 1.232-1.245 1.232H7.775a1.239 1.239 0 0 1-1.245-1.232v-1.232zM4.04 5.841v11.087h21.166V5.84H4.04zm3.735 12.318v2.464H9.02V18.16H7.775zm2.49 0v2.464h1.245V18.16h-1.245zm2.49 0v2.464H14V18.16h-1.245zm2.49 0v2.464h1.245V18.16h-1.245zm4.843-4.077c0 .312-.043.58-.13.807-.088.226-.204.41-.349.554-.145.144-.313.25-.504.32s-.39.105-.598.105c-.357 0-.67-.051-.94-.154a1.74 1.74 0 0 1-.703-.499l-4.62-5.285c-.066-.073-.132-.11-.199-.11a.205.205 0 0 0-.15.061.232.232 0 0 0-.061.173v5.642H9.617V9.13c0-.353.048-.653.144-.9a1.54 1.54 0 0 1 .404-.603c.175-.156.382-.27.623-.339.24-.07.502-.105.784-.105.399 0 .735.062 1.009.185.274.123.543.337.809.64l4.109 4.867a.245.245 0 0 0 .1.08.32.32 0 0 0 .111.018c.116 0 .175-.074.175-.222V7.368h2.203v6.714z"/>
    </g>
</svg>
