<svg xmlns="http://www.w3.org/2000/svg" width="20" height="20" viewBox="0 0 20 20">
    <g fill="none" fill-rule="evenodd">
        <path d="M0 0h20v20H0z"/>
        <path fill="#000" fill-rule="nonzero" d="M1.818 2.196a.93.93 0 0 1 .644.253c.17.163.266.384.265.614v.867h16.364c.502 0 .909.389.909.867v9.538c0 .48-.407.868-.91.868h-6.363v.867c0 .479-.407.867-.909.867H5.455c-.503 0-.91-.388-.91-.867v-.867H2.727v1.734c0 .479-.407.867-.909.867s-.909-.388-.909-.867V3.93C.407 3.93 0 3.542 0 3.063s.407-.867.91-.867h.908zm4.546 12.302h-.91v1.653h.91v-1.653zm1.818 0h-.91v1.653h.91v-1.653zm1.818 0h-.91v1.653H10v-1.653zm1.818 0h-.909v1.653h.91v-1.653zm6.364-8.833H2.727v7.803h15.455V5.665zm-9.126.813v.783h.583v-.783h.783v.782h.522v-.782h.783v.846l.02.008a.908.908 0 0 1 .04.018l-.06-.026a.91.91 0 0 1 .516.516h.846v.783l-.783-.001v.583h.783v.783h-.783v.522h.783v.783l-.847.001-.005.012a.909.909 0 0 1-.026.059l.031-.07a.91.91 0 0 1-.514.514l-.001.846h-.783v-.784h-.522v.784h-.783v-.784h-.584l.001.784h-.783v-.846l-.015-.006a.909.909 0 0 1-.06-.027l.075.033a.91.91 0 0 1-.515-.515H6.91v-.784h.784v-.522h-.784v-.783h.784v-.583h-.784V7.84h.846l.006-.013a.908.908 0 0 1 .024-.054l-.03.067a.91.91 0 0 1 .516-.516v-.846h.783zm1.945 2.088H8.999v2.001h2.002V8.566z"/>
    </g>
</svg>
