<svg xmlns="http://www.w3.org/2000/svg" width="181" height="149" viewBox="0 0 181 149">
    <g fill="none" fill-rule="evenodd" opacity=".2">
        <path d="M-8-24h196.721v196.721H-8z"/>
        <path fill="#FFC430" d="M41.18 123.541H24.787v16.393a8.197 8.197 0 1 1-16.394 0V16.984a8.197 8.197 0 0 1 0-16.394h8.197c2.264 0 4.313.918 5.796 2.4a8.171 8.171 0 0 1 2.4 5.797v8.197h147.542a8.197 8.197 0 0 1 8.197 8.196v90.164a8.197 8.197 0 0 1-8.197 8.197H114.95v8.197a8.197 8.197 0 0 1-8.197 8.196H49.377a8.197 8.197 0 0 1-8.197-8.196v-8.197zM24.787 33.377v73.77H164.13v-73.77H24.787zm24.59 81.967v16.394h8.197v-16.394h-8.197zm16.393 0v16.394h8.197v-16.394H65.77zm16.394 0v16.394h8.197v-16.394h-8.197zm16.393 0v16.394h8.197v-16.394h-8.197zm31.886-27.13c0 2.076-.287 3.865-.861 5.368-.574 1.503-1.339 2.732-2.295 3.688a9.11 9.11 0 0 1-3.32 2.132 11.26 11.26 0 0 1-3.934.696c-2.35 0-4.413-.341-6.189-1.024-1.776-.683-3.32-1.79-4.63-3.32L78.803 60.59c-.438-.492-.875-.738-1.312-.738-.383 0-.71.137-.984.41-.273.274-.41.656-.41 1.148v37.54h-14.59V55.263c0-2.35.314-4.344.943-5.983.628-1.64 1.516-2.978 2.664-4.017 1.147-1.038 2.513-1.79 4.098-2.254 1.585-.464 3.306-.697 5.164-.697 2.623 0 4.836.41 6.64 1.23 1.803.82 3.579 2.24 5.327 4.262l27.05 32.377c.218.274.437.451.655.533.219.082.465.123.738.123.765 0 1.147-.492 1.147-1.475V43.54h14.509v44.672z"/>
    </g>
</svg>
