<svg xmlns="http://www.w3.org/2000/svg" width="30" height="25" viewBox="0 0 30 25">
    <g fill="none" fill-rule="evenodd">
        <path d="M0-3h30v30H0z"/>
        <path fill="#000000" d="M22.632 15.227l-4.752 8.29a1.958 1.958 0 0 1-1.7.983H6.71c-.703 0-1.351-.375-1.7-.983l-4.752-8.29a1.945 1.945 0 0 1 0-1.936l4.753-8.29a1.958 1.958 0 0 1 1.699-.983h9.47c.703 0 1.351.375 1.7.983l4.752 8.29c.344.6.344 1.336 0 1.936zm-7.739-3.516c.308 0 .575.108.801.324.226.217.34.478.34.785v5.655c0 .307-.114.569-.34.785a1.12 1.12 0 0 1-.8.325H8.106a1.12 1.12 0 0 1-.801-.325 1.046 1.046 0 0 1-.34-.785V12.82c0-.307.114-.568.34-.785a1.12 1.12 0 0 1 .8-.324h5.145v-1.137c0-.307-.08-.595-.238-.866a1.76 1.76 0 0 0-.644-.642 1.7 1.7 0 0 0-.869-.237 1.7 1.7 0 0 0-.869.237 1.76 1.76 0 0 0-.644.642c-.159.27-.238.56-.238.866H8.663a2.815 2.815 0 0 1 1.412-2.449c.434-.252.91-.379 1.425-.379.516 0 .99.127 1.425.38a2.815 2.815 0 0 1 1.412 2.448v1.137h.556zM11.5 16.784c-.308 0-.575-.113-.8-.338a1.09 1.09 0 0 1-.34-.798c0-.307.113-.573.34-.799.225-.225.492-.338.8-.338.308 0 .575.113.8.338.227.226.34.492.34.799 0 .306-.113.572-.34.798a1.097 1.097 0 0 1-.8.338zm11.79 3.823h-1.937l1.55-2.657 4.348-7.584-4.348-7.646H11.196l.924-1.612a1.958 1.958 0 0 1 1.7-.983h9.47c.703 0 1.351.375 1.7.983l4.752 8.29c.344.6.344 1.336 0 1.936l-4.753 8.29a1.958 1.958 0 0 1-1.699.983z"/>
    </g>
</svg>
