<svg xmlns="http://www.w3.org/2000/svg" width="17" height="22" viewBox="0 0 17 22">
    <g fill="none" fill-rule="evenodd">
        <path d="M-3.724 0h24.56v22h-24.56z"/>
        <path fill="#676763" fill-rule="nonzero" d="M9.737 15.162L8.557 22l-1.181-6.838H.88c0-1.919 1.324-3.56 3.198-4.233V3.533C2.95 3.095 2.161 2.089 2.161.917h12.791c0 1.172-.79 2.178-1.919 2.616v7.396c1.875.672 3.198 2.314 3.198 4.233H9.737zm4.611-1.375c-.379-.709-1.045-1.28-1.885-1.582l-.965-.346V2.63l.872-.337H4.743l.871.337v9.23l-.964.346c-.84.302-1.507.873-1.886 1.582h11.584z"/>
    </g>
</svg>
