<svg xmlns="http://www.w3.org/2000/svg" width="22" height="18" viewBox="0 0 22 18">
    <g fill="none" fill-rule="evenodd">
        <path d="M-1-3h24v24H-1z"/>
        <path fill="#000" d="M5 15H3v2a1 1 0 0 1-2 0V2a1 1 0 1 1 0-2h1a.997.997 0 0 1 1 1v1h18a1 1 0 0 1 1 1v11a1 1 0 0 1-1 1h-7v1a1 1 0 0 1-1 1H6a1 1 0 0 1-1-1v-1zM3 4v9h17V4H3zm3 10v2h1v-2H6zm2 0v2h1v-2H8zm2 0v2h1v-2h-1zm2 0v2h1v-2h-1zm3.89-3.31c0 .253-.035.472-.105.655-.07.183-.163.333-.28.45a1.111 1.111 0 0 1-.405.26 1.374 1.374 0 0 1-.48.085c-.287 0-.538-.042-.755-.125a1.398 1.398 0 0 1-.565-.405L9.59 7.32c-.053-.06-.107-.09-.16-.09a.164.164 0 0 0-.12.05.19.19 0 0 0-.05.14V12H7.48V6.67c0-.287.038-.53.115-.73.077-.2.185-.363.325-.49s.307-.218.5-.275c.193-.057.403-.085.63-.085.32 0 .59.05.81.15.22.1.437.273.65.52l3.3 3.95a.197.197 0 0 0 .08.065c.027.01.057.015.09.015.093 0 .14-.06.14-.18V5.24h1.77v5.45z"/>
    </g>
</svg>
