<svg xmlns="http://www.w3.org/2000/svg" width="194" height="185" viewBox="0 0 194 185">
    <g fill="none" opacity="0.3" fill-rule="evenodd">
        <path fill="#636363" d="M114 80.5L192.5 99l1 17-80-19zM2 98.25L80 81v16L2 115.5z"/>
        <path fill="#CCC" d="M103 97V81a6 6 0 0 0-12 0v16h-8V72l14-5.5 14 5.5v25h-8z"/>
        <path fill="#CCC" d="M83 65l14-5 14 5v5l-14-5-14 5z"/>
        <g fill="#CCC">
            <path d="M0 91l81-19v5L0 96zM0 118l81-19v4L0 122zM3.009 115.294L0 116V98l81-19v18l-3 .704V88a5 5 0 0 0-10 0v12.05l-3 .703V91a5 5 0 0 0-10 0v12l.001.099-3.001.703V94a5 5 0 0 0-10 0v12c0 .05 0 .099.002.148l-3.002.704V97a5 5 0 0 0-10 0v12c0 .066.001.131.004.197L26 109.9V100a5 5 0 0 0-10 0v12c0 .082.002.164.006.246L13 112.95V103a5 5 0 0 0-10 0v12c0 .099.003.197.009.294z"/>
        </g>
        <g fill="#CCC">
            <path d="M194 91l-81-19v5l81 19zM194 118l-81-19v4l81 19zM190.991 115.294L194 116V98l-81-19v18l3 .704V88a5 5 0 0 1 10 0v12.05l3 .703V91a5 5 0 0 1 10 0v12l-.001.099 3.001.703V94a5 5 0 0 1 10 0v12c0 .05 0 .099-.002.148l3.002.704V97a5 5 0 0 1 10 0v12c0 .066-.001.131-.004.197l3.004.704V100a5 5 0 0 1 10 0v12c0 .082-.002.164-.006.246l3.006.705V103a5 5 0 0 1 10 0v12c0 .099-.003.197-.009.294z"/>
        </g>
        <path fill="#CCC" d="M147.25 136.076c-11.099-15.193-29.025-25.06-49.25-25.06s-38.151 9.867-49.25 25.06H0v-12.029L83 104h28.5l82.5 19.546v12.53h-46.75z"/>
        <path fill="#636363" d="M144.319 136.171c-5.926-14.268-24.42-24.676-46.319-24.676-21.89 0-40.378 10.4-46.311 24.659-6.964-.006-12.04-.015-14.133-.029C50.54 119.212 73.209 108.01 99 108.01c25.83 0 48.526 11.237 61.502 28.192-2.225-.015-8.112-.024-16.183-.03z"/>
        <path fill="#CCC" d="M83 99h28v4H83z"/>
        <path fill="#F4F0ED" d="M107.551 10.405c-2.73 0-4.095 1.04-4.095 3.122 0 2.08 1.365 3.121 4.095 3.121h23.546c2.827 0 5.12 2.33 5.12 5.203s-2.293 5.203-5.12 5.203h-35.83c-2.828 0-5.12-2.33-5.12-5.203s2.292-5.203 5.12-5.203h1.023c2.73 0 4.095-1.04 4.095-3.121s-1.365-3.122-4.095-3.122H73.767c-2.827 0-5.118-2.33-5.118-5.202C68.649 2.329 70.94 0 73.767 0H109.6c2.827 0 5.118 2.33 5.118 5.203s-2.291 5.202-5.118 5.202h-2.048zM125.236 0a5.07 5.07 0 0 1 5.068 5.073 5.07 5.07 0 0 1-5.068 5.072 5.07 5.07 0 0 1-5.067-5.072A5.07 5.07 0 0 1 125.236 0z" opacity=".7"/>
        <path fill="#F4F0ED" d="M48.293 40.483c-1.986 0-2.978.756-2.978 2.27 0 1.513.992 2.27 2.978 2.27h9.753c2.056 0 3.723 1.694 3.723 3.784s-1.667 3.784-3.723 3.784H39.358c-2.056 0-3.723-1.695-3.723-3.784 0-2.09 1.667-3.784 3.723-3.784h.745c1.985 0 2.978-.757 2.978-2.27 0-1.514-.993-2.27-2.978-2.27h-16.38c-2.056 0-3.723-1.694-3.723-3.784s1.667-3.784 3.723-3.784h26.059c2.056 0 3.723 1.694 3.723 3.784s-1.667 3.784-3.723 3.784h-1.49zm20.847 4.73a3.687 3.687 0 0 1 3.686 3.688c0 2.038-1.65 3.69-3.686 3.69a3.687 3.687 0 0 1-3.685-3.69c0-2.037 1.65-3.689 3.685-3.689z" opacity=".5"/>
        <path fill="#F4F0ED" d="M156.486 55.104c2.24 0 3.358-.852 3.358-2.554 0-1.703-1.119-2.554-3.358-2.554h-14.27c-2.319 0-4.198-1.906-4.198-4.257s1.88-4.257 4.197-4.257h24.345c2.318 0 4.198 1.906 4.198 4.257 0 2.35-1.88 4.257-4.198 4.257h-.84c-2.238 0-3.357.85-3.357 2.554 0 1.702 1.12 2.554 3.358 2.554h18.468c2.318 0 4.198 1.905 4.198 4.256s-1.88 4.257-4.198 4.257h-29.381c-2.319 0-4.198-1.906-4.198-4.257 0-2.35 1.88-4.256 4.198-4.256h1.678zm-14.168 8.513a4.302 4.302 0 0 1-4.3-4.304 4.302 4.302 0 0 1 4.3-4.304c2.374 0 4.3 1.927 4.3 4.304a4.302 4.302 0 0 1-4.3 4.304z" opacity=".7"/>
        <path fill="#D7DEED" d="M134.574 178.824c-1.645 0-2.467-.824-2.467-2.471 0-1.647.822-2.47 2.467-2.47h25.901a5.555 5.555 0 0 0 5.55-5.56 5.555 5.555 0 0 0-5.55-5.558h-4.933c-2.467 0-3.7-1.236-3.7-3.706 0-2.47 1.233-3.706 3.7-3.706h20.968a6.172 6.172 0 0 0 6.167-6.177A6.172 6.172 0 0 0 176.51 143H16.167A6.172 6.172 0 0 0 10 149.176a6.172 6.172 0 0 0 6.167 6.177h16.034c2.467 0 3.7 1.235 3.7 3.706 0 2.47-1.233 3.706-3.7 3.706h-6.167a5.555 5.555 0 0 0-5.55 5.559 5.555 5.555 0 0 0 5.55 5.558h41.32c1.644 0 2.466.824 2.466 2.47 0 1.648-.822 2.472-2.467 2.472h-9.867a3.086 3.086 0 0 0-3.083 3.088A3.086 3.086 0 0 0 57.486 185h84.488a3.086 3.086 0 0 0 3.084-3.088 3.086 3.086 0 0 0-3.084-3.088h-7.4z"/>
        <path fill="#B0BAD3" d="M76.565 130.382c.9 0 1.35.451 1.35 1.353 0 .902-.45 1.353-1.35 1.353H62.38a3.042 3.042 0 0 0-3.04 3.044 3.042 3.042 0 0 0 3.04 3.044h2.701c1.351 0 2.027.677 2.027 2.03 0 1.353-.676 2.03-2.027 2.03H53.6a3.38 3.38 0 0 0-3.377 3.382A3.38 3.38 0 0 0 53.6 150h87.806a3.38 3.38 0 0 0 3.378-3.382 3.38 3.38 0 0 0-3.378-3.383h-8.78c-1.351 0-2.026-.676-2.026-2.03 0-1.352.675-2.029 2.026-2.029h3.377a3.042 3.042 0 0 0 3.04-3.044 3.042 3.042 0 0 0-3.04-3.044h-22.627c-.9 0-1.351-.45-1.351-1.353 0-.902.45-1.353 1.35-1.353h5.404a1.69 1.69 0 0 0 1.689-1.69 1.69 1.69 0 0 0-1.689-1.692H72.512a1.69 1.69 0 0 0-1.689 1.691 1.69 1.69 0 0 0 1.69 1.691h4.052z"/>
        <path fill="#B0BAD3" d="M113.716 159.786c-.697 0-1.046-.35-1.046-1.048 0-.698.349-1.048 1.046-1.048H124.7c1.3 0 2.354-1.055 2.354-2.357a2.355 2.355 0 0 0-2.354-2.357h-2.092c-1.046 0-1.569-.524-1.569-1.571 0-1.048.523-1.572 1.57-1.572h8.89a2.617 2.617 0 0 0 2.615-2.619 2.617 2.617 0 0 0-2.615-2.619h-67.99a2.617 2.617 0 0 0-2.615 2.62 2.617 2.617 0 0 0 2.615 2.618h6.799c1.046 0 1.569.524 1.569 1.572 0 1.047-.523 1.571-1.569 1.571h-2.615a2.355 2.355 0 0 0-2.354 2.357 2.355 2.355 0 0 0 2.354 2.357h17.52c.698 0 1.047.35 1.047 1.048 0 .698-.35 1.048-1.046 1.048h-4.184a1.309 1.309 0 0 0 0 2.619h35.825a1.309 1.309 0 0 0 0-2.62h-3.138z"/>
        <path fill="#999" d="M97 66.5l14 5.5v8zM111.5 104l82.5 24.5v-5zM97 60l14 5v5zM113 72v5l14.5 3.5L121 74zM113 99l30 7 5 5-35-8zM0 124v5.5l82-24 29.5-1.5H82z"/>
    </g>
</svg>
