<svg xmlns="http://www.w3.org/2000/svg" width="18" height="18" viewBox="0 0 18 18">
    <g fill="none" fill-rule="evenodd">
        <path d="M-2-2h22v22H-2z"/>
        <path fill="#FFF" fill-rule="nonzero" d="M15.727 9.749c1.368.375 2.18 1.817 1.814 3.22-.367 1.402-1.774 2.236-3.143 1.86-1.242-.341-2.022-1.56-1.882-2.83l-1.576-.496c-.686 1.44-2.291 2.23-3.859 1.8-.33-.091-.634-.23-.91-.407l-1.33 1.224c.286.562.377 1.23.204 1.89-.367 1.402-1.774 2.236-3.143 1.86-1.369-.376-2.18-1.818-1.814-3.22.367-1.403 1.774-2.236 3.143-1.86.276.076.529.197.755.35l1.248-1.148a3.48 3.48 0 0 1-.51-2.876A3.392 3.392 0 0 1 6.5 6.922l-.498-1.665a2.504 2.504 0 0 1-.779-.087c-1.369-.375-2.18-1.818-1.814-3.22C3.777.547 5.184-.285 6.553.09c1.37.376 2.181 1.818 1.814 3.22A2.614 2.614 0 0 1 7.23 4.87l.515 1.72c.35-.02.708.011 1.065.109 1.567.43 2.571 1.936 2.463 3.534l1.704.531c.604-.867 1.688-1.306 2.75-1.014zm-8.314 2.283c1.094.3 2.222-.367 2.515-1.488.293-1.12-.358-2.276-1.451-2.576-1.094-.3-2.222.367-2.515 1.488-.293 1.12.358 2.276 1.451 2.576z"/>
    </g>
</svg>
