<svg xmlns="http://www.w3.org/2000/svg" width="20" height="20" viewBox="0 0 20 20">
    <g fill="none" fill-rule="evenodd">
        <path d="M-2-2h24v24H-2z"/>
        <path fill="#FFF" d="M17.035 13.17c.539-1.293.808-2.631.808-4.01V3.906L11.024.85 12.922 0l6.421 2.878V7.16c0 1.302-.28 2.558-.839 3.768a9.41 9.41 0 0 1-1.469 2.243zm-1.53-.242a9.41 9.41 0 0 1-1.47 2.243c.539-1.294.808-2.632.808-4.011V5.906L8.024 2.85 9.922 2l6.421 2.878V9.16c0 1.302-.28 2.558-.839 3.768zM6.921 4l6.421 2.878v4.282c0 1.302-.28 2.558-.839 3.768a9.291 9.291 0 0 1-2.277 3.05c-.994.867-2.095 1.45-3.305 1.746-1.21-.297-2.312-.879-3.305-1.747a9.291 9.291 0 0 1-2.278-3.049A8.885 8.885 0 0 1 .5 11.16V6.878L6.922 4zm0 14.393c1.136-.482 1.955-.942 2.456-1.38a7.996 7.996 0 0 0 1.96-2.624 7.6 7.6 0 0 0 .721-3.23V7.71L6.922 5.409v12.985z"/>
    </g>
</svg>
