<?xml version="1.0" encoding="UTF-8"?>
<svg width="24px" height="24px" viewBox="0 0 24 24" version="1.1" xmlns="http://www.w3.org/2000/svg" xmlns:xlink="http://www.w3.org/1999/xlink">
    <!-- Generator: Sketch 64 (93537) - https://sketch.com -->
    <title>ico-firewall-policy-profile-blk</title>
    <desc>Created with Sketch.</desc>
    <g id="Page-1" stroke="none" stroke-width="1" fill="none" fill-rule="evenodd">
        <g id="ico-policy">
            <polygon id="Path" points="0 0 24 0 24 24 0 24"></polygon>
            <path d="M18.42,2.99986502 C18.919,2.99986502 19.3,3.403 19.3,3.9 L19.3,14.3564442 C19.0376284,14.0356501 19.0376284,13.7752722 18.7563349,13.0697053 C18.2706926,11.8515714 18.3706002,11.1234645 18.8562425,10.6451487 C18.6200788,10.873624 17.7001315,10.8418462 17.4992517,11.0995158 L17.5,4.8 L8.957,4.8 L5.803,9 L5.803,19.2 L11.7497263,19.1991384 L11.7472022,19.2690072 C11.7280225,19.9296424 11.5993181,20.5057744 11.935946,21.0000559 L4.901,21.0000559 C4.66213194,21.0002654 4.43295644,20.9055614 4.26395735,20.7367499 C4.09495827,20.5679384 4,20.3388682 4,20.1 L4,8.7 C4,8.50526681 4.06316008,8.31578655 4.18,8.16 L7.785,3.36 C7.9555984,3.13305992 8.22308889,2.99986502 8.507,2.99986502 L18.42,2.99986502 Z M17.9058381,12.1591439 C17.5011362,12.5577404 17.5805066,13.5319905 18.1439494,15.081022 C18.9882413,17.4028249 20.2895673,16.9876565 20.5285508,19.372258 C20.6872916,20.962283 19.7339744,21.9557215 17.6677269,22.3534458 L17.1860293,22.3534458 L17.1860293,19.1367633 L16.1363835,19.1367633 L16.1363835,22.3534458 L15.3424352,22.3534458 C13.5936693,21.8362298 12.738911,20.9029732 12.7781601,19.5510595 C12.8383421,17.524061 14.2312493,16.3893257 14.4475555,15.7953558 C14.5953598,15.3750102 14.6561915,14.9290101 14.626357,14.4844356 C15.501176,15.4377528 15.9381495,16.3317603 15.9381495,17.166458 C16.0175199,15.0208401 16.6734161,13.3514446 17.9058381,12.1591439 Z M17.1860293,17.3923585 L16.1363835,17.3923585 L16.1363835,18.2645609 L17.1860293,18.2645609 L17.1860293,17.3923585 Z M10.929,6.945 L10.929,11 L7.695,11 L7.695,10.028 L9.896,6.945 L10.929,6.945 Z" id="Shape" fill="#FFFFFF" fill-rule="nonzero"></path>
        </g>
    </g>
</svg>