<svg xmlns="http://www.w3.org/2000/svg" width="19" height="20" viewBox="0 0 19 20">
    <g fill="none" fill-rule="evenodd">
        <path d="M-3-2h24v24H-3z"/>
        <path fill="#FFF" fill-rule="nonzero" d="M15.526 7.553l-.96-.43-.866.388V1.828H5.023L1.827 6.093v10.358h7.056c.11.345.242.686.398 1.023.131.278.274.547.428.805H.913A.914.914 0 0 1 0 17.365V5.788c0-.197.064-.39.183-.548L3.836.366A.913.913 0 0 1 4.566 0h10.047c.505 0 .913.41.913.914v6.639zm-11.782.571v-.987l2.231-3.13h1.046v4.117H3.744zM14.567 9.14L19 11.127v2.958c0 .899-.193 1.766-.58 2.602a6.417 6.417 0 0 1-1.572 2.106A5.382 5.382 0 0 1 14.567 20a5.382 5.382 0 0 1-2.282-1.207 6.417 6.417 0 0 1-1.572-2.106 6.14 6.14 0 0 1-.58-2.602v-2.958l4.434-1.987z"/>
    </g>
</svg>
