<svg xmlns="http://www.w3.org/2000/svg" width="19" height="20" viewBox="0 0 19 20">
    <g fill="none" fill-rule="evenodd">
        <path d="M-3-2h24v24H-3z"/>
        <path fill="#FFF" fill-rule="nonzero" d="M15.322 6.418c-.599.392-1.04.752-1.322 1.082-.17.198-.33.44-.48.726V1.8H4.957L1.803 6v10.2h6.292c-.063.49-.095.924-.095 1.3 0 .175.007.341.02.5H.901A.9.9 0 0 1 0 17.1V5.7a.9.9 0 0 1 .18-.54L3.785.36A.902.902 0 0 1 4.507 0h9.914a.9.9 0 0 1 .901.9v5.518zM3.695 8v-.972l2.201-3.083H6.93V8H3.695zm9.246 11.688c-2.005-.593-2.985-1.663-2.94-3.213.069-2.324 1.666-3.625 1.914-4.306a3.77 3.77 0 0 0 .205-1.503c1.003 1.093 1.504 2.118 1.504 3.075.091-2.46.843-4.374 2.256-5.741-.464.457-.373 1.574.273 3.35.968 2.662 2.46 2.186 2.734 4.92.182 1.823-.911 2.962-3.28 3.418.577-.933.896-1.708.956-2.324.06-.616-.123-1.254-.547-1.914-.273 1.55-.797 2.37-1.572 2.46-.774.092-1.116-.455-1.025-1.64-.672.461-1.037.894-1.094 1.299-.056.404.149 1.11.616 2.119z"/>
    </g>
</svg>
