<?xml version="1.0" encoding="UTF-8"?>
<svg width="54px" height="50px" viewBox="0 0 54 50" version="1.1" xmlns="http://www.w3.org/2000/svg" xmlns:xlink="http://www.w3.org/1999/xlink">
    <!-- Generator: sketchtool 48.2 (47327) - http://www.bohemiancoding.com/sketch -->
    <title>65697DE7-D754-4C73-B965-5178A2E08983</title>
    <desc>Created with sketchtool.</desc>
    <defs></defs>
    <g id="Troubleshooting-events" stroke="none" stroke-width="1" fill="none" fill-rule="evenodd" transform="translate(-794.000000, -385.000000)">
        <g id="Group-8" transform="translate(313.000000, 355.000000)">
            <g id="Group-Copy" transform="translate(463.000000, 10.000000)">
                <g id="ico-service-copy" transform="translate(15.000000, 15.000000)">
                    <rect id="Rectangle-18" x="0" y="0" width="60" height="60"></rect>
                    <path d="M31.9999924,28 L47.5,28 C49.9852814,28 52,30.0147186 52,32.5 L52,41.0512182 C54.7514494,41.9035912 56.75,44.4684023 56.75,47.5 C56.75,51.2279221 53.7279221,54.25 50,54.25 C46.2720779,54.25 43.25,51.2279221 43.25,47.5 C43.25,44.4684023 45.2485506,41.9035912 48,41.0512182 L48,32.5 C48,32.2238576 47.7761424,32 47.5,32 L31.9999924,32 L31.9999924,41.0512158 C34.7514458,41.9035865 36.75,44.4683996 36.75,47.5 C36.75,51.2279221 33.7279221,54.25 30,54.25 C26.2720779,54.25 23.25,51.2279221 23.25,47.5 C23.25,44.4684051 25.2485469,41.9035959 27.9999924,41.0512205 L27.9999924,32 L12.5,32 C12.2238576,32 12,32.2238576 12,32.5 L12,41.0512182 C14.7514494,41.9035912 16.75,44.4684023 16.75,47.5 C16.75,51.2279221 13.7279221,54.25 10,54.25 C6.27207794,54.25 3.25,51.2279221 3.25,47.5 C3.25,44.4684023 5.24855056,41.9035912 8,41.0512182 L8,32.5 C8,30.0147186 10.0147186,28 12.5,28 L27.9999924,28 L27.9999924,22.2703788 C24.1312907,21.3658004 21.25,17.894381 21.25,13.75 C21.25,8.91750844 25.1675084,5 30,5 C34.8324916,5 38.75,8.91750844 38.75,13.75 C38.75,17.8943864 35.8687018,21.3658095 31.9999924,22.2703823 L31.9999924,28 Z M30,18.75 C32.7614237,18.75 35,16.5114237 35,13.75 C35,10.9885763 32.7614237,8.75 30,8.75 C27.2385763,8.75 25,10.9885763 25,13.75 C25,16.5114237 27.2385763,18.75 30,18.75 Z" id="Combined-Shape" fill="#A5D9B7"></path>
                </g>
            </g>
        </g>
    </g>
</svg>