<?xml version="1.0" encoding="UTF-8"?>
<svg width="22px" height="18px" viewBox="0 0 22 18" version="1.1" xmlns="http://www.w3.org/2000/svg" xmlns:xlink="http://www.w3.org/1999/xlink">
    <!-- Generator: sketchtool 48.2 (47327) - http://www.bohemiancoding.com/sketch -->
    <title>54DE5EB7-E645-4DF5-A0CD-99AEB4DB895B</title>
    <desc>Created with sketchtool.</desc>
    <defs></defs>
    <g id="Pensando-custom-icon-library" stroke="none" stroke-width="1" fill="none" fill-rule="evenodd" transform="translate(-133.000000, -90.000000)">
        <g id="ico-naples" transform="translate(132.000000, 87.000000)">
            <rect id="Rectangle-10" x="0" y="0" width="24" height="24"></rect>
            <path d="M6,18 L4,18 L4,20 C4,20.5522847 3.55228475,21 3,21 C2.44771525,21 2,20.5522847 2,20 L2,5 C1.44771525,5 1,4.55228475 1,4 C1,3.44771525 1.44771525,3 2,3 L3,3 C3.27614237,3 3.52614237,3.11192881 3.70710678,3.29289322 C3.88807119,3.47385763 4,3.72385763 4,4 L4,5 L22,5 C22.5522847,5 23,5.44771525 23,6 L23,17 C23,17.5522847 22.5522847,18 22,18 L15,18 L15,19 C15,19.5522847 14.5522847,20 14,20 L7,20 C6.44771525,20 6,19.5522847 6,19 L6,18 Z M4,7 L4,16 L21,16 L21,7 L4,7 Z M7,17 L7,19 L8,19 L8,17 L7,17 Z M9,17 L9,19 L10,19 L10,17 L9,17 Z M11,17 L11,19 L12,19 L12,17 L11,17 Z M13,17 L13,19 L14,19 L14,17 L13,17 Z M16.89,13.69 C16.89,13.9433346 16.8550003,14.1616657 16.785,14.345 C16.7149996,14.5283342 16.6216672,14.6783327 16.505,14.795 C16.3883328,14.9116673 16.2533341,14.9983331 16.1,15.055 C15.9466659,15.1116669 15.7866675,15.14 15.62,15.14 C15.3333319,15.14 15.0816677,15.0983338 14.865,15.015 C14.6483323,14.9316663 14.4600008,14.7966676 14.3,14.61 L10.59,10.32 C10.5366664,10.2599997 10.4833336,10.23 10.43,10.23 C10.3833331,10.23 10.3433335,10.2466665 10.31,10.28 C10.2766665,10.3133335 10.26,10.3599997 10.26,10.42 L10.26,15 L8.48,15 L8.48,9.67 C8.48,9.3833319 8.51833295,9.140001 8.595,8.94 C8.67166705,8.739999 8.7799993,8.5766673 8.92,8.45 C9.0600007,8.3233327 9.2266657,8.23166695 9.42,8.175 C9.6133343,8.11833305 9.8233322,8.09 10.05,8.09 C10.3700016,8.09 10.6399989,8.1399995 10.86,8.24 C11.0800011,8.3400005 11.2966656,8.5133321 11.51,8.76 L14.81,12.71 C14.8366668,12.7433335 14.8633332,12.7649999 14.89,12.775 C14.9166668,12.7850001 14.9466665,12.79 14.98,12.79 C15.0733338,12.79 15.12,12.7300006 15.12,12.61 L15.12,8.24 L16.89,8.24 L16.89,13.69 Z" id="Combined-Shape" fill="#e1bc2a"></path>
        </g>
    </g>
</svg>