<?xml version="1.0" encoding="UTF-8"?>
<svg width="24px" height="26px" viewBox="0 0 24 26" version="1.1" xmlns="http://www.w3.org/2000/svg" xmlns:xlink="http://www.w3.org/1999/xlink">
    <!-- Generator: sketchtool 48.2 (47327) - http://www.bohemiancoding.com/sketch -->
    <title>33CD9872-2927-4A02-938B-AEE80D19F353</title>
    <desc>Created with sketchtool.</desc>
    <defs></defs>
    <g id="Troubleshooting-ingress-policy" stroke="none" stroke-width="1" fill="none" fill-rule="evenodd" transform="translate(-557.000000, -427.000000)">
        <g id="Ingress-Rule" transform="translate(313.000000, 294.000000)">
            <g id="Group-29" transform="translate(236.000000, 126.000000)">
                <g id="ico-securityGroup" transform="translate(5.000000, 5.000000)">
                    <rect id="Rectangle-6" x="0" y="0" width="30" height="30"></rect>
                    <path d="M23.8087336,19.1937641 C24.475647,17.5538717 24.8092472,15.8578449 24.8092472,14.1098752 L24.8092472,7.4508756 L16.3651644,3.57774763 L18.7148389,2.5 L26.6666667,6.14734064 L26.6666667,11.5749309 C26.6666667,13.2249266 26.3203239,14.8170038 25.6276278,16.3512103 C25.1426121,17.405171 24.5363173,18.3526845 23.8087336,19.1937641 Z M21.9127889,18.8861546 C21.4277732,19.9401153 20.8214783,20.8876288 20.0938947,21.7287085 C20.7608081,20.088816 21.0944083,18.3927893 21.0944083,16.6448195 L21.0944083,9.98581993 L12.6503254,6.11269196 L15,5.03494433 L22.9518277,8.68228497 L22.9518277,14.1098752 C22.9518277,15.7598709 22.6054849,17.3519481 21.9127889,18.8861546 Z M11.2851611,7.56988866 L19.2369888,11.2172293 L19.2369888,16.6448195 C19.2369888,18.2948152 18.890646,19.8868924 18.19795,21.4210989 C17.505254,22.9263582 16.5651806,24.2144934 15.3777017,25.2855432 C14.1478129,26.3855403 12.7836463,27.1236852 11.2851611,27.5 C9.78667582,27.1236852 8.42250923,26.3855403 7.19262039,25.2855432 C6.00514152,24.2144934 5.06506817,22.9263582 4.37237216,21.4210989 C3.67967614,19.8868924 3.33333333,18.2948152 3.33333333,16.6448195 L3.33333333,11.2172293 L11.2851611,7.56988866 Z M11.2851611,25.8131344 C12.6924844,25.2015534 13.7062361,24.6184256 14.3264215,24.0637508 C15.3497866,23.1407239 16.1585238,22.032552 16.7543615,20.737872 C17.3509572,19.4165117 17.6466233,18.0573868 17.6466233,16.6448195 L17.6466233,12.2719725 L11.2851611,9.35409996 L11.2851611,25.8131344 Z" id="Combined-Shape" fill="#B7D594"></path>
                </g>
            </g>
        </g>
    </g>
</svg>