<?xml version="1.0" encoding="UTF-8"?>
<svg width="44px" height="40px" viewBox="0 0 44 40" version="1.1" xmlns="http://www.w3.org/2000/svg" xmlns:xlink="http://www.w3.org/1999/xlink">
    <!-- Generator: sketchtool 48.2 (47327) - http://www.bohemiancoding.com/sketch -->
    <title>6DB5EA04-0BCC-4AE5-883F-96510EA5C23B</title>
    <desc>Created with sketchtool.</desc>
    <defs></defs>
    <g id="Troubleshooting-no-conncetion" stroke="none" stroke-width="1" fill="none" fill-rule="evenodd" transform="translate(-343.000000, -580.000000)">
        <g id="Group-7" transform="translate(320.000000, 555.000000)">
            <g transform="translate(10.000000, 10.000000)" id="ico-workload-source">
                <g transform="translate(12.659574, 12.659574)">
                    <rect id="Rectangle-6" x="0" y="0" width="44.6808511" height="44.6808511"></rect>
                    <path d="M43.6197211,24.1850111 L34.5783261,40.0074523 C33.9154855,41.1674234 32.6819179,41.8832905 31.34592,41.8832905 L13.3293531,41.8832905 C11.9933551,41.8832905 10.7597876,41.1674234 10.0969469,40.0074523 L1.05555193,24.1850111 C0.401523647,23.0404616 0.401523647,21.6353821 1.05555193,20.4908326 L10.0969469,4.66839132 C10.7597876,3.50842024 11.9933551,2.79255319 13.3293531,2.79255319 L31.34592,2.79255319 C32.6819179,2.79255319 33.9154855,3.50842024 34.5783261,4.66839132 L43.6197211,20.4908326 C44.2737494,21.6353821 44.2737494,23.0404616 43.6197211,24.1850111 Z M40.0453875,22.3379218 L31.191512,6.84363972 L13.483761,6.84363972 L4.62988554,22.3379218 L13.483761,37.832204 L31.191512,37.832204 L40.0453875,22.3379218 Z" id="Combined-Shape" fill="#A4C7F0"></path>
                    <path d="M18.5644255,25.6524255 L14.9164255,25.6524255 C14.9004255,26.7084308 15.0924235,27.6204217 15.4924255,28.3884255 C15.8924275,29.1564294 16.4324221,29.7884231 17.1124255,30.2844255 C17.7924289,30.780428 18.5764211,31.1444244 19.4644255,31.3764255 C20.35243,31.6084267 21.2684208,31.7244255 22.2124255,31.7244255 C23.3804314,31.7244255 24.4084211,31.5884269 25.2964255,31.3164255 C26.18443,31.0444242 26.9284225,30.664428 27.5284255,30.1764255 C28.1284285,29.6884231 28.580424,29.1084289 28.8844255,28.4364255 C29.1884271,27.7644222 29.3404255,27.0364295 29.3404255,26.2524255 C29.3404255,25.2924207 29.1364276,24.5044286 28.7284255,23.8884255 C28.3204235,23.2724225 27.8364283,22.7804274 27.2764255,22.4124255 C26.7164227,22.0444237 26.1524284,21.7764264 25.5844255,21.6084255 C25.0164227,21.4404247 24.5724271,21.3244259 24.2524255,21.2604255 C23.1804202,20.9884242 22.3124289,20.7644264 21.6484255,20.5884255 C20.9844222,20.4124247 20.4644274,20.2364264 20.0884255,20.0604255 C19.7124237,19.8844247 19.4604262,19.6924266 19.3324255,19.4844255 C19.2044249,19.2764245 19.1404255,19.0044272 19.1404255,18.6684255 C19.1404255,18.3004237 19.2204247,17.9964267 19.3804255,17.7564255 C19.5404263,17.5164243 19.7444243,17.3164263 19.9924255,17.1564255 C20.2404268,16.9964247 20.516424,16.8844259 20.8204255,16.8204255 C21.1244271,16.7564252 21.428424,16.7244255 21.7324255,16.7244255 C22.1964279,16.7244255 22.6244236,16.7644251 23.0164255,16.8444255 C23.4084275,16.9244259 23.756424,17.0604246 24.0604255,17.2524255 C24.3644271,17.4444265 24.6084246,17.7084239 24.7924255,18.0444255 C24.9764265,18.3804272 25.0844254,18.804423 25.1164255,19.3164255 L28.7644255,19.3164255 C28.7644255,18.3244206 28.5764274,17.480429 28.2004255,16.7844255 C27.8244237,16.0884221 27.3164287,15.5164278 26.6764255,15.0684255 C26.0364223,14.6204233 25.3044297,14.2964265 24.4804255,14.0964255 C23.6564214,13.8964245 22.79643,13.7964255 21.9004255,13.7964255 C21.1324217,13.7964255 20.3644294,13.9004245 19.5964255,14.1084255 C18.8284217,14.3164266 18.1404286,14.6364234 17.5324255,15.0684255 C16.9244225,15.5004277 16.4324274,16.0404223 16.0564255,16.6884255 C15.6804237,17.3364288 15.4924255,18.1004211 15.4924255,18.9804255 C15.4924255,19.7644295 15.6404241,20.4324228 15.9364255,20.9844255 C16.232427,21.5364283 16.6204231,21.9964237 17.1004255,22.3644255 C17.5804279,22.7324274 18.1244225,23.0324244 18.7324255,23.2644255 C19.3404286,23.4964267 19.9644223,23.6924247 20.6044255,23.8524255 C21.2284287,24.0284264 21.8444225,24.1884248 22.4524255,24.3324255 C23.0604286,24.4764263 23.6044231,24.6444246 24.0844255,24.8364255 C24.5644279,25.0284265 24.9524241,25.2684241 25.2484255,25.5564255 C25.544427,25.844427 25.6924255,26.2204232 25.6924255,26.6844255 C25.6924255,27.1164277 25.5804267,27.4724241 25.3564255,27.7524255 C25.1324244,28.0324269 24.8524272,28.2524247 24.5164255,28.4124255 C24.1804239,28.5724263 23.8204275,28.6804253 23.4364255,28.7364255 C23.0524236,28.7924258 22.6924272,28.8204255 22.3564255,28.8204255 C21.8604231,28.8204255 21.3804279,28.7604261 20.9164255,28.6404255 C20.4524232,28.5204249 20.0484273,28.3364268 19.7044255,28.0884255 C19.3604238,27.8404243 19.0844266,27.5164275 18.8764255,27.1164255 C18.6684245,26.7164235 18.5644255,26.2284284 18.5644255,25.6524255 Z" id="S" fill="#A4C7F0"></path>
                </g>
            </g>
        </g>
    </g>
</svg>