<svg xmlns="http://www.w3.org/2000/svg" width="24" height="24" viewBox="0 0 24 24">
    <g fill="none" fill-rule="evenodd">
        <path d="M0 0h24v24H0z"/>
        <path fill="#000" fill-rule="nonzero" d="M4.938 19.047a9.811 9.811 0 0 0 4.546 2.613 9.451 9.451 0 0 0 5.02 0 9.811 9.811 0 0 0 4.545-2.613 9.82 9.82 0 0 0 2.612-4.548 9.469 9.469 0 0 0 0-5.023 9.82 9.82 0 0 0-2.612-4.549 9.768 9.768 0 0 0-4.528-2.596 9.814 9.814 0 0 0-5.054 0 9.768 9.768 0 0 0-4.529 2.596A9.777 9.777 0 0 0 2.343 9.46a9.648 9.648 0 0 0-.016 5.04 9.82 9.82 0 0 0 2.611 4.548zm-.899-8.061a7.69 7.69 0 0 1 .738-2.503A8.046 8.046 0 0 1 6.33 6.319a7.796 7.796 0 0 1 3.63-2.07 7.763 7.763 0 0 1 4.07 0 7.796 7.796 0 0 1 3.63 2.07 8.046 8.046 0 0 1 1.551 2.164c.334.683.563 1.394.685 2.132l.053.37H4.039zm2.29 6.67a8.046 8.046 0 0 1-1.552-2.164 7.703 7.703 0 0 1-.685-2.132l-.053-.372h15.909a7.69 7.69 0 0 1-.738 2.504 8.046 8.046 0 0 1-1.552 2.163 7.796 7.796 0 0 1-3.63 2.07 7.763 7.763 0 0 1-4.07 0 7.796 7.796 0 0 1-3.629-2.07z"/>
    </g>
</svg>
