<svg xmlns="http://www.w3.org/2000/svg" xmlns:xlink="http://www.w3.org/1999/xlink" width="110" height="110" viewBox="0 0 110 110">
    <defs>
        <circle id="a" cx="55" cy="55" r="55"/>
    </defs>
    <g fill="none" fill-rule="evenodd">
        <mask id="b" fill="#fff">
            <use xlink:href="#a"/>
        </mask>
        <use fill="#F4F0ED" xlink:href="#a"/>
        <g mask="url(#b)" opacity=".5">
            <path fill="#D1CEC7" d="M79.847 12L143 110H16.695z"/>
            <path fill="#C1C1C1" d="M31.797 31.189L82.593 110H-19z"/>
        </g>
        <g fill-rule="nonzero" mask="url(#b)">
            <path fill="#FCB710" d="M55 41.045c-3.04 0-5.514-2.477-5.514-5.523C49.486 32.477 51.959 30 55 30c3.04 0 5.514 2.477 5.514 5.522 0 3.046-2.473 5.523-5.514 5.523zm0-7.363a1.843 1.843 0 0 0-1.838 1.84c0 1.014.826 1.841 1.838 1.841a1.843 1.843 0 0 0 1.838-1.84c0-1.014-.826-1.841-1.838-1.841z"/>
            <path fill="#F28D00" d="M55 30v3.682c1.013 0 1.838.827 1.838 1.84 0 1.014-.825 1.84-1.837 1.841v3.682c3.04 0 5.513-2.477 5.513-5.523 0-3.045-2.473-5.522-5.513-5.522z"/>
            <path fill="#FCB710" d="M55 86.452c-5.069 0-9.19-4.128-9.19-9.204 0-1.018.822-1.841 1.838-1.841h14.704c1.016 0 1.838.823 1.838 1.84 0 5.077-4.121 9.205-9.19 9.205z"/>
            <path fill="#F28D00" d="M62.352 75.407h-7.351v11.045c5.069 0 9.19-4.128 9.19-9.204 0-1.018-.823-1.841-1.839-1.841z"/>
            <path fill="#FFC430" d="M75.219 68.382v-10.77C75.217 46.428 66.167 37.364 55 37.363c-11.167.001-20.217 9.065-20.219 20.25v10.77c-2.136.76-3.675 2.781-3.676 5.183a5.519 5.519 0 0 0 5.515 5.522h36.76a5.519 5.519 0 0 0 5.515-5.522c-.001-2.402-1.54-4.423-3.676-5.184z"/>
            <path fill="#FA0" d="M75.219 68.382v-10.77C75.217 46.428 66.167 37.364 55 37.363v41.725h18.38a5.519 5.519 0 0 0 5.515-5.522c-.001-2.402-1.54-4.423-3.676-5.184z"/>
            <path fill="#FFF3DB" d="M41.972 58.453a1.838 1.838 0 0 1-1.838-1.84c0-5.185 3.083-9.845 7.858-11.869a1.835 1.835 0 0 1 2.409.974 1.838 1.838 0 0 1-.973 2.413 9.2 9.2 0 0 0-5.618 8.481c0 1.018-.822 1.841-1.838 1.841z"/>
        </g>
        <path fill="#9A9A96" fill-rule="nonzero" d="M67.792 43.395h3.639c.784 0 1.417.476 1.417 1.303 0 .826-.633 1.302-1.417 1.302h-7.125c-.283 0-1.023-.122-1.023-.93 0-.392.086-.579.325-.889l4.947-6.576h-4.14c-.785 0-1.415-.476-1.415-1.303 0-.826.63-1.302 1.415-1.302h7.299c.698 0 1.286.331 1.286 1.014 0 .33-.174.64-.283.807l-4.925 6.574zM82.71 36.21h5.095c1.098 0 1.982.692 1.982 1.894 0 1.205-.884 1.896-1.982 1.896h-9.972c-.4 0-1.437-.18-1.437-1.353 0-.57.122-.841.46-1.294l6.921-9.563h-5.796c-1.097 0-1.981-.692-1.981-1.896C76 24.69 76.884 24 77.981 24H88.2c.978 0 1.801.481 1.801 1.475 0 .481-.244.932-.396 1.17L82.71 36.21z" mask="url(#b)"/>
        <path fill="#FFF" d="M23.667 20.462c-2.223 0-3.334.846-3.334 2.538 0 1.692 1.111 2.538 3.334 2.538h19.166c2.302 0 4.167 1.895 4.167 4.231C47 32.106 45.135 34 42.833 34H13.667C11.365 34 9.5 32.106 9.5 29.77c0-2.337 1.865-4.232 4.167-4.232h.833c2.222 0 3.333-.846 3.333-2.538 0-1.692-1.11-2.538-3.333-2.538H-3.833C-6.135 20.462-8 18.567-8 16.23-8 13.894-6.135 12-3.833 12h29.166c2.302 0 4.167 1.894 4.167 4.23 0 2.337-1.865 4.232-4.167 4.232h-1.666zM38.062 12a4.125 4.125 0 1 1 0 8.25 4.125 4.125 0 0 1 0-8.25z" mask="url(#b)" opacity=".7"/>
        <path fill="#FFF" d="M33.03 81.154c-1.616 0-2.424.615-2.424 1.846 0 1.23.808 1.846 2.424 1.846h7.94c1.673 0 3.03 1.378 3.03 3.077 0 1.7-1.357 3.077-3.03 3.077H25.758c-1.674 0-3.03-1.378-3.03-3.077 0-1.7 1.356-3.077 3.03-3.077h.606c1.616 0 2.424-.615 2.424-1.846 0-1.23-.808-1.846-2.424-1.846H13.03c-1.673 0-3.03-1.378-3.03-3.077 0-1.7 1.357-3.077 3.03-3.077h21.212c1.674 0 3.03 1.378 3.03 3.077 0 1.7-1.356 3.077-3.03 3.077H33.03zM50 85a3 3 0 1 1 0 6 3 3 0 0 1 0-6z" mask="url(#b)" opacity=".5"/>
        <path fill="#FFF" d="M84.033 57.077c1.823 0 2.734-.692 2.734-2.077s-.911-2.077-2.734-2.077H72.417c-1.887 0-3.417-1.55-3.417-3.461C69 47.55 70.53 46 72.417 46h19.816c1.887 0 3.417 1.55 3.417 3.462 0 1.911-1.53 3.461-3.417 3.461h-.683c-1.822 0-2.733.692-2.733 2.077s.91 2.077 2.733 2.077h15.033c1.887 0 3.417 1.55 3.417 3.461 0 1.912-1.53 3.462-3.417 3.462H82.667c-1.887 0-3.417-1.55-3.417-3.462 0-1.911 1.53-3.461 3.417-3.461h1.366zM72.5 64a3.5 3.5 0 1 1 0-7 3.5 3.5 0 0 1 0 7z" mask="url(#b)" opacity=".7"/>
    </g>
</svg>
