<svg xmlns="http://www.w3.org/2000/svg" width="20" height="19" viewBox="0 0 20 19">
    <g fill="none" fill-rule="evenodd">
        <path d="M-2-2h22v22H-2z"/>
        <path fill="#FFF" fill-rule="nonzero" d="M14.083 12.831l2.804-1.682c1.533-.791 2.239-.778 2.893.117.362.494.27 1.187-.22 1.584l-4.893 3.738a2.2 2.2 0 0 1-1.182.583 2.231 2.231 0 0 1-.462.053l-4.195.626c-.663.1-1.342.15-2.017.15H2.846v.714a.24.24 0 0 1-.242.238H.338a.24.24 0 0 1-.243-.238v-8.258a.24.24 0 0 1 .243-.238h2.266a.24.24 0 0 1 .242.238v.243c1.449-.824 2.805-1.115 3.784-.392.467.346 1.075.537 1.709.537H9.6c1.03 0 1.975.482 2.528 1.292.227.332.334.652.31.947.8-.029 1.373-.111 1.644-.252zm4.776-.917a3.18 3.18 0 0 0-.073-.098c-.172-.218-.368-.202-1.34.299l-2.802 1.681c-.692.362-1.7.436-3.81.4l-.094-.002-.065-.002a3.924 3.924 0 0 1-.405-.004H7.135c-.426 0-.624.09-.694.217a.343.343 0 0 0-.034.18.56.56 0 0 1-.567.556.56.56 0 0 1-.566-.556c0-.94.724-1.509 1.861-1.509h3.146c.097 0 .21.002.348.004.359-.015.673-.099.695-.135-.019.03-.049-.063-.136-.19-.341-.5-.933-.8-1.587-.8H8.339c-.878 0-1.726-.269-2.39-.76-.604-.446-1.924.007-3.103.814v4.879h3.965c.617 0 1.238-.046 1.847-.137l4.303-.636c.096 0 .196-.01.315-.036a1.13 1.13 0 0 0 .63-.315l.035-.03 4.909-3.75c.02-.02.024-.05.01-.07zm-5.625-7.046c0 .207-.011.366-.034.475l1.037.771c.044.033.07.082.075.148a.29.29 0 0 1-.042.18l-.97 1.624a.267.267 0 0 1-.141.114.278.278 0 0 1-.16.017l-1.203-.476a4.385 4.385 0 0 1-.818.443l-.201 1.28c-.033.13-.106.196-.217.196H8.588c-.1 0-.173-.066-.218-.197l-.2-1.246a6.928 6.928 0 0 1-.82-.476l-1.202.476a.221.221 0 0 1-.168 0 .304.304 0 0 1-.133-.099l-.97-1.656a.29.29 0 0 1-.041-.18.193.193 0 0 1 .075-.148l1.036-.77a2.607 2.607 0 0 1-.033-.485c0-.213.01-.369.033-.467l-1.036-.77a.193.193 0 0 1-.075-.148.29.29 0 0 1 .041-.18l.97-1.624a.267.267 0 0 1 .142-.115.278.278 0 0 1 .159-.017l1.203.476c.19-.142.462-.29.819-.443l.2-1.279c.034-.131.106-.197.218-.197h1.972c.1 0 .172.066.217.197l.2 1.246c.28.12.552.28.82.476L13 1.538a.221.221 0 0 1 .167 0c.056.022.1.055.134.099l.969 1.656a.29.29 0 0 1 .042.18.193.193 0 0 1-.075.148l-1.037.771c.023.098.034.257.034.476zM9.574 3.49c-.38 0-.708.137-.986.41a1.311 1.311 0 0 0-.418.968c0 .371.14.694.418.967.278.274.607.41.986.41s.707-.136.986-.41c.278-.273.418-.596.418-.967 0-.372-.14-.695-.418-.968a1.361 1.361 0 0 0-.986-.41z"/>
    </g>
</svg>
