<svg xmlns="http://www.w3.org/2000/svg" width="20" height="21" viewBox="0 0 20 21">
    <g fill="none" fill-rule="evenodd">
        <path d="M-3-2h24v24H-3z"/>
        <path fill="#FFF" d="M11.33 17.027l1.36-3.203a2.5 2.5 0 1 1 3.466-.044l1.39 3.272a2 2 0 1 1-1.155.761l-1.434-3.375a2.508 2.508 0 0 1-1.054.013l-1.38 3.252a2 2 0 1 1-1.192-.675zm3.992-10.406c-.326-.08-.6-.121-.822-.121-.257 0-.583.054-.98.162V1.8H4.957L1.803 6v10.2h5.03c-.222.322-.333.755-.333 1.3 0 .157.01.324.028.5H.9A.9.9 0 0 1 0 17.1V5.7a.9.9 0 0 1 .18-.54L3.785.36A.902.902 0 0 1 4.507 0h9.914a.9.9 0 0 1 .901.9v5.721zM3.695 8v-.972l2.201-3.083H6.93V8H3.695z"/>
    </g>
</svg>
