<svg xmlns="http://www.w3.org/2000/svg" width="20" height="19" viewBox="0 0 20 19">
    <g fill="none" fill-rule="evenodd">
        <path d="M-1-1h22v22H-1z"/>
        <path fill="#FFF" d="M10.733 9.267h5.684c.91 0 1.65.738 1.65 1.65v3.135a2.476 2.476 0 1 1-1.467 0v-3.135a.183.183 0 0 0-.183-.184h-5.684v3.32a2.476 2.476 0 1 1-1.466 0v-3.32H3.583a.183.183 0 0 0-.183.184v3.135a2.476 2.476 0 1 1-1.467 0v-3.135c0-.912.74-1.65 1.65-1.65h5.684V7.166A3.21 3.21 0 0 1 10 .833a3.208 3.208 0 0 1 .733 6.333v2.1zM10 5.875a1.833 1.833 0 1 0 0-3.667 1.833 1.833 0 0 0 0 3.667z"/>
    </g>
</svg>
