<svg xmlns="http://www.w3.org/2000/svg" width="24" height="20" viewBox="0 0 24 20">
    <g fill="none" fill-rule="evenodd">
        <path d="M0-2h24v24H0z"/>
        <path fill="#000" d="M15.893 1.937a2.461 2.461 0 0 0-.953 4.069l4.051 4.056.942-.942c.025.29.038.583.038.88 0 5.523-4.47 10-9.986 10C4.471 20 0 15.523 0 10S4.47 0 9.985 0c2.211 0 4.254.72 5.908 1.937zM9.985 9.854c-.812 0-1.704.118-2.673.354-1.101.276-1.993.643-2.674 1.103-.813.538-1.219 1.142-1.219 1.811v1.654h13.133v-1.654c0-.67-.407-1.273-1.22-1.811-.68-.46-1.572-.827-2.673-1.103-.97-.236-1.861-.354-2.674-.354zm0-1.654c.59 0 1.134-.148 1.632-.443a3.34 3.34 0 0 0 1.19-1.191 3.153 3.153 0 0 0 .442-1.634c0-.591-.148-1.142-.442-1.654a3.292 3.292 0 0 0-1.19-1.211 3.141 3.141 0 0 0-1.632-.443c-.59 0-1.133.148-1.631.443a3.292 3.292 0 0 0-1.19 1.21 3.258 3.258 0 0 0-.442 1.655c0 .59.147 1.135.442 1.634a3.34 3.34 0 0 0 1.19 1.191 3.141 3.141 0 0 0 1.631.443zm9.146-2.633l3.472-3.476a.817.817 0 0 1 1.157 0 .82.82 0 0 1 0 1.159l-4.629 4.635-2.893-2.897a.82.82 0 0 1 0-1.159.817.817 0 0 1 1.158 0l1.735 1.738z"/>
    </g>
</svg>
