<svg xmlns="http://www.w3.org/2000/svg" width="250" height="202" viewBox="0 0 250 202">
    <g fill="none" fill-rule="evenodd">
        <g fill-rule="nonzero">
            <path fill="#CCC" d="M120.72 54.558c-.497 0-.9-.45-.9-1.004v-4.755c0-.555.403-1.004.9-1.004.498 0 .902.45.902 1.004v4.755c0 .554-.404 1.004-.901 1.004z"/>
            <path fill="#ED2E2E" d="M127.477 59.471v2.416l-2.822 2.59h-7.869l-2.822-2.59v-2.416a6.637 6.637 0 0 1 .239-1.773 6.754 6.754 0 0 1 6.518-4.943 6.754 6.754 0 0 1 6.518 4.943 6.68 6.68 0 0 1 .238 1.773z"/>
            <path fill="#D82525" d="M127.232 57.543c-.803-2.76-3.495-4.789-6.694-4.789-.89 0-1.541.181-2.322.466 2.03.742 3.397 2.33 3.977 4.323.16.548.245 1.124.245 1.718v2.34l2.14 1.073 2.9-1.072V59.26a6.15 6.15 0 0 0-.246-1.718z"/>
            <path fill="#E6E6E6" d="M128.378 72.323v7.023l-.657.2-4.956 1.523-9.702 2.977v-7.022l9.702-2.978 4.956-1.522zM128.378 86.3v7.024l-.657.201-4.956 1.522-9.702 2.977v-7.023l9.702-2.977 4.956-1.522z"/>
            <path fill="#ED2E2E" d="M128.378 93.335v5.861h-15.315V98.02l9.702-2.967 4.956-1.517zM128.378 79.357v7.023l-.657.201-4.956 1.522-9.702 2.977v-7.023l9.702-2.977 4.956-1.522zM128.378 70.324v2.02l-1.63.506-3.326 1.033-10.359 3.22v-6.779l3.789-1.337h7.738z"/>
            <path fill="#D82525" d="M128.378 93.335v6.763h-4.955v-5.244z"/>
            <path fill="#CCC" d="M128.378 72.323v7.04l-4.955 1.527v-7.04z"/>
            <path fill="#D82525" d="M128.378 79.357v7.041l-4.955 1.526v-7.041zM128.378 70.252v2.045l-4.955 1.56v-4.96h1.168z"/>
            <path fill="#D82525" d="M128.378 70.236v1.885l-1.63.473h-13.685v-2.358l3.789-1.25h7.738z"/>
            <path fill="#CCC" d="M128.378 86.346v7.041l-4.955 1.48v-6.995z"/>
            <path fill="#F2F2F2" d="M127.45 61.772h-17.09v8.567h20.721v-8.567z"/>
            <path fill="#CCC" d="M131.081 61.772v8.567H124.324v-8.567h2.949z"/>
            <path fill="#E6E6E6" d="M116.666 61.773h7.658v8.567h-7.658z"/>
            <path fill="#CCC" d="M134.365 98.746l1.22 6.763h-29.73l1.222-6.763h21.352z"/>
            <path fill="#B3B3B3" d="M134.364 98.746h-9.59l1.222 6.763h9.59z"/>
            <path fill="#B3B3B3" d="M98.829 107.313h43.108a5.202 5.202 0 0 0-.862-1.184 4.969 4.969 0 0 0-3.57-1.522h-34.243a4.969 4.969 0 0 0-3.572 1.522c-.338.348-.63.748-.861 1.184z"/>
            <path fill="#FFC430" d="M118.919 56.362v2.705h-4.955c.031-.464.105-.918.217-1.353.12-.472.287-.926.494-1.352h4.244zM127.477 59.067h-4.954v-2.705h4.244c.207.426.373.88.494 1.352.111.435.185.889.216 1.353z"/>
            <path fill="#999" d="M98.198 109.567h44.37c0-.074-.002-.146-.006-.218 0-.014 0-.031-.002-.046-.004-.053-.008-.107-.014-.16 0-.011 0-.02-.002-.03-.004-.037-.008-.074-.014-.11-.006-.063-.016-.124-.026-.187a5.882 5.882 0 0 0-.094-.422c-.002-.004-.002-.006-.002-.01a5.716 5.716 0 0 0-.138-.417c-.002-.005-.004-.012-.008-.018a3.847 3.847 0 0 0-.24-.51c-.02-.042-.046-.084-.07-.126H98.814c-.024.042-.05.084-.071.127a4.008 4.008 0 0 0-.239.509c-.004.006-.006.013-.008.018-.025.067-.05.133-.07.202-.025.07-.046.142-.068.215 0 .004 0 .006-.002.01a4.191 4.191 0 0 0-.095.422c-.01.063-.02.124-.025.186-.006.037-.01.074-.014.111-.002.01-.002.019-.002.03a4.4 4.4 0 0 0-.014.16c-.002.015-.002.032-.002.046a3.957 3.957 0 0 0-.006.218z"/>
        </g>
        <path fill="#F4F0ED" d="M173.858 159.563c-2.295 0-3.443-1.15-3.443-3.448 0-2.299 1.148-3.448 3.443-3.448h36.148c4.279 0 7.747-3.473 7.747-7.758s-3.468-7.758-7.747-7.758h-6.885c-3.443 0-5.164-1.724-5.164-5.172 0-3.448 1.721-5.172 5.164-5.172h29.263c4.754 0 8.607-3.86 8.607-8.62s-3.853-8.62-8.607-8.62H8.607c-4.754 0-8.607 3.86-8.607 8.62s3.853 8.62 8.607 8.62h22.378c3.442 0 5.164 1.724 5.164 5.172 0 3.448-1.722 5.172-5.164 5.172h-8.607c-4.278 0-7.746 3.473-7.746 7.758s3.468 7.758 7.746 7.758h57.665c2.296 0 3.443 1.15 3.443 3.448 0 2.299-1.147 3.448-3.443 3.448h-13.77a4.307 4.307 0 0 0-4.304 4.31c0 2.38 1.927 4.31 4.304 4.31h117.913a4.307 4.307 0 0 0 4.303-4.31c0-2.38-1.926-4.31-4.303-4.31h-10.328z"/>
        <path fill="#F4F0ED" d="M129.894 25.736c-2.73 0-4.095 1.04-4.095 3.121s1.365 3.122 4.095 3.122h23.546c2.827 0 5.119 2.329 5.119 5.202 0 2.874-2.292 5.203-5.12 5.203h-35.83c-2.827 0-5.12-2.33-5.12-5.203s2.293-5.202 5.12-5.202h1.023c2.73 0 4.095-1.04 4.095-3.122 0-2.08-1.365-3.121-4.095-3.121H96.11c-2.827 0-5.119-2.33-5.119-5.203s2.292-5.203 5.119-5.203h35.831c2.827 0 5.119 2.33 5.119 5.203s-2.292 5.203-5.119 5.203h-2.047zm17.685-10.406a5.07 5.07 0 0 1 5.067 5.073 5.07 5.07 0 0 1-5.067 5.072 5.07 5.07 0 0 1-5.068-5.072 5.07 5.07 0 0 1 5.068-5.073z" opacity=".7"/>
        <path fill="#F4F0ED" d="M70.635 55.813c-1.985 0-2.978.757-2.978 2.27 0 1.514.993 2.27 2.978 2.27h9.754c2.056 0 3.722 1.694 3.722 3.784s-1.666 3.784-3.722 3.784H61.7c-2.056 0-3.723-1.694-3.723-3.784s1.667-3.784 3.723-3.784h.744c1.986 0 2.978-.756 2.978-2.27 0-1.513-.992-2.27-2.978-2.27h-16.38c-2.056 0-3.723-1.694-3.723-3.784s1.667-3.783 3.723-3.783h26.06c2.055 0 3.722 1.694 3.722 3.783 0 2.09-1.667 3.784-3.723 3.784h-1.489zm20.847 4.73a3.687 3.687 0 0 1 3.686 3.689c0 2.037-1.65 3.689-3.686 3.689a3.687 3.687 0 0 1-3.685-3.69c0-2.037 1.65-3.688 3.685-3.688z" opacity=".5"/>
        <path fill="#F4F0ED" d="M178.829 70.434c2.238 0 3.358-.851 3.358-2.554 0-1.703-1.12-2.554-3.358-2.554h-14.271c-2.318 0-4.198-1.906-4.198-4.257 0-2.35 1.88-4.257 4.198-4.257h24.345c2.318 0 4.197 1.906 4.197 4.257s-1.88 4.257-4.197 4.257h-.84c-2.239 0-3.358.851-3.358 2.554 0 1.703 1.12 2.554 3.358 2.554h18.469c2.318 0 4.197 1.906 4.197 4.257 0 2.35-1.88 4.256-4.197 4.256H177.15c-2.318 0-4.198-1.906-4.198-4.256 0-2.351 1.88-4.257 4.198-4.257h1.679zm-14.169 8.513a4.302 4.302 0 0 1-4.3-4.304 4.302 4.302 0 0 1 4.3-4.304c2.375 0 4.3 1.927 4.3 4.304a4.302 4.302 0 0 1-4.3 4.304z" opacity=".7"/>
        <g fill-rule="nonzero">
            <path fill="#D7DEED" d="M178.982 120.294l-10.173 10.173 25.872 25.872 10.173-10.173z"/>
            <path fill="#C7CFE2" d="M188.09 129.395a84.026 84.026 0 0 1-10.173 10.183l-9.099-9.108 10.173-10.183 9.099 9.108z"/>
            <path fill="#D7DEED" d="M124.2 0c41.726 0 75.551 33.859 75.551 75.626 0 41.766-33.825 75.625-75.551 75.625s-75.551-33.859-75.551-75.625C48.649 33.859 82.474 0 124.199 0zm0 139.31c35.137 0 63.622-28.512 63.622-63.684S159.337 11.941 124.2 11.941c-35.138 0-63.622 28.513-63.622 63.685 0 35.171 28.484 63.685 63.622 63.685z"/>
            <path fill="#707487" d="M238.95 199.52l8.435-8.442a7.967 7.967 0 0 0 0-11.259l-37.552-38.177a7.948 7.948 0 0 0-11.246 0l-8.436 8.442a7.967 7.967 0 0 0 0 11.259l37.552 38.177a7.947 7.947 0 0 0 11.246 0z"/>
            <path fill="#5B5D6E" d="M239.433 187.78l-37.552-38.177a7.947 7.947 0 0 0-11.247 0l-.492.491 8.445-8.452a7.948 7.948 0 0 1 11.246 0l37.553 38.178a7.966 7.966 0 0 1 0 11.258l-7.947 7.953a7.965 7.965 0 0 0-.006-11.251z"/>
            <path fill="#C7CFE2" d="M195.05 166.248l-4.9-4.905a7.966 7.966 0 0 1 .001-11.258l8.436-8.443a7.948 7.948 0 0 1 11.247 0l4.899 4.905-19.682 19.7z"/>
            <path fill="#AFB9D2" d="M206.78 154.507l-4.899-4.904a7.947 7.947 0 0 0-11.246 0l-.491.49c.003-.002.004-.006.007-.009l8.436-8.442a7.948 7.948 0 0 1 11.247 0l4.899 4.904-7.952 7.961z"/>
        </g>
    </g>
</svg>
