<svg xmlns="http://www.w3.org/2000/svg" width="300" height="55" viewBox="0 0 300 55">
    <g fill="none" fill-rule="evenodd">
        <path fill="#231F20" d="M290.23 35.425c-.396 2.283-1 4.266-1.814 5.948-.814 1.683-1.826 3.004-3.034 3.966-1.21.962-2.628 1.442-4.256 1.442-1.629 0-3.047-.48-4.256-1.442-1.21-.962-2.22-2.283-3.035-3.966-.814-1.682-1.42-3.665-1.813-5.948-.396-2.283-.593-4.722-.593-7.318 0-2.596.197-5.035.593-7.318.394-2.283.999-4.254 1.813-5.913.814-1.658 1.825-2.967 3.035-3.93 1.209-.96 2.627-1.441 4.256-1.441 1.578 0 2.972.481 4.182 1.442 1.208.962 2.22 2.271 3.034 3.93.814 1.658 1.43 3.63 1.85 5.912.42 2.283.63 4.722.63 7.318 0 2.596-.198 5.035-.592 7.318m8.475-18.277c-.864-3.269-2.11-6.08-3.738-8.436-1.628-2.355-3.615-4.17-5.959-5.444-2.344-1.272-4.972-1.91-7.882-1.91-1.104 0-2.164.088-3.182.266v8.624h-11.695c-1.16 2.016-2.075 4.312-2.74 6.9-.839 3.269-1.257 6.921-1.257 10.959 0 4.038.43 7.703 1.295 10.995.863 3.293 2.11 6.117 3.737 8.472 1.63 2.355 3.602 4.182 5.922 5.48 2.319 1.297 4.96 1.946 7.92 1.946 2.91 0 5.538-.649 7.882-1.947 2.344-1.297 4.33-3.124 5.959-5.48 1.628-2.354 2.874-5.178 3.738-8.471.862-3.292 1.295-6.957 1.295-10.995 0-4.038-.433-7.69-1.295-10.96M244.83 35.175c-.552 2.261-1.332 4.147-2.341 5.654-1.009 1.508-2.21 2.64-3.602 3.393-1.394.754-2.907 1.13-4.54 1.13h-4.106V9.018h4.107c1.632 0 3.145.378 4.539 1.131 1.392.755 2.593 1.886 3.602 3.393 1.009 1.508 1.789 3.405 2.342 5.69.551 2.288.828 4.962.828 8.027 0 3.016-.277 5.654-.828 7.916m4.394-26.996c-3.386-4.547-8.346-6.821-14.877-6.821h-12.825v43.996h8.718v7.66h4.035c6.58 0 11.563-2.25 14.95-6.75 3.386-4.498 5.079-10.834 5.079-19.005 0-8.172-1.693-14.531-5.08-19.08M204.154 38.056h-.188L189.654 1.358h-9.853v43.996h7.68v-28.82h.16l14.455 36.48h9.493V9.175h-7.435z"/>
        <path fill="#FEC32F" d="M164.478 45.634l-7.782-36.16-7.753 36.16z"/>
        <path fill="#231F20" d="M154.861 1.358l11.022 51.655h8.951L162.23 1.358zM148.694 45.634h-8.628l8.93-36.16h7.345zM131.291 11.54c-1.891-2.259-4.268-3.389-7.129-3.389-.825 0-1.625.133-2.4.397a5.936 5.936 0 0 0-2.11 1.261c-.631.577-1.128 1.323-1.492 2.236-.363.913-.545 1.995-.545 3.244 0 2.163.655 3.834 1.964 5.01 1.31 1.18 3.03 2.297 5.165 3.353a45.527 45.527 0 0 1 3.856 2.163 17.378 17.378 0 0 1 3.564 2.957c1.066 1.153 1.94 2.523 2.62 4.11.678 1.586 1.018 3.46 1.018 5.623 0 2.5-.4 4.711-1.2 6.633-.801 1.923-1.868 3.545-3.202 4.867a13.134 13.134 0 0 1-4.692 2.992 16.038 16.038 0 0 1-5.674 1.01c-2.862 0-5.505-.554-7.93-1.659s-4.364-2.499-5.82-4.181l4.73-6.345a12.026 12.026 0 0 0 4.037 3.172c1.575.77 3.188 1.154 4.838 1.154 1.842 0 3.37-.624 4.583-1.875 1.211-1.25 1.818-3.004 1.818-5.263 0-2.21-.727-3.966-2.182-5.264-1.455-1.297-3.299-2.498-5.529-3.605a32.865 32.865 0 0 1-3.965-2.234 15.085 15.085 0 0 1-3.273-2.92c-.946-1.13-1.698-2.452-2.255-3.966-.558-1.514-.837-3.328-.837-5.444 0-2.643.424-4.914 1.273-6.813.848-1.898 1.964-3.472 3.347-4.723a13.479 13.479 0 0 1 4.692-2.776c1.746-.6 3.515-.9 5.31-.9 2.62 0 4.958.42 7.02 1.26 2.06.842 3.794 2.08 5.202 3.714l-4.802 6.2zM91.902 38.056h-.188L77.403 1.358H67.55v43.996h7.68v-28.82h.159l14.455 36.48h9.494V9.175h-7.436zM44.146 46.099h15.457v7.908H35.762V9.515h8.384v13.894H57.78v7.243H44.146v15.447zm.556-36.584V1.358h14.9v8.157h-14.9zM18.598 23.348c-1.313 1.451-2.99 2.176-5.033 2.176h-4.96V8.92h4.96c2.042 0 3.72.64 5.033 1.92 1.312 1.278 1.969 3.32 1.969 6.124 0 2.806-.657 4.933-1.97 6.385m8.865-13.91c-.898-1.976-2.037-3.57-3.42-4.782A12.013 12.013 0 0 0 19.351 2.1c-1.746-.493-3.444-.741-5.093-.741H0V46.06h8.606V32.789h6.105c1.79 0 3.536-.32 5.231-.964 1.696-.642 3.198-1.63 4.506-2.965 1.308-1.334 2.361-3.002 3.161-5.004.799-2.001 1.199-4.336 1.199-7.005 0-2.965-.449-5.436-1.346-7.413"/>
    </g>
</svg>
