<?xml version="1.0" encoding="UTF-8"?>
<svg width="20px" height="20px" viewBox="0 0 20 20" version="1.1" xmlns="http://www.w3.org/2000/svg" xmlns:xlink="http://www.w3.org/1999/xlink">
    <!-- Generator: Sketch 55.2 (78181) - https://sketchapp.com -->
    <title>icon / ic_audit-black</title>
    <desc>Created with Sketch.</desc>
    <g id="Symbols" stroke="none" stroke-width="1" fill="none" fill-rule="evenodd">
        <g id="icon-/-audit" fill="#000000" fill-rule="nonzero">
            <path d="M14.8571429,4.69425733 C14.519647,4.63562104 14.1762422,4.60713264 13.8309447,4.60986066 C13.5035004,4.60727369 13.1777581,4.63275856 12.8571429,4.68540409 L12.8571429,2 L2,2 L2,18 L12.8571429,18 L12.8571429,16.2295227 C13.1776182,16.2831282 13.5033945,16.3091718 13.8309447,16.3066967 C14.1763535,16.309399 14.5197983,16.2803873 14.8571429,16.2207826 L14.8571429,18 C14.8571429,19.1 13.9671429,20 12.8571429,20 L2,20 C0.9,20 2.81552559e-13,19.1 2.81552559e-13,18 L2.79776202e-13,2 C2.79776202e-13,0.9 0.9,0 2,0 L12.8571429,0 C13.9671429,0 14.8571429,0.9 14.8571429,2 L14.8571429,4.69425733 Z M20,15.7006188 L18.9790874,16.7115737 L16.8533442,14.4874728 L16.8533442,13.958177 L16.6587829,13.7813922 C16.2769129,14.115219 15.834278,14.3738981 15.3545804,14.5435782 C14.8628319,14.720363 14.3518411,14.8082261 13.822677,14.8082261 C13.0462598,14.8145117 12.282262,14.6151417 11.6098088,14.2307644 C10.9490491,13.8595807 10.3985937,13.3227089 10.0137643,12.6741054 C9.6162007,12.0084316 9.40889974,11.2482406 9.41395147,10.4748814 C9.41395147,9.68358423 9.61127887,8.95315604 10.0057467,8.28412616 C10.3897631,7.6258305 10.943521,7.08039646 11.6103433,6.70364893 C12.2825874,6.31917796 13.0463915,6.11962762 13.822677,6.12565793 C14.6223028,6.12565793 15.3620635,6.32361455 16.0430283,6.7195278 C16.6954175,7.09800883 17.2350155,7.64074404 17.6070022,8.29259489 C17.9907799,8.95580252 18.1826687,9.68358423 18.1826687,10.4748814 C18.1826687,11.0099995 18.0934056,11.5207699 17.9154141,12.007722 C17.7439633,12.4829693 17.4825501,12.9214742 17.1451863,13.2997331 L17.3231778,13.4923967 L17.8742568,13.4923967 L20,15.7006188 Z M13.8335925,13.7709091 C14.4041535,13.7753728 14.9650251,13.6233723 15.4552565,13.3314256 C15.9421274,13.0458923 16.3463949,12.6386788 16.6283859,12.1497478 C16.9151981,11.657577 17.0640634,11.0972041 17.0593211,10.5275807 C17.0638825,9.95829792 16.9150234,9.39829598 16.6283859,8.90641934 C16.3477099,8.41871045 15.9429654,8.01396593 15.4552565,7.73328985 C14.9632828,7.44638918 14.4030923,7.29735243 13.8335925,7.30185175 C13.2640928,7.29735243 12.7039023,7.44638918 12.2119285,7.73328985 C11.7229975,8.01528085 11.3157841,8.41954846 11.0302509,8.90641934 C10.7382169,9.39645369 10.5860448,9.95714252 10.5902645,10.5275807 C10.5902645,11.1143969 10.7365914,11.6549516 11.0302509,12.1492449 C11.317078,12.6373469 11.7238267,13.0440956 12.2119285,13.3309227 C12.7021091,13.6230455 13.262984,13.7752209 13.8335925,13.7709091 Z M13.3230504,10.7727986 L14.9487413,9.05052793 L15.6759437,9.73695101 L13.3351945,12.2167605 L11.9438825,10.7915952 L12.6594368,10.0930381 L13.3230504,10.7727986 Z" id="Combined-Shape"></path>
        </g>
    </g>
</svg>