<?xml version="1.0" encoding="UTF-8"?>
<svg width="36px" height="36px" viewBox="0 0 36 36" version="1.1" xmlns="http://www.w3.org/2000/svg" xmlns:xlink="http://www.w3.org/1999/xlink">
    <!-- Generator: Sketch 53.2 (72643) - https://sketchapp.com -->
    <title>table filter</title>
    <desc>Created with Sketch.</desc>
    <g id="use" stroke="none" stroke-width="1" fill="none" fill-rule="evenodd">
        <g id="table-filter" transform="translate(-1291.000000, -527.000000)">
            <g id="ic_audit_w_24px" transform="translate(1291.000000, 527.000000)">
                <path d="M24.4130495,21.8854087 L24.4130495,27 C24.4130495,27.5522847 23.9653343,28 23.4130495,28 L10,28 C9.44771525,28 9,27.5522847 9,27 L9,9 C9,8.44771525 9.44771525,8 10,8 L23.4130495,8 C23.9653343,8 24.4130495,8.44771525 24.4130495,9 L24.4130495,13.0960717 C24.8565475,13.387315 25.2538696,13.7426087 25.5902716,14.1514544 C26.1946943,14.8770461 26.5744937,15.7170204 26.7294626,16.6701024 C26.8342609,17.314628 26.8239177,17.9468564 26.6991975,18.5673233 C26.5802726,19.1724444 26.3429141,19.7504728 25.9998442,20.2704265 L26.2576614,20.4685263 L26.9390678,20.3633986 L30,22.6175813 L28.9356338,24.0299875 L25.8715918,21.7566794 L25.7679337,21.1191664 L25.4927378,20.943353 C25.1814744,21.3067413 24.8176073,21.6239262 24.4130495,21.8854087 Z M23.4497339,22.3795071 C23.0469866,22.5396692 22.6259228,22.6534468 22.187004,22.7211634 C21.2281991,22.8768489 20.2444748,22.7824622 19.3377128,22.4477788 C18.4479936,22.126756 17.6622165,21.5851267 17.0593534,20.8773257 C16.4374015,20.1513934 16.0321979,19.2753237 15.8871041,18.3428658 C15.7321352,17.3897839 15.8329657,16.4723903 16.1896993,15.5913225 C16.5356121,14.7251773 17.1135121,13.9625879 17.8642518,13.3816047 C18.6201827,12.7902848 19.5255424,12.4042268 20.4865964,12.2634004 C21.4753296,12.1108583 22.4288081,12.2081662 23.3483538,12.5551204 C23.3823082,12.567896 23.416103,12.5809976 23.4497339,12.594422 L23.4497339,9.95238095 C23.4497339,9.4000962 23.0020187,8.95238095 22.4497339,8.95238095 L10.9633156,8.95238095 C10.4110308,8.95238095 9.96331559,9.4000962 9.96331559,9.95238095 L9.96331559,26.047619 C9.96331559,26.5999038 10.4110308,27.047619 10.9633156,27.047619 L22.4497339,27.047619 C23.0020187,27.047619 23.4497339,26.5999038 23.4497339,26.047619 L23.4497339,22.3795071 Z M23.5182783,21.3884591 C24.1956112,20.9912262 24.7580268,20.4247123 25.1503316,19.7445132 C25.5493438,19.059807 25.7564447,18.2802182 25.7498472,17.4877602 C25.7561929,16.695776 25.5491007,15.9167033 25.1503316,15.2324063 C24.7598561,14.5539075 24.1967771,13.9908283 23.5182783,13.6003528 C22.8338461,13.2012176 22.0545111,12.9938782 21.2622252,13.0001376 C20.4699392,12.9938782 19.6906042,13.2012176 19.006172,13.6003528 C18.3259729,13.9926576 17.7594592,14.5550733 17.3622263,15.2324063 C16.9559496,15.9141403 16.7442484,16.6941686 16.7501189,17.4877602 C16.7501189,18.3041367 16.9536883,19.0561546 17.3622263,19.7438136 C17.7612591,20.4228593 18.3271264,20.9887267 19.006172,21.3877595 C19.6881095,21.7941597 20.4683966,22.0058655 21.2622252,21.9998671 C22.0559875,22.0060769 22.83627,21.7946143 23.5182783,21.3884591 Z" id="Shape" fill="#FFFFFF" fill-rule="nonzero"></path>
                <polygon id="Path" fill="#FFFFFF" fill-rule="nonzero" points="20.7857143 19.5 19 17.5796928 19.5053571 17.0362458 20.7857143 18.4131061 23.4946429 15.5 24 16.043447"></polygon>
                <polygon id="Shape" points="0 0 36 0 36 36 0 36"></polygon>
            </g>
        </g>
    </g>
</svg>