<?xml version="1.0" encoding="UTF-8"?>
<svg width="20px" height="20px" viewBox="0 0 20 20" version="1.1" xmlns="http://www.w3.org/2000/svg" xmlns:xlink="http://www.w3.org/1999/xlink">
    <!-- Generator: Sketch 55.2 (78181) - https://sketchapp.com -->
    <title>icon / ic_tech_support-black</title>
    <desc>Created with Sketch.</desc>
    <g id="Symbols" stroke="none" stroke-width="1" fill="none" fill-rule="evenodd">
        <g id="icon-/-tech-support" fill="#000000" fill-rule="nonzero">
            <path d="M10.6786648,12.0009711 C10.5622699,12.4050862 10.5,12.8313951 10.5,13.2727273 L10.5,15.8181818 C10.5,16.2468133 10.6053281,16.6476973 10.7910426,17 L1,17 L1,15.25 C1,12.9225 5.88583333,11.75 8.33333333,11.75 C8.98752721,11.75 9.8159261,11.8337684 10.6786648,12.0009711 Z M8.33333333,10 C6.3075,10 4.66666667,8.43375 4.66666667,6.5 C4.66666667,4.56625 6.3075,3 8.33333333,3 C10.3591667,3 12,4.56625 12,6.5 C12,8.43375 10.3591667,10 8.33333333,10 Z M15.5,10 C17.4327778,10 19,11.4654545 19,13.2727273 L19,16.9090909 C19,17.5127273 18.4788889,18 17.8333333,18 L15.5,18 L15.5,17.2727273 L18.2222222,17.2727273 L18.2222222,16.9090909 L16.6666667,16.9090909 L16.6666667,14 L18.2222222,14 L18.2222222,13.2727273 C18.2222222,11.8654545 17.005,10.7272727 15.5,10.7272727 C13.995,10.7272727 12.7777778,11.8654545 12.7777778,13.2727273 L12.7777778,14 L14.3333333,14 L14.3333333,16.9090909 L13.1666667,16.9090909 C12.5211111,16.9090909 12,16.4218182 12,15.8181818 L12,13.2727273 C12,11.4654545 13.5672222,10 15.5,10 Z" id="Combined-Shape"></path>
        </g>
    </g>
</svg>