<?xml version="1.0" encoding="UTF-8"?>
<svg fill="currentcolor" width="36px" height="36px" viewBox="0 0 36 36" version="1.1" xmlns="http://www.w3.org/2000/svg" xmlns:xlink="http://www.w3.org/1999/xlink">
    <!-- Generator: Sketch 53.2 (72643) - https://sketchapp.com -->
    <title>table filter</title>
    <desc>Created with Sketch.</desc>
    <g id="use" stroke="none" stroke-width="1" fill="none" fill-rule="evenodd">
        <g id="table-filter" transform="translate(-1250.000000, -486.000000)">
            <g id="ic_tech_support_24px" transform="translate(1250.000000, 486.000000)">
                <path d="M18,3 C26.28,3 33,9.72 33,18 C33,26.28 26.28,33 18,33 C9.72,33 3,26.28 3,18 C3,9.72 9.72,3 18,3 Z M15.0833547,16.9497496 L12.6956177,16.9497496 C12.6430861,16.9497496 12.6005008,16.9071643 12.6005008,16.8546327 L12.6005008,16.8319397 L12.6005008,14.6829268 L13.1591028,14.6829268 C12.8668875,14.0034253 12.701628,13.0715437 12.701628,11.7940855 C12.701628,8.69101097 15.2333333,6.5 18,6.5 C20.7666667,6.5 23.124636,8.73494448 23.124636,11.501629 C23.124636,12.9016443 23.0151913,13.9304168 22.8157939,14.6829268 L23.9215658,14.6829268 C24.5304597,14.6829268 25.0240658,14.1893208 25.0240658,13.5804268 L25.0240658,10.4195732 C25.0240658,9.81067923 24.5304597,9.31707317 23.9215658,9.31707317 L23.0408786,9.31707317 C22.4526615,7.12361093 20.2881618,5.5 17.9987301,5.5 C15.7092984,5.5 13.525553,7.12361093 12.9316637,9.31707317 L12.0753576,9.31707317 C11.4664636,9.31707317 10.9728576,9.81067923 10.9728576,10.4195732 L10.9728576,13.5804268 C10.9728576,14.163993 11.4262533,14.641663 12,14.6803919 L12,17.0286769 C12.0378158,17.1762256 12.0970072,17.2952498 12.1775741,17.3857495 C12.2581411,17.4762491 12.3991166,17.5310828 12.6005008,17.5502504 L15.0833547,17.5502504 C15.2377422,17.8150024 15.5900654,18 16,18 C16.5522847,18 17,17.6642136 17,17.25 C17,16.8357864 16.5522847,16.5 16,16.5 C15.5900654,16.5 15.2377422,16.6849976 15.0833547,16.9497496 Z M18,7.5 C15.51,7.5 13.5,9.51 13.5,12 C13.5,14.49 15.51,16.5 18,16.5 C20.49,16.5 22.5,14.49 22.5,12 C22.5,9.51 20.49,7.5 18,7.5 Z M18,28.8 C21.75,28.8 25.065,26.88 27,23.97 C26.955,20.985 20.985,19.35 18,19.35 C15,19.35 9.045,20.985 9,23.97 C10.935,26.88 14.25,28.8 18,28.8 Z" id="Shape" fill="#fff" fill-rule="nonzero"></path>
                <polygon id="Shape" points="0 0 36 0 36 36 0 36"></polygon>
            </g>
        </g>
    </g>
</svg>