<?xml version="1.0" encoding="UTF-8"?>
<svg width="36px" height="36px" viewBox="0 0 36 36" version="1.1" xmlns="http://www.w3.org/2000/svg" xmlns:xlink="http://www.w3.org/1999/xlink">
    <!-- Generator: Sketch 53.2 (72643) - https://sketchapp.com -->
    <title>table filter</title>
    <desc>Created with Sketch.</desc>
    <g id="use" stroke="none" stroke-width="1" fill="none" fill-rule="evenodd">
        <g id="table-filter" transform="translate(-1250.000000, -527.000000)">
            <g id="ic_tech_support_w_24px" transform="translate(1250.000000, 527.000000)">
                <path d="M18,7.5 C20.49,7.5 22.5,9.51 22.5,12 C22.5,14.49 20.49,16.5 18,16.5 C15.51,16.5 13.5,14.49 13.5,12 C13.5,9.51 15.51,7.5 18,7.5 Z" id="Combined-Shape" fill="#FFFFFF" fill-rule="nonzero"></path>
                <path d="M15.0833547,16.9497496 C15.2377422,16.6849976 15.5900654,16.5 16,16.5 C16.5522847,16.5 17,16.8357864 17,17.25 C17,17.6642136 16.5522847,18 16,18 C15.5900654,18 15.2377422,17.8150024 15.0833547,17.5502504 L12.6005008,17.5502504 C12.3991166,17.5310828 12.2581411,17.4762491 12.1775741,17.3857495 C12.0970072,17.2952498 12.0378158,17.1762256 12,17.0286769 L12,14.6803919 C11.4262533,14.641663 10.9728576,14.163993 10.9728576,13.5804268 L10.9728576,10.4195732 C10.9728576,9.81067923 11.4664636,9.31707317 12.0753576,9.31707317 L12.9316637,9.31707317 C13.525553,7.12361093 15.7092984,5.5 17.9987301,5.5 C20.2881618,5.5 22.4526615,7.12361093 23.0408786,9.31707317 L23.9215658,9.31707317 C24.5304597,9.31707317 25.0240658,9.81067923 25.0240658,10.4195732 L25.0240658,13.5804268 C25.0240658,14.1893208 24.5304597,14.6829268 23.9215658,14.6829268 L22.8157939,14.6829268 C23.0151913,13.9304168 23.124636,12.9016443 23.124636,11.501629 C23.124636,8.73494448 20.7666667,6.5 18,6.5 C15.2333333,6.5 12.701628,8.69101097 12.701628,11.7940855 C12.701628,13.0715437 12.8668875,14.0034253 13.1591028,14.6829268 L12.6005008,14.6829268 L12.6005008,16.8319397 L12.6005008,16.8546327 C12.6005008,16.9071643 12.6430861,16.9497496 12.6956177,16.9497496 L15.0833547,16.9497496 Z" id="Combined-Shape" fill="#FFFFFF"></path>
                <path d="M18,28.8 C14.25,28.8 10.935,26.88 9,23.97 C9.045,20.985 15,19.35 18,19.35 C20.985,19.35 26.955,20.985 27,23.97 C25.065,26.88 21.75,28.8 18,28.8 Z" id="Path" fill="#FFFFFF" fill-rule="nonzero"></path>
                <polygon id="Shape" points="0 0 36 0 36 36 0 36"></polygon>
            </g>
        </g>
    </g>
</svg>