<?xml version="1.0" encoding="UTF-8"?>
<svg width="24px" height="25px" viewBox="0 0 24 25" version="1.1" xmlns="http://www.w3.org/2000/svg" xmlns:xlink="http://www.w3.org/1999/xlink">
    <!-- Generator: Sketch 64 (93537) - https://sketch.com -->
    <title>ico-arch-log-b</title>
    <desc>Created with Sketch.</desc>
    <g id="Page-1" stroke="none" stroke-width="1" fill="none" fill-rule="evenodd">
        <g id="ico-arch-log" transform="translate(3.000000, 2.369843)"></g>
        <polygon id="Path" points="0 0.369842989 24 0.369842989 24 24.369843 0 24.369843"></polygon>
        <path d="M8,2.36984299 L8,4.36984299 L16,4.36984299 L16,2.36984299 L18,2.36984299 L18,4.36984299 L19,4.36984299 C20.05,4.36984299 20.9177686,5.18988431 20.9944872,6.2211484 L21,6.36984299 L21,20.369843 C21,21.419843 20.1799587,22.2876116 19.1486946,22.3643302 L19,22.369843 L5,22.369843 C3.94045455,22.369843 3.08136364,21.5498017 3.00545361,20.5185376 L3,20.369843 L3.01,6.36984299 C3.01,5.31984299 3.81181818,4.45207439 4.85012303,4.37535576 L5,4.36984299 L6,4.36984299 L6,2.36984299 L8,2.36984299 Z M19,9.36984299 L5,9.36984299 L5,20.369843 L19,20.369843 L19,9.36984299 Z M13.1745423,15.869843 L13.1745423,17.869843 L7.3018308,17.869843 L7.3018308,15.869843 L13.1745423,15.869843 Z M16.6981692,11.869843 L16.6981692,13.869843 L7.3018308,13.869843 L7.3018308,11.869843 L16.6981692,11.869843 Z" id="Shape" fill="#FFFFFF"></path>
    </g>
</svg>