<svg xmlns="http://www.w3.org/2000/svg" width="20" height="20" viewBox="0 0 20 20">
    <g fill="none" fill-rule="evenodd">
        <path d="M-2-2h24v24H-2z"/>
        <path fill="#FFF" d="M15.828 13.918l3.977 4.172-1.91 1.91-3.977-4.202v-1l-.364-.334a7.498 7.498 0 0 1-2.44 1.44c-.92.334-1.876.5-2.866.5a8.148 8.148 0 0 1-4.14-1.091 8.097 8.097 0 0 1-2.986-2.941A8.058 8.058 0 0 1 0 8.217c0-1.495.369-2.875 1.107-4.139a8.106 8.106 0 0 1 3.002-2.986A8.148 8.148 0 0 1 8.248 0c1.496 0 2.88.374 4.154 1.122a8.014 8.014 0 0 1 2.926 2.972c.718 1.253 1.077 2.628 1.077 4.123 0 1.011-.167 1.976-.5 2.896a7.498 7.498 0 0 1-1.441 2.441l.333.364h1.031zm-7.578.747a6.208 6.208 0 0 0 3.225-.874 6.474 6.474 0 0 0 2.333-2.35 6.303 6.303 0 0 0 .857-3.226 6.303 6.303 0 0 0-.857-3.224 6.341 6.341 0 0 0-2.333-2.333A6.303 6.303 0 0 0 8.25 1.8a6.303 6.303 0 0 0-3.225.858 6.474 6.474 0 0 0-2.35 2.333A6.208 6.208 0 0 0 1.8 8.215c0 1.167.291 2.242.875 3.225a6.61 6.61 0 0 0 2.35 2.35 6.208 6.208 0 0 0 3.225.875zm2.882-6.105l.9.68c.04.04.063.087.07.14.007.053-.003.093-.03.12l-.82 1.46a.294.294 0 0 1-.13.1c-.06.027-.103.033-.13.02l-1.02-.44a2.16 2.16 0 0 1-.34.22c-.453.24-.573.3-.36.18l-.16 1.12c0 .107-.08.16-.24.16h-1.64c-.16 0-.24-.053-.24-.16l-.14-1.12a3.967 3.967 0 0 1-.72-.4l-1 .44a.226.226 0 0 1-.16-.02.302.302 0 0 1-.12-.1l-.82-1.46c-.027-.027-.037-.067-.03-.12.007-.053.03-.1.07-.14l.9-.68-.04-.42.04-.4-.9-.7c-.08-.08-.093-.167-.04-.26l.82-1.46c.013-.04.053-.07.12-.09.067-.02.12-.017.16.01l1 .44c.32-.213.56-.36.72-.44l.14-1.08c0-.107.08-.16.24-.16h1.64c.16 0 .24.053.24.16l.16 1.08c.107.053.227.12.36.2l.34.24 1.02-.44a.286.286 0 0 1 .15 0c.047.013.083.04.11.08l.82 1.46c.053.093.04.18-.04.26l-.9.7c.027.08.04.213.04.4l-.04.42zm-3.08.84c.347 0 .643-.123.89-.37s.37-.543.37-.89-.123-.643-.37-.89a1.213 1.213 0 0 0-.89-.37c-.347 0-.64.123-.88.37a1.23 1.23 0 0 0-.36.89c0 .347.12.643.36.89s.533.37.88.37z"/>
    </g>
</svg>
