<svg xmlns="http://www.w3.org/2000/svg" width="24" height="21" viewBox="0 0 24 21">
    <g fill="none" fill-rule="evenodd">
        <path d="M0-2h24v24H0z"/>
        <path fill="#FFF" d="M21 .616c.544 0 1.016.192 1.416.576.4.384.6.848.6 1.392v12c0 .544-.2 1.016-.6 1.416-.4.4-.872.6-1.416.6h-6.984v2.016h1.968v1.968H8.016v-1.968h1.968V16.6H3c-.544 0-1.016-.2-1.416-.6-.4-.4-.6-.872-.6-1.416v-12c0-.544.2-1.008.6-1.392.4-.384.872-.576 1.416-.576h18zm0 13.968v-12H3v12h18zM15.132 8.76l.9.68c.04.04.063.087.07.14.007.053-.003.093-.03.12l-.82 1.46a.294.294 0 0 1-.13.1c-.06.027-.103.033-.13.02l-1.02-.44a2.16 2.16 0 0 1-.34.22c-.453.24-.573.3-.36.18l-.16 1.12c0 .107-.08.16-.24.16h-1.64c-.16 0-.24-.053-.24-.16l-.14-1.12a3.967 3.967 0 0 1-.72-.4l-1 .44a.226.226 0 0 1-.16-.02.302.302 0 0 1-.12-.1l-.82-1.46c-.027-.027-.037-.067-.03-.12.007-.053.03-.1.07-.14l.9-.68-.04-.42.04-.4-.9-.7c-.08-.08-.093-.167-.04-.26l.82-1.46c.013-.04.053-.07.12-.09.067-.02.12-.017.16.01l1 .44c.32-.213.56-.36.72-.44l.14-1.08c0-.107.08-.16.24-.16h1.64c.16 0 .24.053.24.16l.16 1.08c.107.053.227.12.36.2l.34.24 1.02-.44a.286.286 0 0 1 .15 0c.047.013.083.04.11.08l.82 1.46c.053.093.04.18-.04.26l-.9.7c.027.08.04.213.04.4l-.04.42zm-3.08.84c.347 0 .643-.123.89-.37s.37-.543.37-.89-.123-.643-.37-.89a1.213 1.213 0 0 0-.89-.37c-.347 0-.64.123-.88.37a1.23 1.23 0 0 0-.36.89c0 .347.12.643.36.89s.533.37.88.37z"/>
    </g>
</svg>
