<?xml version="1.0" encoding="UTF-8"?>
<svg width="19px" height="21px" viewBox="0 0 19 21" version="1.1" xmlns="http://www.w3.org/2000/svg" xmlns:xlink="http://www.w3.org/1999/xlink">
    <!-- Generator: sketchtool 48.2 (47327) - http://www.bohemiancoding.com/sketch -->
    <title>640A0C80-91AD-4C45-BD14-158AEE1A8615</title>
    <desc>Created with sketchtool.</desc>
    <defs></defs>
    <g id="Pensando-custom-icon-library" stroke="none" stroke-width="1" fill="none" fill-rule="evenodd" transform="translate(-137.000000, -529.000000)">
        <g id="ico-exportPolicy" transform="translate(134.000000, 527.000000)">
            <rect id="Rectangle-45" x="0" y="0" width="24" height="24"></rect>
            <path d="M18,18 L18,15 L22,19 L18,23 L18,20 L14,20 L14,18 L18,18 Z M18.322138,11.5141674 L16.5195335,11.5064801 L16.5195335,3.8 L7.95716229,3.8 L4.80260447,8 L4.80260447,18.2 L10.473222,18.2 L10.473222,20 L3.90130223,20 C3.40352676,20 3,19.5970563 3,19.1 L3,7.7 C3,7.50526681 3.06325147,7.31578655 3.18026045,7.16 L6.78546938,2.36 C6.95568426,2.13337474 7.22281971,2 7.50651117,2 L17.4208357,2 C17.9186112,2 18.322138,2.40294373 18.322138,2.9 L18.322138,11.5141674 Z M6.69451409,10 L6.69451409,9.02768027 L8.89634086,5.9451228 L9.92857143,5.9451228 L9.92857143,10 L6.69451409,10 Z" id="Combined-Shape" fill="#FFF" fill-rule="nonzero"></path>
        </g>
    </g>
</svg>