<?xml version="1.0" encoding="UTF-8"?>
<svg width="19px" height="20px" viewBox="0 0 19 20" version="1.1" xmlns="http://www.w3.org/2000/svg" xmlns:xlink="http://www.w3.org/1999/xlink">
    <!-- Generator: sketchtool 50.2 (55047) - http://www.bohemiancoding.com/sketch -->
    <title>F11E5AEB-207C-4FD7-92EC-F62F433AF407</title>
    <desc>Created with sketchtool.</desc>
    <defs></defs>
    <g id="Page-1" stroke="none" stroke-width="1" fill="none" fill-rule="evenodd">
        <g id="Left-menu-icons---dropdown" transform="translate(-448.000000, -310.000000)">
            <g id="Group-Copy-2" transform="translate(420.000000, 60.000000)">
                <g id="firewall-policy" transform="translate(0.000000, 240.000000)">
                    <g id="icon-firewallPolicy" transform="translate(25.000000, 8.000000)">
                        <rect id="Rectangle-33" x="0" y="0" width="24" height="24"></rect>
                        <path d="M18.322138,8.41764182 C17.7233022,8.80952619 17.2825895,9.17031225 17,9.5 C16.830517,9.69773014 16.6703615,9.9397485 16.5195335,10.2260551 L16.5195335,3.8 L7.95716229,3.8 L4.80260447,8 L4.80260447,18.2 L11.0947146,18.2 C11.0315715,18.6907006 11,19.124034 11,19.5 C11,19.6747337 11.0068195,19.8414004 11.0204585,20 L3.90130223,20 C3.40352676,20 3,19.5970563 3,19.1 L3,7.7 C3,7.50526681 3.06325147,7.31578655 3.18026045,7.16 L6.78546938,2.36 C6.95568426,2.13337474 7.22281971,2 7.50651117,2 L17.4208357,2 C17.9186112,2 18.322138,2.40294373 18.322138,2.9 L18.322138,8.41764182 Z M6.69451409,10 L6.69451409,9.02768027 L8.89634086,5.9451228 L9.92857143,5.9451228 L9.92857143,10 L6.69451409,10 Z M15.9405371,21.6877238 C13.9356255,21.0953636 12.9559527,20.0245584 13.0015189,18.4753085 C13.0698681,16.1514336 14.666893,14.8504159 14.9152982,14.169305 C15.0809017,13.715231 15.1492509,13.2140031 15.120346,12.6656212 C16.1228018,13.7592094 16.6240298,14.7844484 16.6240298,15.741338 C16.7151621,13.2807646 17.467004,11.3669852 18.8795554,10 C18.4161845,10.4572446 18.5073168,11.5736159 19.1529525,13.3491138 C20.1214059,16.0123608 21.6135259,15.5362902 21.886923,18.2702607 C22.0691877,20.0929077 20.9755995,21.2320621 18.6061584,21.6877238 C19.1844528,20.7546716 19.503416,19.9800466 19.563048,19.3638489 C19.6226801,18.7476512 19.4404154,18.1097248 19.0162539,17.4500696 C18.7428569,18.9993195 18.2188459,19.8195107 17.4442209,19.910643 C16.6695959,20.0017754 16.3278496,19.4549813 16.418982,18.2702607 C15.7465589,18.731477 15.3820295,19.1643557 15.3253938,19.5688967 C15.268758,19.9734377 15.4738058,20.6797134 15.9405371,21.6877238 Z" id="Combined-Shape" fill="#000" fill-rule="nonzero"></path>
                    </g>
                </g>
            </g>
        </g>
    </g>
</svg>