<?xml version="1.0" encoding="UTF-8"?>
<svg width="171px" height="170px" viewBox="0 0 171 170" version="1.1" xmlns="http://www.w3.org/2000/svg" xmlns:xlink="http://www.w3.org/1999/xlink">
    <!-- Generator: Sketch 64 (93537) - https://sketch.com -->
    <title>graph-card</title>
    <desc>Created with Sketch.</desc>
    <g id="Page-1" stroke="none" stroke-width="1" fill="none" fill-rule="evenodd">
        <g id="card" transform="translate(1.000000, 1.000000)" fill-rule="nonzero">
            <rect id="Rectangle" stroke="#979FBD" fill="#D7DEED" x="0" y="0" width="169" height="168" rx="1"></rect>
            <path d="M42,0 L52,0 L52,17 L42,17 L42,0 Z M22,152 L147,152 L147,168 L22,168 L22,152 Z M116,0 L126,0 L126,17 L116,17 L116,0 Z" id="Shape" fill="#979FBD"></path>
            <polygon id="Path" stroke="#979FBD" fill="#F6F9FF" points="17 17 152 17 152 152 17 152"></polygon>
            <path d="M36.2723317,38.5 C37.6968605,38.5 39.0575311,39.0354263 40.0645256,39.9932992 C41.0715201,40.9560841 41.6364195,42.2528966 41.6315073,43.6135672 L41.6315073,48.7222222 L138.086844,48.7222222 C141.048881,48.7222222 143.44602,51.0112926 143.44602,53.8308772 L143.44602,110.060468 C143.44602,112.880052 141.048881,115.169123 138.091756,115.169123 L100.577527,115.169123 L100.577527,120.277778 C100.577527,123.102275 98.1754765,125.391345 95.2183512,125.391345 L57.7041219,125.391345 C54.7469966,125.391345 52.3498585,123.102275 52.3498585,120.28269 L52.3498585,115.174035 L41.6315073,115.174035 L41.6315073,125.391345 C41.6315073,128.215842 39.229457,130.5 36.2723317,130.5 C33.3102942,130.5 30.9131561,128.215842 30.9131561,125.391345 L30.9131561,48.7222222 C27.9511186,48.7222222 25.5539805,46.438064 25.5539805,43.6135672 C25.5539805,40.7890704 27.9511186,38.5049122 30.9082439,38.5049122 L36.2723317,38.5049122 L36.2723317,38.5 Z M63.0632976,111.018341 L57.7090341,111.018341 L57.7090341,120.75917 L63.0632976,120.75917 L63.0632976,111.018341 Z M73.7816488,111.018341 L68.4273853,111.018341 L68.4273853,120.75917 L73.7816488,120.75917 L73.7816488,111.018341 Z M84.5,111.018341 L79.1457366,111.018341 L79.1457366,120.75917 L84.5,120.75917 L84.5,111.018341 Z M95.2183512,111.018341 L89.8542634,111.018341 L89.8542634,120.75917 L95.2085269,120.75917 L95.2085269,111.018341 L95.2183512,111.018341 Z M132.727668,58.9493566 L41.6315073,58.9493566 L41.6315073,104.946901 L132.727668,104.946901 L132.727668,58.9444444 L132.727668,58.9493566 Z M78.9394255,63.7387207 L78.9345133,68.3561589 L82.3730311,68.3561589 L82.3730311,63.7387207 L86.9904693,63.7387207 L86.9904693,68.3512467 L90.0654867,68.3512467 L90.0654867,63.7387207 L94.6780127,63.7387207 L94.6829249,68.7294837 L94.7959047,68.7786054 L95.0316888,68.8817609 L94.687837,68.7343959 C96.0766921,69.280208 97.1750826,70.3803787 97.7186449,71.7701159 L102.704496,71.7701159 L102.704496,76.3875541 L98.0870575,76.3777297 L98.0870575,79.8162475 L102.704496,79.8162475 L102.704496,84.4336857 L98.0870575,84.4336857 L98.0870575,87.5087031 L102.704496,87.5087031 L102.704496,92.1261413 L97.7186449,92.1310534 L97.6891719,92.1998238 C97.6408397,92.3162558 97.5884106,92.4309446 97.5319825,92.5436756 L97.7186449,92.1310534 C97.1728328,93.5199085 96.072662,94.618299 94.6829249,95.1618613 L94.6780127,100.152624 L90.0605745,100.152624 L90.0605745,95.5351861 L86.9855572,95.5351861 L86.9855572,100.152624 L82.368119,100.152624 L82.368119,95.5351861 L78.9296012,95.5351861 L78.9345133,100.152624 L74.3219873,100.152624 L74.3219873,95.1667735 L74.2286561,95.1274761 C74.1122241,95.0791439 73.9975353,95.0267148 73.8848043,94.9702867 L74.3219873,95.1667735 C72.9294096,94.6232335 71.8271459,93.5227505 71.2813551,92.1310534 L66.2955043,92.1261413 L66.2955043,87.5087031 L70.9129425,87.5087031 L70.9129425,84.4336857 L66.2955043,84.4336857 L66.2955043,79.8162475 L70.9129425,79.8162475 L70.9129425,76.3777297 L66.2955043,76.3826419 L66.2955043,71.7652037 L71.2813551,71.7652037 L71.3108281,71.6915212 C71.3564405,71.583506 71.4055887,71.4770183 71.4581932,71.3722302 L71.2813551,71.7652037 C71.8271459,70.3735066 72.9294096,69.2730236 74.3219873,68.7294837 L74.3219873,63.7387207 L78.9394255,63.7387207 Z M90.394602,76.0535266 L78.605398,76.0535266 L78.605398,87.8525549 L90.394602,87.8525549 L90.394602,76.0535266 L90.394602,76.0535266 Z" id="Shape" fill="#D7DEED"></path>
        </g>
    </g>
</svg>