<?xml version="1.0" encoding="UTF-8"?>
<svg width="20px" height="20px" viewBox="0 0 20 20" version="1.1" xmlns="http://www.w3.org/2000/svg" xmlns:xlink="http://www.w3.org/1999/xlink">
    <!-- Generator: Sketch 55.2 (78181) - https://sketchapp.com -->
    <title>icon / ico-admin</title>
    <desc>Created with Sketch.</desc>
    <g id="Symbols" stroke="none" stroke-width="1" fill="none" fill-rule="evenodd">
        <g id="icon-/-ico-admin" fill="#000000" fill-rule="nonzero">
            <path d="M8.8474292,11.7917599 L8.80533566,11.8645557 C8.48943257,12.3990704 8.62532729,13.0860937 9.11146008,13.4698828 L9.75121874,13.9701762 C9.75114262,13.9801173 9.75110437,13.9900574 9.75110437,14 C9.75110437,14.0099409 9.75114261,14.0198791 9.75121882,14.0298184 L9.11509815,14.5272587 C8.62831379,14.9115485 8.50307559,15.5819412 8.7932088,16.1138521 L9.30525382,17 L0.636438571,17 L0.636438571,15.25 C0.636438571,12.9225 5.5222719,11.75 7.9697719,11.75 C8.23652128,11.75 8.53223438,11.7639275 8.8474292,11.7917599 Z M7.9697719,10 C5.94393857,10 4.30310524,8.43375 4.30310524,6.5 C4.30310524,4.56625 5.94393857,3 7.9697719,3 C9.99560524,3 11.6364386,4.56625 11.6364386,6.5 C11.6364386,8.43375 9.99560524,10 7.9697719,10 Z M18.2161044,14.49 L19.2711044,15.315 C19.3661044,15.39 19.3911044,15.525 19.3311044,15.635 L18.3311044,17.365 C18.2711044,17.475 18.1411044,17.52 18.0261044,17.475 L16.7811044,16.975 C16.5211044,17.17 16.2411044,17.34 15.9361044,17.465 L15.7461044,18.79 C15.7311044,18.91 15.6261044,19 15.5011044,19 L13.5011044,19 C13.3761044,19 13.2711044,18.91 13.2561044,18.79 L13.0661044,17.465 C12.7611044,17.34 12.4811044,17.175 12.2211044,16.975 L10.9761044,17.475 C10.8661044,17.515 10.7311044,17.475 10.6711044,17.365 L9.67110437,15.635 C9.61110437,15.525 9.63610437,15.39 9.73110437,15.315 L10.7861044,14.49 C10.7661044,14.33 10.7511044,14.165 10.7511044,14 C10.7511044,13.835 10.7661044,13.67 10.7861044,13.51 L9.73110437,12.685 C9.63610437,12.61 9.60610437,12.475 9.67110437,12.365 L10.6711044,10.635 C10.7311044,10.525 10.8611044,10.48 10.9761044,10.525 L12.2211044,11.025 C12.4811044,10.83 12.7611044,10.66 13.0661044,10.535 L13.2561044,9.21 C13.2711044,9.09 13.3761044,9 13.5011044,9 L15.5011044,9 C15.6261044,9 15.7311044,9.09 15.7461044,9.21 L15.9361044,10.535 C16.2411044,10.66 16.5211044,10.825 16.7811044,11.025 L18.0261044,10.525 C18.1361044,10.485 18.2711044,10.525 18.3311044,10.635 L19.3311044,12.365 C19.3911044,12.475 19.3661044,12.61 19.2711044,12.685 L18.2161044,13.51 C18.2361044,13.67 18.2511044,13.83 18.2511044,14 C18.2511044,14.17 18.2361044,14.33 18.2161044,14.49 Z M14.5011044,15.75 C15.4661044,15.75 16.2511044,14.965 16.2511044,14 C16.2511044,13.035 15.4661044,12.25 14.5011044,12.25 C13.5361044,12.25 12.7511044,13.035 12.7511044,14 C12.7511044,14.965 13.5361044,15.75 14.5011044,15.75 Z" id="Shape"></path>
        </g>
    </g>
</svg>