<?xml version="1.0" encoding="UTF-8"?>
<svg width="20px" height="20px" viewBox="0 0 20 20" version="1.1" xmlns="http://www.w3.org/2000/svg" xmlns:xlink="http://www.w3.org/1999/xlink">
    <!-- Generator: Sketch 55.2 (78181) - https://sketchapp.com -->
    <title>icon / ico-admin-w</title>
    <desc>Created with Sketch.</desc>
    <g id="Symbols" stroke="none" stroke-width="1" fill="none" fill-rule="evenodd">
        <g id="icon-/-admin" fill="#FFFFFF">
            <path d="M8.8474292,11.7917599 L8.80533566,11.8645557 C8.48943257,12.3990704 8.62532729,13.0860937 9.11146008,13.4698828 L9.75121874,13.9701762 C9.75114262,13.9801173 9.75110437,13.9900574 9.75110437,14 C9.75110437,14.0099409 9.75114261,14.0198791 9.75121882,14.0298184 L9.11509815,14.5272587 C8.62831379,14.9115485 8.50307559,15.5819412 8.7932088,16.1138521 L9.30525382,17 L0.636438571,17 L0.636438571,15.25 C0.636438571,12.9225 5.5222719,11.75 7.9697719,11.75 C8.23652128,11.75 8.53223438,11.7639275 8.8474292,11.7917599 Z M7.9697719,10 C5.94393857,10 4.30310524,8.43375 4.30310524,6.5 C4.30310524,4.56625 5.94393857,3 7.9697719,3 C9.99560524,3 11.6364386,4.56625 11.6364386,6.5 C11.6364386,8.43375 9.99560524,10 7.9697719,10 Z M18.5796658,14.49 L19.6346658,15.315 C19.7296658,15.39 19.7546658,15.525 19.6946658,15.635 L18.6946658,17.365 C18.6346658,17.475 18.5046658,17.52 18.3896658,17.475 L17.1446658,16.975 C16.8846658,17.17 16.6046658,17.34 16.2996658,17.465 L16.1096658,18.79 C16.0946658,18.91 15.9896658,19 15.8646658,19 L13.8646658,19 C13.7396658,19 13.6346658,18.91 13.6196658,18.79 L13.4296658,17.465 C13.1246658,17.34 12.8446658,17.175 12.5846658,16.975 L11.3396658,17.475 C11.2296658,17.515 11.0946658,17.475 11.0346658,17.365 L10.0346658,15.635 C9.9746658,15.525 9.9996658,15.39 10.0946658,15.315 L11.1496658,14.49 C11.1296658,14.33 11.1146658,14.165 11.1146658,14 C11.1146658,13.835 11.1296658,13.67 11.1496658,13.51 L10.0946658,12.685 C9.9996658,12.61 9.9696658,12.475 10.0346658,12.365 L11.0346658,10.635 C11.0946658,10.525 11.2246658,10.48 11.3396658,10.525 L12.5846658,11.025 C12.8446658,10.83 13.1246658,10.66 13.4296658,10.535 L13.6196658,9.21 C13.6346658,9.09 13.7396658,9 13.8646658,9 L15.8646658,9 C15.9896658,9 16.0946658,9.09 16.1096658,9.21 L16.2996658,10.535 C16.6046658,10.66 16.8846658,10.825 17.1446658,11.025 L18.3896658,10.525 C18.4996658,10.485 18.6346658,10.525 18.6946658,10.635 L19.6946658,12.365 C19.7546658,12.475 19.7296658,12.61 19.6346658,12.685 L18.5796658,13.51 C18.5996658,13.67 18.6146658,13.83 18.6146658,14 C18.6146658,14.17 18.5996658,14.33 18.5796658,14.49 Z M14.5011044,15.75 C15.4661044,15.75 16.2511044,14.965 16.2511044,14 C16.2511044,13.035 15.4661044,12.25 14.5011044,12.25 C13.5361044,12.25 12.7511044,13.035 12.7511044,14 C12.7511044,14.965 13.5361044,15.75 14.5011044,15.75 Z" id="Shape"></path>
        </g>
    </g>
</svg>