<?xml version="1.0" encoding="UTF-8"?>
<svg width="20px" height="20px" viewBox="0 0 20 20" version="1.1" xmlns="http://www.w3.org/2000/svg" xmlns:xlink="http://www.w3.org/1999/xlink">
    <!-- Generator: Sketch 55.2 (78181) - https://sketchapp.com -->
    <title>icon / ico-auth-pol</title>
    <desc>Created with Sketch.</desc>
    <g id="Symbols" stroke="none" stroke-width="1" fill="none" fill-rule="evenodd">
        <g id="icon-/-auth-policy" fill="#000000" fill-rule="nonzero">
            <path d="M10.4471794,11.9579462 C10.2696612,12.223096 10.1666667,12.5378395 10.1666667,12.875 L10.1666667,17 L1,17 L1,15.25 C1,12.9225 5.88583333,11.75 8.33333333,11.75 C8.92878172,11.75 9.66855322,11.8193994 10.4471794,11.9579462 Z M8.33333333,10 C6.3075,10 4.66666667,8.43375 4.66666667,6.5 C4.66666667,4.56625 6.3075,3 8.33333333,3 C10.3591667,3 12,4.56625 12,6.5 C12,8.43375 10.3591667,10 8.33333333,10 Z M18.125,12 C18.60625,12 19,12.3857143 19,12.8571429 L19,17.1428571 C19,17.6142857 18.60625,18 18.125,18 L12.875,18 C12.39375,18 12,17.6142857 12,17.1428571 L12,12.8571429 C12,12.3857143 12.39375,12 12.875,12 L13.3125,12 L13.3125,11.1428571 C13.3125,9.96 14.2925,9 15.5,9 C16.7075,9 17.6875,9.96 17.6875,11.1428571 L17.6875,12 L18.125,12 Z M15.5208333,16 C16.0822917,16 16.5416667,15.55 16.5416667,15 C16.5416667,14.45 16.0822917,14 15.5208333,14 C14.959375,14 14.5,14.45 14.5,15 C14.5,15.55 14.959375,16 15.5208333,16 Z M16.85625,12 L16.85625,11.1428571 C16.85625,10.41 16.248125,9.81428571 15.5,9.81428571 C14.751875,9.81428571 14.14375,10.41 14.14375,11.1428571 L14.14375,12 L16.85625,12 Z" id="Shape"></path>
        </g>
    </g>
</svg>