<?xml version="1.0" encoding="UTF-8"?>
<svg width="44px" height="40px" viewBox="0 0 44 40" version="1.1" xmlns="http://www.w3.org/2000/svg" xmlns:xlink="http://www.w3.org/1999/xlink">
    <!-- Generator: sketchtool 48.2 (47327) - http://www.bohemiancoding.com/sketch -->
    <title>6E00D9FE-E10C-44A8-ADFB-0BD0D9C756CA</title>
    <desc>Created with sketchtool.</desc>
    <defs></defs>
    <g id="Troubleshooting-events" stroke="none" stroke-width="1" fill="none" fill-rule="evenodd" transform="translate(-1253.000000, -389.000000)">
        <g id="Group-8" transform="translate(313.000000, 355.000000)">
            <g id="Group-7-Copy" transform="translate(927.000000, 19.000000)">
                <g id="Group-7">
                    <g id="ico-workload-destination" transform="translate(12.659574, 12.659574)">
                        <rect id="Rectangle-6" x="0" y="0" width="44.6808511" height="44.6808511"></rect>
                        <path d="M43.6197211,24.1850111 L34.5783261,40.0074523 C33.9154855,41.1674234 32.6819179,41.8832905 31.34592,41.8832905 L13.3293531,41.8832905 C11.9933551,41.8832905 10.7597876,41.1674234 10.0969469,40.0074523 L1.05555193,24.1850111 C0.401523647,23.0404616 0.401523647,21.6353821 1.05555193,20.4908326 L10.0969469,4.66839132 C10.7597876,3.50842024 11.9933551,2.79255319 13.3293531,2.79255319 L31.34592,2.79255319 C32.6819179,2.79255319 33.9154855,3.50842024 34.5783261,4.66839132 L43.6197211,20.4908326 C44.2737494,21.6353821 44.2737494,23.0404616 43.6197211,24.1850111 Z M40.0453875,22.3379218 L31.191512,6.84363972 L13.483761,6.84363972 L4.62988554,22.3379218 L13.483761,37.832204 L31.191512,37.832204 L40.0453875,22.3379218 Z" id="Combined-Shape" fill="#A4C7F0"></path>
                        <path d="M19.7644255,27.1724255 L23.1244255,27.1724255 C23.6684283,27.1724255 24.196423,27.0844264 24.7084255,26.9084255 C25.2204281,26.7324247 25.6764235,26.4404276 26.0764255,26.0324255 C26.4764275,25.6244235 26.7964243,25.0924288 27.0364255,24.4364255 C27.2764267,23.7804223 27.3964255,22.9804303 27.3964255,22.0364255 C27.3964255,21.1724212 27.3124264,20.392429 27.1444255,19.6964255 C26.9764247,19.0004221 26.7004275,18.404428 26.3164255,17.9084255 C25.9324236,17.4124231 25.4244287,17.0324269 24.7924255,16.7684255 C24.1604224,16.5044242 23.3804302,16.3724255 22.4524255,16.3724255 L19.7644255,16.3724255 L19.7644255,27.1724255 Z M15.9964255,13.2044255 L23.3884255,13.2044255 C24.4924311,13.2044255 25.5204208,13.3804238 26.4724255,13.7324255 C27.4244303,14.0844273 28.2484221,14.612422 28.9444255,15.3164255 C29.640429,16.0204291 30.1844236,16.9004203 30.5764255,17.9564255 C30.9684275,19.0124308 31.1644255,20.2524184 31.1644255,21.6764255 C31.1644255,22.9244318 31.0044271,24.0764203 30.6844255,25.1324255 C30.3644239,26.1884308 29.8804288,27.1004217 29.2324255,27.8684255 C28.5844223,28.6364294 27.7764304,29.2404233 26.8084255,29.6804255 C25.8404207,30.1204277 24.7004321,30.3404255 23.3884255,30.3404255 L15.9964255,30.3404255 L15.9964255,13.2044255 Z" id="D" fill="#A4C7F0"></path>
                    </g>
                </g>
            </g>
        </g>
    </g>
</svg>