<?xml version="1.0" encoding="UTF-8"?>
<svg width="19px" height="20px" viewBox="0 0 19 20" version="1.1" xmlns="http://www.w3.org/2000/svg" xmlns:xlink="http://www.w3.org/1999/xlink">
    <!-- Generator: sketchtool 48.2 (47327) - http://www.bohemiancoding.com/sketch -->
    <title>8CA18A5D-FE33-4978-872E-22DE77B7ED7C</title>
    <desc>Created with sketchtool.</desc>
    <defs></defs>
    <g id="Troubleshooting-ingress-policy" stroke="none" stroke-width="1" fill="none" fill-rule="evenodd" transform="translate(-810.000000, -466.000000)">
        <g id="Ingress-Rule" transform="translate(313.000000, 294.000000)">
            <g id="Group-24-Copy-3" transform="translate(491.000000, 167.000000)">
                <g id="icon-securityPolicy" transform="translate(3.000000, 3.000000)">
                    <rect id="Rectangle-32" x="0" y="0" width="24" height="24"></rect>
                    <path d="M18.5264332,9.55293994 L17.5666667,9.12266327 L16.699794,9.51129436 L16.699794,3.82791911 L8.02325778,3.82791911 L4.82663919,8.09306369 L4.82663919,18.451272 L11.8825626,18.451272 C11.9925129,18.7959281 12.1253653,19.1368431 12.28112,19.474018 C12.4121615,19.7523418 12.5547816,20.0207326 12.7089806,20.2791911 L3.9133196,20.2791911 C3.40890711,20.2791911 3,19.8699974 3,19.3652315 L3,7.7884105 C3,7.59065688 3.06409483,7.39823767 3.18266392,7.24003477 L6.83594231,2.36558382 C7.00842672,2.13544347 7.27912397,2 7.56659799,2 L17.6131136,2 C18.117526,2 18.5264332,2.40919363 18.5264332,2.91395955 L18.5264332,9.55293994 Z M6.74377428,10.1240849 L6.74377428,9.13668391 L8.97495874,6.00631407 L10.0209524,6.00631407 L10.0209524,10.1240849 L6.74377428,10.1240849 Z M17.5666667,11.1395955 L22,13.1271205 L22,16.084747 C22,16.98387 21.8069056,17.8514317 21.4207111,18.6874583 C21.0345166,19.5077108 20.5104033,20.2096472 19.8483556,20.7932884 C19.1626632,21.3927037 18.4021079,21.7949369 17.5666667,22 C16.7312255,21.7949369 15.9706701,21.3927037 15.2849778,20.7932884 C14.62293,20.2096472 14.0988167,19.5077108 13.7126222,18.6874583 C13.3264277,17.8514317 13.1333333,16.98387 13.1333333,16.084747 L13.1333333,13.1271205 L17.5666667,11.1395955 Z" id="Combined-Shape" fill="#E57553" fill-rule="nonzero"></path>
                </g>
            </g>
        </g>
    </g>
</svg>